<?xml version="1.0" encoding="UTF-8"?>
<svg id="Layer_2" data-name="Layer 2" xmlns="http://www.w3.org/2000/svg" viewBox="0 0 526.93 526.93">
  <g id="Layer_1-2" data-name="Layer 1">
    <g>
      <g>
        <path d="M297.39,411.11l-22.24-36.99h-23.35l-22.24,36.99-5.84-1.58c-12.38-3.36-24.3-8.3-35.41-14.67l-5.24-3.01,10.42-41.88-16.51-16.51-41.88,10.42-3.01-5.25c-6.37-11.11-11.31-23.03-14.67-35.41l-1.58-5.84,36.99-22.24v-23.35l-36.99-22.24,1.58-5.84c3.36-12.38,8.3-24.3,14.67-35.41l3.01-5.25,41.88,10.42,16.51-16.51-10.42-41.88,5.24-3.01c11.11-6.37,23.03-11.31,35.41-14.67l5.84-1.58,22.24,36.99h23.35l22.24-36.99,5.84,1.58c12.38,3.36,24.3,8.3,35.41,14.67l5.24,3.01-10.42,41.88,16.51,16.51,41.88-10.42,3.01,5.25c6.37,11.12,11.31,23.03,14.67,35.41l1.58,5.84-36.99,22.24v23.35l36.99,22.24-1.58,5.84c-3.36,12.38-8.3,24.3-14.67,35.41l-3.01,5.25-41.88-10.42-16.51,16.51,10.42,41.88-5.24,3.01c-11.11,6.37-23.03,11.31-35.41,14.67l-5.84,1.58ZM242.74,358.12h41.45l20.6,34.26c7.09-2.27,13.99-5.13,20.6-8.54l-9.65-38.79,29.31-29.31,38.79,9.65c3.41-6.62,6.26-13.51,8.54-20.6l-34.26-20.6v-41.45l34.26-20.6c-2.27-7.09-5.13-13.99-8.54-20.61l-38.79,9.66-29.31-29.31,9.65-38.79c-6.61-3.41-13.51-6.26-20.6-8.54l-20.6,34.26h-41.45l-20.6-34.26c-7.09,2.27-13.99,5.13-20.6,8.54l9.65,38.79-29.31,29.31-38.79-9.66c-3.41,6.62-6.26,13.51-8.54,20.61l34.26,20.6v41.45l-34.26,20.6c2.27,7.09,5.13,13.99,8.54,20.6l38.79-9.65,29.31,29.31-9.65,38.79c6.61,3.41,13.51,6.26,20.6,8.54l20.6-34.26ZM160.81,279.67h.01-.01Z" style="fill: #fff; stroke-width: 0px;"/>
        <path d="M263.47,323.88c-33.31,0-60.41-27.1-60.41-60.41s27.1-60.41,60.41-60.41,60.41,27.1,60.41,60.41-27.1,60.41-60.41,60.41ZM263.47,219.06c-24.49,0-44.41,19.92-44.41,44.41s19.92,44.41,44.41,44.41,44.41-19.92,44.41-44.41-19.92-44.41-44.41-44.41Z" style="fill: #fff; stroke-width: 0px;"/>
      </g>
      <path d="M423.72,131.2c-7.17,0-14.34-2.73-19.8-8.19-10.92-10.92-10.92-28.68,0-39.6,10.92-10.92,28.68-10.92,39.6,0,10.92,10.92,10.92,28.68,0,39.6-5.46,5.46-12.63,8.19-19.8,8.19ZM423.72,91.22c-3.07,0-6.15,1.17-8.49,3.51-4.68,4.68-4.68,12.29,0,16.97,4.68,4.68,12.29,4.68,16.97,0,4.68-4.68,4.68-12.29,0-16.97-2.34-2.34-5.41-3.51-8.49-3.51Z" style="fill: #00c6c2; stroke-width: 0px;"/>
      <path d="M103.21,451.71c-7.17,0-14.34-2.73-19.8-8.19-10.92-10.92-10.92-28.68,0-39.6,5.29-5.29,12.32-8.2,19.8-8.2s14.51,2.91,19.8,8.2c10.92,10.92,10.92,28.68,0,39.6-5.46,5.46-12.63,8.19-19.8,8.19ZM103.21,411.72c-3.21,0-6.22,1.25-8.48,3.51-4.68,4.68-4.68,12.29,0,16.97,4.68,4.68,12.29,4.68,16.97,0,4.68-4.68,4.68-12.29,0-16.97-2.27-2.27-5.28-3.52-8.49-3.52Z" style="fill: #00c6c2; stroke-width: 0px;"/>
      <path d="M423.72,451.71c-7.17,0-14.34-2.73-19.8-8.19-10.92-10.92-10.92-28.68,0-39.6,10.92-10.92,28.68-10.92,39.6,0,10.92,10.92,10.92,28.68,0,39.6-5.46,5.46-12.63,8.19-19.8,8.19ZM423.72,411.72c-3.21,0-6.22,1.25-8.48,3.51,0,0,0,0,0,0-4.68,4.68-4.68,12.29,0,16.97,4.68,4.68,12.29,4.68,16.97,0,4.68-4.68,4.68-12.29,0-16.97-2.27-2.27-5.28-3.52-8.49-3.52Z" style="fill: #00c6c2; stroke-width: 0px;"/>
      <path d="M103.21,131.21c-7.48,0-14.51-2.91-19.8-8.2-10.92-10.92-10.92-28.68,0-39.6,10.92-10.92,28.68-10.92,39.6,0,5.29,5.29,8.2,12.32,8.2,19.8s-2.91,14.51-8.2,19.8c-5.29,5.29-12.32,8.2-19.8,8.2ZM103.21,91.22c-3.07,0-6.15,1.17-8.49,3.51-4.68,4.68-4.68,12.29,0,16.97,2.27,2.27,5.28,3.52,8.49,3.52s6.22-1.25,8.48-3.51c2.27-2.27,3.52-5.28,3.52-8.49s-1.25-6.22-3.51-8.48c-2.34-2.34-5.41-3.51-8.49-3.51Z" style="fill: #00c6c2; stroke-width: 0px;"/>
      <g>
        <path d="M490.1,300.3c-20.31,0-36.84-16.52-36.84-36.84s16.52-36.84,36.84-36.84,36.84,16.52,36.84,36.84-16.52,36.84-36.84,36.84ZM490.1,242.63c-11.49,0-20.84,9.35-20.84,20.84s9.35,20.84,20.84,20.84,20.84-9.35,20.84-20.84-9.35-20.84-20.84-20.84Z" style="fill: #00c6c2; stroke-width: 0px;"/>
        <path d="M36.84,300.3c-20.31,0-36.84-16.52-36.84-36.84s16.52-36.84,36.84-36.84,36.84,16.53,36.84,36.84-16.52,36.84-36.84,36.84ZM36.84,242.63c-11.49,0-20.84,9.35-20.84,20.84s9.35,20.84,20.84,20.84,20.84-9.35,20.84-20.84-9.35-20.84-20.84-20.84Z" style="fill: #00c6c2; stroke-width: 0px;"/>
      </g>
      <g>
        <path d="M263.47,526.93c-20.31,0-36.84-16.52-36.84-36.84s16.52-36.84,36.84-36.84,36.84,16.52,36.84,36.84-16.52,36.84-36.84,36.84ZM263.47,469.26c-11.49,0-20.84,9.35-20.84,20.84s9.35,20.84,20.84,20.84,20.84-9.35,20.84-20.84-9.35-20.84-20.84-20.84h0Z" style="fill: #00c6c2; stroke-width: 0px;"/>
        <path d="M263.47,73.67c-20.31,0-36.84-16.53-36.84-36.84S243.15,0,263.47,0s36.84,16.52,36.84,36.84-16.52,36.84-36.84,36.84ZM263.47,16c-11.49,0-20.84,9.35-20.84,20.84s9.35,20.84,20.84,20.84,20.84-9.35,20.84-20.84-9.35-20.84-20.84-20.84h0Z" style="fill: #00c6c2; stroke-width: 0px;"/>
      </g>
    </g>
  </g>
</svg>