<?xml version="1.0" encoding="UTF-8"?>
<svg id="Layer_2" data-name="Layer 2" xmlns="http://www.w3.org/2000/svg" viewBox="0 0 415.48 432.03">
  <g id="Layer_1-2" data-name="Layer 1">
    <g>
      <path d="M113.72,432.03l-5.84-1.58c-12.38-3.36-24.29-8.3-35.41-14.67l-5.25-3.01,10.42-41.88-16.51-16.51-41.88,10.42-3.01-5.24c-6.37-11.11-11.31-23.03-14.67-35.41l-1.58-5.84,36.99-22.24v-23.35L0,250.47l1.58-5.84c3.36-12.38,8.3-24.3,14.67-35.41l3.01-5.24,41.88,10.42,16.51-16.51-10.42-41.88,5.25-3.01c11.12-6.37,23.03-11.31,35.41-14.67l5.84-1.58,22.24,36.99h23.35l22.24-36.99,5.84,1.58c12.38,3.36,24.3,8.3,35.41,14.67l5.25,3.01-10.42,41.88,16.51,16.51,41.88-10.42,3.01,5.24c6.37,11.12,11.31,23.03,14.67,35.41l1.58,5.84-36.99,22.24v23.35l36.99,22.24-1.58,5.84c-3.36,12.38-8.3,24.29-14.67,35.41l-3.01,5.24-41.88-10.42-16.51,16.51,10.42,41.88-5.25,3.01c-11.12,6.37-23.03,11.31-35.41,14.67l-5.84,1.58-22.24-36.99h-23.35l-22.24,36.99ZM126.91,379.05h41.45l20.6,34.26c7.09-2.27,13.99-5.13,20.6-8.54l-9.65-38.79,29.31-29.31,38.79,9.65c3.41-6.62,6.26-13.51,8.54-20.6l-34.26-20.6v-41.45l34.26-20.6c-2.27-7.09-5.13-13.99-8.54-20.6l-38.79,9.65-29.31-29.31,9.65-38.79c-6.62-3.41-13.51-6.26-20.6-8.54l-20.6,34.26h-41.45l-20.6-34.26c-7.09,2.27-13.99,5.13-20.61,8.54l9.66,38.79-29.31,29.31-38.79-9.65c-3.41,6.61-6.26,13.51-8.54,20.6l34.26,20.6v41.45l-34.26,20.6c2.27,7.09,5.13,13.99,8.54,20.6l38.79-9.65,29.31,29.31-9.66,38.79c6.62,3.41,13.51,6.26,20.61,8.54l20.6-34.26ZM44.99,300.59h0,0Z" style="fill: #fff; stroke-width: 0px;"/>
      <path d="M147.64,344.8c-33.31,0-60.41-27.1-60.41-60.41s27.1-60.41,60.41-60.41,60.41,27.1,60.41,60.41-27.1,60.41-60.41,60.41ZM147.64,239.98c-24.49,0-44.41,19.92-44.41,44.41s19.92,44.41,44.41,44.41,44.41-19.92,44.41-44.41-19.92-44.41-44.41-44.41Z" style="fill: #fff; stroke-width: 0px;"/>
      <path d="M312.01,207.06c-.09,0-.17,0-.26,0l-6.05-.02-7.91-28.18-12.09-3.32-21.18,20.2-5.21-3.07c-7.56-4.46-14.52-9.87-20.71-16.09l-4.26-4.29,14.33-25.51-6.21-10.9-29.25-.7-1.51-5.85c-2.19-8.49-3.29-17.24-3.27-26.02l.02-6.05,28.18-7.91,3.32-12.09-20.2-21.18,3.07-5.21c4.46-7.56,9.87-14.53,16.09-20.71l4.29-4.26,25.51,14.33,10.9-6.21.7-29.25,5.85-1.51c8.4-2.17,17.06-3.27,25.75-3.27.09,0,.18,0,.27,0l6.05.02,7.91,28.18,12.09,3.32,21.18-20.2,5.21,3.07c7.56,4.46,14.53,9.87,20.7,16.09l4.26,4.29-14.33,25.51,6.21,10.9,29.25.7,1.51,5.85c2.19,8.49,3.29,17.24,3.27,26.02l-.02,6.05-28.18,7.91-3.32,12.09,20.2,21.18-3.07,5.21c-4.46,7.56-9.87,14.53-16.09,20.7l-4.29,4.26-25.51-14.33-10.9,6.21-.7,29.25-5.85,1.51c-8.4,2.17-17.06,3.27-25.75,3.27ZM281.2,157.72l29.54,8.11,7.03,25.04c3.4-.23,6.79-.65,10.14-1.27l.62-26,26.62-15.16,22.67,12.73c2.24-2.56,4.34-5.26,6.27-8.07l-17.95-18.82,8.11-29.54,25.04-7.03c-.23-3.4-.65-6.79-1.27-10.14l-26-.62-15.16-26.62,12.73-22.67c-2.56-2.24-5.26-4.34-8.07-6.27l-18.82,17.95-29.54-8.11-7.03-25.04c-3.4.23-6.79.65-10.14,1.27l-.62,26-26.62,15.16-22.67-12.73c-2.24,2.56-4.34,5.26-6.27,8.07l17.95,18.82-8.11,29.54-25.04,7.03c.23,3.4.65,6.79,1.27,10.14l26,.62,15.16,26.62-12.73,22.67c2.56,2.24,5.26,4.34,8.07,6.27l18.82-17.95ZM243.13,95.84h0,0Z" style="fill: #00c6c2; stroke-width: 0px;"/>
      <path d="M312.02,146.47c-3.81,0-7.65-.51-11.42-1.55-22.82-6.26-36.3-29.92-30.04-52.75h0c6.26-22.82,29.92-36.3,52.75-30.04,22.82,6.26,36.3,29.92,30.04,52.75-3.03,11.06-10.19,20.27-20.15,25.94-6.56,3.74-13.82,5.64-21.17,5.64ZM285.99,96.41c-3.93,14.32,4.52,29.16,18.84,33.09,6.94,1.9,14.2.99,20.45-2.57s10.74-9.34,12.64-16.27c3.93-14.32-4.52-29.16-18.84-33.09-14.32-3.93-29.16,4.52-33.09,18.84h0Z" style="fill: #00c6c2; stroke-width: 0px;"/>
    </g>
  </g>
</svg>