<?xml version="1.0" encoding="UTF-8"?>
<svg id="Layer_2" data-name="Layer 2" xmlns="http://www.w3.org/2000/svg" viewBox="0 0 475.45 535.31">
  <g id="Layer_1-2" data-name="Layer 1">
    <g>
      <g>
        <path d="M237.74,257.66c-71.04,0-128.83-57.79-128.83-128.83S166.71,0,237.74,0s128.83,57.79,128.83,128.83-57.79,128.83-128.83,128.83ZM237.74,16c-62.21,0-112.83,50.61-112.83,112.83s50.61,112.83,112.83,112.83,112.83-50.61,112.83-112.83-50.61-112.83-112.83-112.83Z" style="fill: #00c6c2; stroke-width: 0px;"/>
        <path d="M237.74,224.09c-52.53,0-95.27-42.74-95.27-95.27s42.74-95.27,95.27-95.27,95.27,42.74,95.27,95.27-42.74,95.27-95.27,95.27ZM237.74,49.56c-43.71,0-79.27,35.56-79.27,79.27s35.56,79.27,79.27,79.27,79.27-35.56,79.27-79.27-35.56-79.27-79.27-79.27Z" style="fill: #00c6c2; stroke-width: 0px;"/>
        <path d="M208.24,137.68h-7.26v-8.17h6.24c-.11-1.59-.11-3.18-.11-4.88v-1.48h-6.13v-8.17h6.7c2.72-18.61,13.84-29.85,33.93-29.85s29.39,10.44,32.46,23.94l-17.25,4.43c-1.7-7.72-5.67-11.69-13.62-11.69s-11.92,4.31-13.05,13.16h21.56v8.17h-21.9v6.36h16v8.17h-15.09c1.7,6.58,5.67,9.19,12.6,9.19,8.28,0,12.48-3.97,13.62-14.07l17.59,2.95c-2.27,18.04-13.84,27.92-33.25,27.92s-29.73-8.74-33.02-25.99Z" style="fill: #00c6c2; stroke-width: 0px;"/>
      </g>
      <path d="M73.2,400.65c-2.05,0-4.09-.78-5.66-2.34-3.12-3.12-3.12-8.19,0-11.31l55.12-55.12c23.18-23.18,54-35.95,86.78-35.95h102.45c20.95,0,37.99,17.04,37.99,38s-17.04,37.99-37.99,37.99h-85.34c-4.42,0-8-3.58-8-8s3.58-8,8-8h85.34c12.13,0,21.99-9.87,21.99-21.99s-9.87-21.99-21.99-21.99h-102.45c-28.51,0-55.31,11.1-75.47,31.26l-55.12,55.12c-1.56,1.56-3.61,2.34-5.66,2.34Z" style="fill: #052831; stroke-width: 0px;"/>
      <path d="M142.54,467.89c-2.05,0-4.09-.78-5.66-2.34-3.12-3.12-3.12-8.19,0-11.31l21.72-21.72h127.27c25.41,0,49.61-9.58,68.14-26.96l98.55-92.49c8.76-8.22,9.23-22.07,1.05-30.87-4.01-4.32-9.47-6.8-15.36-6.98-5.9-.16-11.49,1.96-15.76,6.02l-78.61,74.11c-3.21,3.03-8.28,2.88-11.31-.33-3.03-3.21-2.88-8.28.33-11.31l78.58-74.09c7.37-7.01,17.06-10.72,27.26-10.39,10.2.31,19.64,4.6,26.59,12.08,14.16,15.23,13.34,39.2-1.82,53.43l-98.55,92.49c-21.51,20.18-49.59,31.3-79.09,31.3h-120.65l-17.04,17.04c-1.56,1.56-3.61,2.34-5.66,2.34Z" style="fill: #052831; stroke-width: 0px;"/>
      <path d="M100,535.31c-5.49,0-10.65-2.14-14.53-6.02L6.02,449.84c-3.88-3.88-6.02-9.04-6.02-14.53s2.14-10.65,6.02-14.53l38.3-38.31c3.88-3.88,9.04-6.02,14.53-6.02s10.65,2.14,14.53,6.02l79.45,79.45c8.01,8.01,8.01,21.05,0,29.06l-38.31,38.3c-3.88,3.88-9.04,6.02-14.53,6.02ZM58.86,392.45c-1.22,0-2.36.47-3.22,1.33l-38.31,38.31c-.86.86-1.33,2-1.33,3.22s.47,2.36,1.33,3.22l79.45,79.45c.86.86,2,1.33,3.22,1.33s2.36-.47,3.22-1.33l38.31-38.31c.86-.86,1.33-2,1.33-3.22s-.47-2.36-1.33-3.22l-79.45-79.45c-.86-.86-2-1.33-3.22-1.33ZM147.18,485.33h0,0Z" style="fill: #052831; stroke-width: 0px;"/>
    </g>
  </g>
</svg>