<?xml version="1.0" encoding="UTF-8"?>
<svg id="Layer_2" data-name="Layer 2" xmlns="http://www.w3.org/2000/svg" viewBox="0 0 426 460.23">
  <g id="Layer_1-2" data-name="Layer 1">
    <g>
      <path d="M222.65,344.14h-19.3c-73.34,0-133.01-59.67-133.01-133.01V0h285.32v211.13c0,73.34-59.67,133.01-133.01,133.01ZM86.34,16v195.13c0,64.52,52.49,117.01,117.01,117.01h19.3c64.52,0,117.01-52.49,117.01-117.01V16H86.34Z" style="fill: #052831; stroke-width: 0px;"/>
      <path d="M347.66,210.87c-4.42,0-8-3.58-8-8s3.58-8,8-8c34.37,0,62.34-27.97,62.34-62.34s-27.97-62.34-62.34-62.34c-4.42,0-8-3.58-8-8s3.58-8,8-8c43.2,0,78.34,35.14,78.34,78.34s-35.14,78.34-78.34,78.34Z" style="fill: #052831; stroke-width: 0px;"/>
      <path d="M78.34,210.87C35.14,210.87,0,175.73,0,132.53S35.14,54.19,78.34,54.19c4.42,0,8,3.58,8,8s-3.58,8-8,8c-34.37,0-62.34,27.97-62.34,62.34s27.97,62.34,62.34,62.34c4.42,0,8,3.58,8,8s-3.58,8-8,8Z" style="fill: #052831; stroke-width: 0px;"/>
      <path d="M290.91,460.23h-155.82v-69.42h155.82v69.42ZM151.09,444.23h123.82v-37.42h-123.82v37.42Z" style="fill: #052831; stroke-width: 0px;"/>
      <path d="M233.62,406.81c-4.42,0-8-3.58-8-8v-61.19c0-4.42,3.58-8,8-8s8,3.58,8,8v61.19c0,4.42-3.58,8-8,8Z" style="fill: #052831; stroke-width: 0px;"/>
      <path d="M192.38,406.81c-4.42,0-8-3.58-8-8v-61.19c0-4.42,3.58-8,8-8s8,3.58,8,8v61.19c0,4.42-3.58,8-8,8Z" style="fill: #052831; stroke-width: 0px;"/>
      <path d="M249.98,212.84c-1.27,0-2.55-.3-3.72-.92l-33.26-17.48-33.26,17.48c-2.69,1.42-5.96,1.18-8.43-.61-2.46-1.79-3.7-4.82-3.18-7.82l6.35-37.03-26.91-26.23c-2.18-2.13-2.97-5.3-2.02-8.2.94-2.9,3.44-5.01,6.46-5.44l37.18-5.4,16.63-33.69c1.35-2.73,4.13-4.46,7.17-4.46s5.83,1.73,7.17,4.46l16.63,33.69,37.18,5.4c3.01.44,5.52,2.55,6.46,5.44.94,2.9.16,6.08-2.02,8.2l-26.91,26.23,6.35,37.03c.51,3-.72,6.03-3.18,7.82-1.39,1.01-3.04,1.53-4.7,1.53ZM213,177.4c1.28,0,2.56.31,3.72.92l22.63,11.9-4.32-25.2c-.45-2.6.42-5.24,2.3-7.08l18.31-17.85-25.3-3.68c-2.61-.38-4.86-2.02-6.02-4.38l-11.32-22.93-11.32,22.93c-1.17,2.36-3.42,4-6.02,4.38l-25.3,3.68,18.31,17.85c1.89,1.84,2.75,4.49,2.3,7.08l-4.32,25.2,22.63-11.9c1.17-.61,2.44-.92,3.72-.92Z" style="fill: #00c6c2; stroke-width: 0px;"/>
    </g>
  </g>
</svg>