<?xml version="1.0" encoding="UTF-8"?>
<svg id="Layer_2" data-name="Layer 2" xmlns="http://www.w3.org/2000/svg" viewBox="0 0 573.96 455.62">
  <g id="Layer_1-2" data-name="Layer 1">
    <g>
      <g>
        <g>
          <path d="M316.89,393.2c-.89,0-1.8-.15-2.69-.47-4.16-1.49-6.33-6.06-4.84-10.23l29.99-83.92c6.93-25.21,23.22-46.25,45.92-59.25l69.99-40.11c7.33-4.2,15.85-5.29,24-3.08,8.15,2.21,14.95,7.46,19.15,14.79,4.2,7.33,5.29,15.85,3.08,24-2.21,8.15-7.46,14.95-14.79,19.15l-58.3,33.41c-3.83,2.2-8.72.87-10.92-2.96-2.2-3.83-.87-8.72,2.96-10.92l58.3-33.41c3.62-2.07,6.21-5.43,7.31-9.46,1.09-4.03.55-8.24-1.52-11.85-2.07-3.62-5.43-6.21-9.46-7.31-4.03-1.09-8.24-.55-11.85,1.52l-69.99,40.11c-19.08,10.93-32.76,28.65-38.52,49.87l-.19.6-30.09,84.21c-1.17,3.27-4.25,5.31-7.53,5.31Z" style="fill: #fff; stroke-width: 0px;"/>
          <path d="M404.61,387.02c-.69,0-1.4-.09-2.1-.28-4.26-1.16-6.78-5.55-5.63-9.82l6.52-24.02,87.55-50.18c16.98-9.73,29.49-25.4,35.21-44.12l31.11-101.76c2.49-8.15-2.1-16.85-10.24-19.38-4-1.24-8.23-.84-11.92,1.12-3.69,1.97-6.38,5.26-7.58,9.27l-24.68,81.41c-1.28,4.23-5.75,6.61-9.98,5.33-4.23-1.28-6.62-5.75-5.33-9.98l24.67-81.38c2.42-8.1,7.88-14.79,15.38-18.78,7.5-4,16.09-4.81,24.2-2.28,16.52,5.14,25.85,22.79,20.79,39.33l-31.11,101.76c-6.92,22.62-22.03,41.56-42.55,53.32l-81.8,46.88-4.78,17.63c-.97,3.56-4.19,5.91-7.72,5.91Z" style="fill: #fff; stroke-width: 0px;"/>
          <path d="M317.79,455.62c-11.33,0-20.55-9.22-20.55-20.55v-37.31c0-11.33,9.22-20.55,20.55-20.55h83.13c11.33,0,20.55,9.22,20.55,20.55v37.32c0,11.33-9.22,20.55-20.55,20.55h-83.13ZM317.79,393.2c-2.51,0-4.55,2.04-4.55,4.55v37.31c0,2.51,2.04,4.55,4.55,4.55h83.13c2.51,0,4.55-2.04,4.55-4.55v-37.32c0-2.51-2.04-4.55-4.55-4.55h-83.13Z" style="fill: #fff; stroke-width: 0px;"/>
        </g>
        <g>
          <path d="M257.07,393.2c-3.29,0-6.36-2.04-7.53-5.31l-30.2-84.5-.08-.3c-5.76-21.22-19.44-38.93-38.52-49.87l-69.99-40.11c-3.62-2.08-7.83-2.61-11.86-1.52-4.03,1.09-7.38,3.69-9.46,7.31-2.08,3.62-2.62,7.83-1.52,11.86,1.09,4.03,3.69,7.38,7.31,9.46l58.3,33.41c3.83,2.2,5.16,7.08,2.96,10.92-2.2,3.83-7.08,5.16-10.92,2.96l-58.3-33.41c-7.33-4.2-12.58-11-14.79-19.15-2.21-8.15-1.12-16.67,3.08-24,4.2-7.33,11-12.58,19.15-14.79,8.15-2.21,16.67-1.12,24,3.08l69.98,40.11c22.7,13.01,38.99,34.04,45.92,59.25l29.99,83.92c1.49,4.16-.68,8.74-4.84,10.23-.89.32-1.8.47-2.69.47Z" style="fill: #fff; stroke-width: 0px;"/>
          <path d="M169.35,387.02c-3.52,0-6.75-2.34-7.72-5.91l-4.78-17.63-81.8-46.88c-20.52-11.76-35.64-30.7-42.55-53.32L1.38,161.52c-5.06-16.55,4.27-34.2,20.79-39.33,8.11-2.52,16.7-1.71,24.2,2.28,7.49,3.99,12.96,10.67,15.39,18.81l24.67,81.35c1.28,4.23-1.11,8.7-5.33,9.98-4.23,1.28-8.7-1.11-9.98-5.33l-24.67-81.38c-1.21-4.04-3.9-7.33-7.59-9.3-3.69-1.97-7.92-2.37-11.92-1.12-8.14,2.53-12.74,11.23-10.24,19.38l31.11,101.76c5.72,18.72,18.23,34.39,35.21,44.12l87.55,50.18,6.52,24.02c1.16,4.26-1.36,8.66-5.63,9.82-.7.19-1.41.28-2.1.28Z" style="fill: #fff; stroke-width: 0px;"/>
          <path d="M256.18,455.62h-83.13c-11.33,0-20.55-9.22-20.55-20.55v-37.32c0-11.33,9.22-20.55,20.55-20.55h83.13c11.33,0,20.55,9.22,20.55,20.55v37.31c0,11.33-9.22,20.55-20.55,20.55ZM173.04,393.2c-2.51,0-4.55,2.04-4.55,4.55v37.32c0,2.51,2.04,4.55,4.55,4.55h83.13c2.51,0,4.55-2.04,4.55-4.55v-37.31c0-2.51-2.04-4.55-4.55-4.55h-83.13Z" style="fill: #fff; stroke-width: 0px;"/>
        </g>
      </g>
      <g>
        <path d="M459.12,179.38c-3.68,0-6.99-2.55-7.81-6.29-6.37-29.07-32.62-50.17-62.43-50.17-14.03,0-27.34,4.46-38.49,12.89-3.53,2.66-8.54,1.97-11.21-1.56-2.66-3.53-1.97-8.54,1.56-11.21,13.96-10.55,30.6-16.13,48.14-16.13s36.24,6.36,50.43,17.92c13.98,11.39,23.79,27.31,27.63,44.83.95,4.32-1.79,8.58-6.1,9.53-.58.13-1.15.19-1.72.19Z" style="fill: #00c6c2; stroke-width: 0px;"/>
        <path d="M114.84,179.38c-.57,0-1.14-.06-1.72-.19-4.32-.95-7.05-5.21-6.1-9.53,3.84-17.52,13.65-33.45,27.63-44.83,14.19-11.56,32.1-17.92,50.43-17.92,17.09,0,33.39,5.32,47.14,15.38,3.57,2.61,4.34,7.62,1.73,11.18-2.61,3.56-7.61,4.34-11.18,1.73-10.99-8.04-24.03-12.29-37.69-12.29-29.81,0-56.06,21.1-62.43,50.17-.82,3.74-4.13,6.29-7.81,6.29Z" style="fill: #00c6c2; stroke-width: 0px;"/>
        <path d="M388.89,104.19c-24.47,0-44.37-19.9-44.37-44.37s19.9-44.37,44.37-44.37,44.37,19.9,44.37,44.37-19.9,44.37-44.37,44.37ZM388.89,31.45c-15.64,0-28.37,12.73-28.37,28.37s12.73,28.37,28.37,28.37,28.37-12.73,28.37-28.37-12.73-28.37-28.37-28.37Z" style="fill: #00c6c2; stroke-width: 0px;"/>
        <path d="M185.07,104.19c-24.47,0-44.37-19.9-44.37-44.37s19.9-44.37,44.37-44.37,44.37,19.9,44.37,44.37-19.9,44.37-44.37,44.37ZM185.07,31.45c-15.64,0-28.37,12.73-28.37,28.37s12.73,28.37,28.37,28.37,28.37-12.73,28.37-28.37-12.73-28.37-28.37-28.37Z" style="fill: #00c6c2; stroke-width: 0px;"/>
        <path d="M358.9,179.38c-4.42,0-8-3.58-8-8,0-35.24-28.67-63.92-63.92-63.92s-63.92,28.67-63.92,63.92c0,4.42-3.58,8-8,8s-8-3.58-8-8c0-44.07,35.85-79.92,79.92-79.92s79.92,35.85,79.92,79.92c0,4.42-3.58,8-8,8Z" style="fill: #00c6c2; stroke-width: 0px;"/>
        <path d="M286.98,88.74c-24.47,0-44.37-19.9-44.37-44.37S262.52,0,286.98,0s44.37,19.9,44.37,44.37-19.9,44.37-44.37,44.37ZM286.98,16c-15.64,0-28.37,12.73-28.37,28.37s12.73,28.37,28.37,28.37,28.37-12.73,28.37-28.37-12.73-28.37-28.37-28.37Z" style="fill: #00c6c2; stroke-width: 0px;"/>
      </g>
    </g>
  </g>
</svg>