<?xml version="1.0" encoding="UTF-8"?>
<svg id="Layer_2" data-name="Layer 2" xmlns="http://www.w3.org/2000/svg" viewBox="0 0 475.44 506.38">
  <g id="Layer_1-2" data-name="Layer 1">
    <g>
      <path d="M237.73,148.29c-4.42,0-8-3.58-8-8v-74.61c0-4.42,3.58-8,8-8s8,3.58,8,8v74.61c0,4.42-3.58,8-8,8Z" style="fill: #fff; stroke-width: 0px;"/>
      <path d="M350.48,148.29c-4.42,0-8-3.58-8-8V44.84h-75.91c-4.42,0-8-3.58-8-8s3.58-8,8-8h91.91v111.45c0,4.42-3.58,8-8,8Z" style="fill: #fff; stroke-width: 0px;"/>
      <path d="M119.61,148.29c-4.42,0-8-3.58-8-8V28.84h91.91c4.42,0,8,3.58,8,8s-3.58,8-8,8h-75.91v95.45c0,4.42-3.58,8-8,8Z" style="fill: #fff; stroke-width: 0px;"/>
      <g>
        <path d="M73.19,371.72c-2.05,0-4.09-.78-5.66-2.34-3.12-3.12-3.12-8.19,0-11.31l55.12-55.12c23.18-23.18,54-35.95,86.78-35.95h102.45c20.95,0,37.99,17.04,37.99,37.99s-17.04,37.99-37.99,37.99h-85.34c-4.42,0-8-3.58-8-8s3.58-8,8-8h85.34c12.13,0,21.99-9.87,21.99-21.99s-9.87-21.99-21.99-21.99h-102.45c-28.51,0-55.31,11.1-75.47,31.26l-55.12,55.12c-1.56,1.56-3.61,2.34-5.66,2.34Z" style="fill: #fff; stroke-width: 0px;"/>
        <path d="M142.53,438.97c-2.05,0-4.09-.78-5.66-2.34-3.12-3.12-3.12-8.19,0-11.31l21.72-21.72h127.27c25.41,0,49.61-9.58,68.14-26.97l98.55-92.48c8.76-8.22,9.23-22.07,1.05-30.87-4.01-4.32-9.47-6.8-15.36-6.98-5.9-.17-11.49,1.96-15.76,6.02l-78.61,74.12c-3.22,3.03-8.28,2.88-11.31-.33-3.03-3.21-2.88-8.28.33-11.31l78.58-74.09c7.37-7.01,17.04-10.73,27.26-10.39,10.2.31,19.64,4.6,26.59,12.08,14.16,15.23,13.34,39.2-1.83,53.43l-98.55,92.49c-21.51,20.18-49.59,31.3-79.09,31.3h-120.65l-17.04,17.04c-1.56,1.56-3.61,2.34-5.66,2.34Z" style="fill: #fff; stroke-width: 0px;"/>
        <path d="M99.99,506.38c-5.26,0-10.52-2-14.53-6.01L6.01,420.92c-8.01-8.01-8.01-21.05,0-29.06l38.3-38.3c8.02-8.01,21.05-8.01,29.06,0l79.45,79.45c8.01,8.01,8.01,21.05,0,29.06l-38.3,38.31c-4.01,4-9.27,6.01-14.53,6.01ZM58.85,363.53c-1.21,0-2.36.47-3.22,1.33l-38.3,38.3c-.86.86-1.33,2-1.33,3.22s.47,2.36,1.33,3.22l79.45,79.45c1.77,1.77,4.66,1.77,6.44,0l38.3-38.31c.86-.86,1.33-2,1.33-3.22s-.47-2.36-1.33-3.22l-79.45-79.45c-.86-.86-2-1.33-3.22-1.33Z" style="fill: #fff; stroke-width: 0px;"/>
      </g>
      <path d="M266.57,73.67h-57.67c-4.42,0-8-3.58-8-8V8c0-4.42,3.58-8,8-8h57.67c4.42,0,8,3.58,8,8v57.67c0,4.42-3.58,8-8,8ZM216.9,57.67h41.67V16h-41.67v41.67Z" style="fill: #00c6c2; stroke-width: 0px;"/>
      <g>
        <path d="M266.57,205.96h-57.67c-4.42,0-8-3.58-8-8v-57.67c0-4.42,3.58-8,8-8h57.67c4.42,0,8,3.58,8,8v57.67c0,4.42-3.58,8-8,8ZM216.9,189.96h41.67v-41.67h-41.67v41.67Z" style="fill: #00c6c2; stroke-width: 0px;"/>
        <path d="M153.82,205.96h-57.67c-4.42,0-8-3.58-8-8v-57.67c0-4.42,3.58-8,8-8h57.67c4.42,0,8,3.58,8,8v57.67c0,4.42-3.58,8-8,8ZM104.15,189.96h41.67v-41.67h-41.67v41.67Z" style="fill: #00c6c2; stroke-width: 0px;"/>
        <path d="M379.31,205.96h-57.67c-4.42,0-8-3.58-8-8v-57.67c0-4.42,3.58-8,8-8h57.67c4.42,0,8,3.58,8,8v57.67c0,4.42-3.58,8-8,8ZM329.64,189.96h41.67v-41.67h-41.67v41.67Z" style="fill: #00c6c2; stroke-width: 0px;"/>
      </g>
    </g>
  </g>
</svg>