<?xml version="1.0" encoding="UTF-8"?>
<svg id="Layer_2" data-name="Layer 2" xmlns="http://www.w3.org/2000/svg" viewBox="0 0 528.65 414.89">
  <g id="Layer_1-2" data-name="Layer 1">
    <g>
      <path d="M504.33,319.27H24.32c-13.41,0-24.32-10.91-24.32-24.32V24.32C0,10.91,10.91,0,24.32,0h480.01c13.41,0,24.32,10.91,24.32,24.32v270.63c0,13.41-10.91,24.32-24.32,24.32ZM24.32,16c-4.59,0-8.32,3.73-8.32,8.32v270.63c0,4.59,3.73,8.32,8.32,8.32h480.01c4.59,0,8.32-3.73,8.32-8.32V24.32c0-4.59-3.73-8.32-8.32-8.32H24.32Z" style="fill: #fff; stroke-width: 0px;"/>
      <path d="M206.67,372.51c-4.42,0-8-3.58-8-8v-46.82c0-4.42,3.58-8,8-8s8,3.58,8,8v46.82c0,4.42-3.58,8-8,8Z" style="fill: #fff; stroke-width: 0px;"/>
      <path d="M321.98,372.51c-4.42,0-8-3.58-8-8v-46.82c0-4.42,3.58-8,8-8s8,3.58,8,8v46.82c0,4.42-3.58,8-8,8Z" style="fill: #fff; stroke-width: 0px;"/>
      <path d="M395.23,414.89H133.42v-50.98h261.82v50.98ZM149.42,398.89h229.82v-18.98h-229.82v18.98Z" style="fill: #fff; stroke-width: 0px;"/>
      <g>
        <path d="M375.67,127.5c-17.96,0-32.58-14.61-32.58-32.58s14.61-32.58,32.58-32.58,32.58,14.61,32.58,32.58-14.61,32.58-32.58,32.58ZM375.67,78.35c-9.14,0-16.58,7.44-16.58,16.58s7.44,16.58,16.58,16.58,16.58-7.44,16.58-16.58-7.44-16.58-16.58-16.58Z" style="fill: #00c6c2; stroke-width: 0px;"/>
        <path d="M375.67,256.92c-17.96,0-32.58-14.61-32.58-32.58s14.61-32.58,32.58-32.58,32.58,14.61,32.58,32.58-14.61,32.58-32.58,32.58ZM375.67,207.77c-9.14,0-16.58,7.44-16.58,16.58s7.44,16.58,16.58,16.58,16.58-7.44,16.58-16.58-7.44-16.58-16.58-16.58Z" style="fill: #00c6c2; stroke-width: 0px;"/>
        <path d="M152.98,127.5c-17.96,0-32.58-14.61-32.58-32.58s14.61-32.58,32.58-32.58,32.58,14.61,32.58,32.58-14.61,32.58-32.58,32.58ZM152.98,78.35c-9.14,0-16.58,7.44-16.58,16.58s7.44,16.58,16.58,16.58,16.58-7.44,16.58-16.58-7.44-16.58-16.58-16.58Z" style="fill: #00c6c2; stroke-width: 0px;"/>
        <path d="M152.98,256.92c-17.96,0-32.58-14.61-32.58-32.58s14.61-32.58,32.58-32.58,32.58,14.61,32.58,32.58-14.61,32.58-32.58,32.58ZM152.98,207.77c-9.14,0-16.58,7.44-16.58,16.58s7.44,16.58,16.58,16.58,16.58-7.44,16.58-16.58-7.44-16.58-16.58-16.58Z" style="fill: #00c6c2; stroke-width: 0px;"/>
        <path d="M317.91,221.21h-107.16c-4.42,0-8-3.58-8-8v-107.16c0-4.42,3.58-8,8-8h107.16c4.42,0,8,3.58,8,8v107.16c0,4.42-3.58,8-8,8ZM218.75,205.21h91.16v-91.16h-91.16v91.16Z" style="fill: #00c6c2; stroke-width: 0px;"/>
        <path d="M210.75,151.37h-65.76v-31.87c0-4.42,3.58-8,8-8s8,3.58,8,8v15.87h49.76c4.42,0,8,3.58,8,8s-3.58,8-8,8Z" style="fill: #00c6c2; stroke-width: 0px;"/>
        <path d="M152.98,207.77c-4.42,0-8-3.58-8-8v-31.87h65.76c4.42,0,8,3.58,8,8s-3.58,8-8,8h-49.76v15.87c0,4.42-3.58,8-8,8Z" style="fill: #00c6c2; stroke-width: 0px;"/>
        <path d="M375.67,167.63h-57.76c-4.42,0-8-3.58-8-8s3.58-8,8-8h57.76c4.42,0,8,3.58,8,8s-3.58,8-8,8Z" style="fill: #00c6c2; stroke-width: 0px;"/>
        <path d="M375.67,203.15c-4.42,0-8-3.58-8-8v-75.65c0-4.42,3.58-8,8-8s8,3.58,8,8v75.65c0,4.42-3.58,8-8,8Z" style="fill: #00c6c2; stroke-width: 0px;"/>
        <path d="M289.33,192.64h-50.02c-4.42,0-8-3.58-8-8v-50.02c0-4.42,3.58-8,8-8h50.02c4.42,0,8,3.58,8,8v50.02c0,4.42-3.58,8-8,8ZM247.32,176.64h34.02v-34.02h-34.02v34.02Z" style="fill: #00c6c2; stroke-width: 0px;"/>
      </g>
    </g>
  </g>
</svg>