<?xml version="1.0" encoding="UTF-8"?>
<svg id="Layer_2" data-name="Layer 2" xmlns="http://www.w3.org/2000/svg" viewBox="0 0 474.84 360.88">
  <g id="Layer_1-2" data-name="Layer 1">
    <g>
      <path d="M161.86,73.35c-4.42,0-8-3.58-8-8C153.86,29.31,183.17,0,219.2,0h36.43c36.03,0,65.35,29.31,65.35,65.35h-16c0-27.21-22.14-49.35-49.35-49.35h-36.43c-27.21,0-49.35,22.14-49.35,49.35,0,4.42-3.58,8-8,8Z" style="fill: #00c6c2; stroke-width: 0px;"/>
      <path d="M453.38,360.88H21.46C9.63,360.88,0,351.26,0,339.43V78.8C0,66.97,9.63,57.35,21.46,57.35h431.92c11.83,0,21.46,9.62,21.46,21.46v260.63c0,11.83-9.62,21.46-21.46,21.46ZM21.46,73.35c-3.01,0-5.46,2.45-5.46,5.46v260.63c0,3.01,2.45,5.46,5.46,5.46h431.92c3.01,0,5.46-2.45,5.46-5.46V78.8c0-3.01-2.45-5.46-5.46-5.46H21.46Z" style="fill: #fff; stroke-width: 0px;"/>
      <path d="M215.93,207.47h-94.57c-40.3,0-79.87-11.97-117.59-35.57-3.75-2.34-4.88-7.28-2.54-11.02,2.34-3.75,7.28-4.88,11.02-2.54,35.14,21.98,71.85,33.13,109.11,33.13h94.57c4.42,0,8,3.58,8,8s-3.58,8-8,8Z" style="fill: #fff; stroke-width: 0px;"/>
      <path d="M353.48,207.47h-93.32c-4.42,0-8-3.58-8-8s3.58-8,8-8h93.32c37.26,0,73.97-11.15,109.11-33.13,3.75-2.34,8.68-1.21,11.02,2.54,2.34,3.75,1.21,8.68-2.54,11.02-37.73,23.6-77.29,35.57-117.59,35.57Z" style="fill: #fff; stroke-width: 0px;"/>
      <path d="M264.82,238.9h-54.79v-78.84h54.79v78.84ZM226.02,222.9h22.79v-46.84h-22.79v46.84Z" style="fill: #00c6c2; stroke-width: 0px;"/>
    </g>
  </g>
</svg>