<?xml version="1.0" encoding="UTF-8"?>
<svg id="Layer_2" data-name="Layer 2" xmlns="http://www.w3.org/2000/svg" viewBox="0 0 575 301.12">
  <g id="Layer_1-2" data-name="Layer 1">
    <g>
      <path d="M575,232.24H202.48c-4.42,0-8-3.58-8-8s3.58-8,8-8h356.51V16H126.81v91.35c0,4.42-3.58,8-8,8s-8-3.58-8-8V0h464.19v232.24Z" style="fill: #fff; stroke-width: 0px;"/>
      <path d="M567,82.24c-40.93,0-74.24-33.3-74.24-74.24C492.76,3.58,496.34,0,500.76,0s8,3.58,8,8c0,32.11,26.12,58.24,58.24,58.24,4.42,0,8,3.58,8,8s-3.58,8-8,8Z" style="fill: #fff; stroke-width: 0px;"/>
      <path d="M500.76,232.24c-4.42,0-8-3.58-8-8,0-19.83,7.72-38.47,21.74-52.49,14.02-14.02,32.66-21.74,52.49-21.74h0c4.42,0,8,3.58,8,8s-3.58,8-8,8c0,0,0,0,0,0-15.56,0-30.18,6.06-41.18,17.06-11,11-17.06,25.62-17.06,41.18,0,4.42-3.58,8-8,8Z" style="fill: #fff; stroke-width: 0px;"/>
      <path d="M118.81,82.23c-4.42,0-8-3.58-8-8s3.58-8,8-8c32.11,0,58.24-26.12,58.24-58.23,0-4.42,3.58-8,8-8s8,3.58,8,8c0,40.93-33.3,74.23-74.24,74.23Z" style="fill: #fff; stroke-width: 0px;"/>
      <path d="M336.75,232.24c-64.03,0-116.12-52.09-116.12-116.12S272.72,0,336.75,0s116.12,52.09,116.12,116.12-52.09,116.12-116.12,116.12ZM336.75,16c-55.21,0-100.12,44.91-100.12,100.12s44.91,100.12,100.12,100.12,100.12-44.91,100.12-100.12-44.91-100.12-100.12-100.12Z" style="fill: #fff; stroke-width: 0px;"/>
      <path d="M294.49,130.97h-9.91v-11.14h8.51c-.16-2.17-.16-4.33-.16-6.66v-2.01h-8.36v-11.14h9.13c3.71-25.38,18.88-40.71,46.28-40.71s40.09,14.24,44.27,32.66l-23.53,6.04c-2.32-10.53-7.74-15.94-18.57-15.94s-16.25,5.88-17.8,17.96h29.41v11.14h-29.87v8.67h21.83v11.14h-20.59c2.32,8.98,7.74,12.54,17.18,12.54,11.3,0,17.03-5.42,18.57-19.19l23.99,4.03c-3.1,24.61-18.88,38.08-45.35,38.08s-40.55-11.92-45.04-35.45Z" style="fill: #fff; stroke-width: 0px;"/>
      <g>
        <path d="M105.24,183.25c-52.3,0-105.24-14.09-105.24-41.01s52.94-41.01,105.24-41.01,105.24,14.08,105.24,41.01-52.94,41.01-105.24,41.01ZM105.24,117.24c-57.74,0-89.24,16.52-89.24,25.01s31.5,25.01,89.24,25.01,89.24-16.52,89.24-25.01-31.5-25.01-89.24-25.01Z" style="fill: #00c6c2; stroke-width: 0px;"/>
        <path d="M105.24,261.83c-52.3,0-105.24-14.08-105.24-41.01v-39.29h16c0,8.49,31.5,25.01,89.24,25.01s89.24-16.52,89.24-25.01h16v39.29c0,26.92-52.94,41.01-105.24,41.01ZM16,204.34v16.49c0,8.49,31.5,25.01,89.24,25.01s89.24-16.52,89.24-25.01v-16.49c-19.63,12.01-54.58,18.2-89.24,18.2s-69.62-6.19-89.24-18.2Z" style="fill: #00c6c2; stroke-width: 0px;"/>
        <path d="M105.24,301.12c-52.3,0-105.24-14.08-105.24-41.01v-39.29h16c0,8.49,31.5,25.01,89.24,25.01s89.24-16.52,89.24-25.01h16v39.29c0,26.92-52.94,41.01-105.24,41.01ZM16,243.63v16.49c0,8.49,31.5,25.01,89.24,25.01s89.24-16.52,89.24-25.01v-16.49c-19.63,12.01-54.58,18.2-89.24,18.2s-69.62-6.19-89.24-18.2Z" style="fill: #00c6c2; stroke-width: 0px;"/>
        <path d="M105.24,222.54c-52.3,0-105.24-14.08-105.24-41.01v-39.29h16c0,8.49,31.5,25.01,89.24,25.01s89.24-16.52,89.24-25.01h16v39.29c0,26.92-52.94,41.01-105.24,41.01ZM16,165.05v16.49c0,8.49,31.5,25.01,89.24,25.01s89.24-16.52,89.24-25.01v-16.49c-19.63,12.01-54.58,18.2-89.24,18.2s-69.62-6.19-89.24-18.2Z" style="fill: #00c6c2; stroke-width: 0px;"/>
      </g>
    </g>
  </g>
</svg>