<?xml version="1.0" encoding="UTF-8"?>
<svg id="Layer_2" data-name="Layer 2" xmlns="http://www.w3.org/2000/svg" viewBox="0 0 506.85 328.39">
  <g id="Layer_1-2" data-name="Layer 1">
    <g>
      <g>
        <path d="M253.42,328.39c-90.54,0-164.2-73.66-164.2-164.2S162.88,0,253.42,0s164.2,73.66,164.2,164.2-73.66,164.2-164.2,164.2ZM253.42,16c-81.72,0-148.2,66.48-148.2,148.2s66.48,148.2,148.2,148.2,148.2-66.48,148.2-148.2S335.14,16,253.42,16Z" style="fill: #fff; stroke-width: 0px;"/>
        <path d="M253.42,293.42c-71.25,0-129.22-57.97-129.22-129.22S182.17,34.98,253.42,34.98s129.22,57.97,129.22,129.22-57.97,129.22-129.22,129.22ZM253.42,50.98c-62.43,0-113.22,50.79-113.22,113.22s50.79,113.22,113.22,113.22,113.22-50.79,113.22-113.22-50.79-113.22-113.22-113.22Z" style="fill: #fff; stroke-width: 0px;"/>
        <path d="M212.44,176.49h-10.09v-11.35h8.67c-.16-2.21-.16-4.41-.16-6.78v-2.05h-8.51v-11.35h9.3c3.78-25.85,19.23-41.46,47.13-41.46s40.83,14.5,45.08,33.26l-23.96,6.15c-2.36-10.72-7.88-16.24-18.92-16.24s-16.55,5.99-18.13,18.29h29.95v11.35h-30.42v8.83h22.23v11.35h-20.97c2.36,9.14,7.88,12.77,17.5,12.77,11.51,0,17.34-5.52,18.92-19.55l24.43,4.1c-3.15,25.06-19.23,38.78-46.19,38.78s-41.3-12.14-45.87-36.1Z" style="fill: #fff; stroke-width: 0px;"/>
      </g>
      <g>
        <path d="M38.58,320.65c-4.42,0-8-3.58-8-8V15.75c0-4.42,3.58-8,8-8s8,3.58,8,8v296.9c0,4.42-3.58,8-8,8Z" style="fill: #00c6c2; stroke-width: 0px;"/>
        <path d="M69.15,54.32c-2.05,0-4.09-.78-5.66-2.34l-24.92-24.92-24.92,24.92c-3.12,3.12-8.19,3.12-11.31,0-3.12-3.12-3.12-8.19,0-11.31L38.58,4.43l36.23,36.23c3.12,3.12,3.12,8.19,0,11.31-1.56,1.56-3.61,2.34-5.66,2.34Z" style="fill: #00c6c2; stroke-width: 0px;"/>
      </g>
      <g>
        <path d="M468.27,320.65c-4.42,0-8-3.58-8-8V15.75c0-4.42,3.58-8,8-8s8,3.58,8,8v296.9c0,4.42-3.58,8-8,8Z" style="fill: #00c6c2; stroke-width: 0px;"/>
        <path d="M468.27,323.96l-36.23-36.23c-3.12-3.12-3.12-8.19,0-11.31,3.12-3.12,8.19-3.12,11.31,0l24.92,24.92,24.92-24.92c3.12-3.12,8.19-3.12,11.31,0,3.12,3.12,3.12,8.19,0,11.31l-36.23,36.23Z" style="fill: #00c6c2; stroke-width: 0px;"/>
      </g>
    </g>
  </g>
</svg>