<?xml version="1.0" encoding="UTF-8"?>
<svg id="Layer_2" data-name="Layer 2" xmlns="http://www.w3.org/2000/svg" viewBox="0 0 534.77 391.17">
  <g id="Layer_1-2" data-name="Layer 1">
    <g>
      <path d="M526.77,391.17c-4.42,0-8-3.58-8-8,0-51.15-41.61-92.76-92.76-92.76s-92.76,41.61-92.76,92.76c0,4.42-3.58,8-8,8s-8-3.58-8-8c0-59.97,48.79-108.76,108.76-108.76s108.76,48.79,108.76,108.76c0,4.42-3.58,8-8,8Z" style="fill: #fff; stroke-width: 0px;"/>
      <path d="M426.02,257.89c-32.51,0-58.96-26.45-58.96-58.96s26.45-58.96,58.96-58.96,58.96,26.45,58.96,58.96-26.45,58.96-58.96,58.96ZM426.02,155.97c-23.69,0-42.96,19.27-42.96,42.96s19.27,42.96,42.96,42.96,42.96-19.27,42.96-42.96-19.27-42.96-42.96-42.96Z" style="fill: #fff; stroke-width: 0px;"/>
      <path d="M209.51,391.17c-4.42,0-8-3.58-8-8,0-51.15-41.61-92.76-92.76-92.76s-92.76,41.61-92.76,92.76c0,4.42-3.58,8-8,8s-8-3.58-8-8c0-59.97,48.79-108.76,108.76-108.76s108.76,48.79,108.76,108.76c0,4.42-3.58,8-8,8Z" style="fill: #fff; stroke-width: 0px;"/>
      <path d="M108.76,257.89c-32.51,0-58.96-26.45-58.96-58.96s26.45-58.96,58.96-58.96,58.96,26.45,58.96,58.96-26.45,58.96-58.96,58.96ZM108.76,155.97c-23.69,0-42.96,19.27-42.96,42.96s19.27,42.96,42.96,42.96,42.96-19.27,42.96-42.96-19.27-42.96-42.96-42.96Z" style="fill: #fff; stroke-width: 0px;"/>
      <circle cx="267.39" cy="17.09" r="17.09" transform="translate(.96 45.48) rotate(-9.74)" style="fill: #00c6c2; stroke-width: 0px;"/>
      <circle cx="404.76" cy="96.41" r="17.09" style="fill: #00c6c2; stroke-width: 0px;"/>
      <circle cx="188.07" cy="38.34" r="17.09" transform="translate(18.94 129.09) rotate(-39.74)" style="fill: #00c6c2; stroke-width: 0px;"/>
      <circle cx="346.7" cy="38.34" r="17.09" style="fill: #00c6c2; stroke-width: 0px;"/>
      <circle cx="130.01" cy="96.41" r="17.09" transform="translate(-5.45 184.98) rotate(-69.74)" style="fill: #00c6c2; stroke-width: 0px;"/>
    </g>
  </g>
</svg>