<?xml version="1.0" encoding="UTF-8"?>
<svg id="Layer_2" data-name="Layer 2" xmlns="http://www.w3.org/2000/svg" viewBox="0 0 329.16 471.93">
  <g id="Layer_1-2" data-name="Layer 1">
    <g>
      <path d="M160.68,208.92c-3.19,0-6.2-1.92-7.44-5.07-1.62-4.11.4-8.76,4.51-10.38,24.49-9.66,40.31-32.91,40.31-59.24,0-35.1-28.56-63.66-63.66-63.66s-63.66,28.56-63.66,63.66c0,25.93,15.5,49.05,39.48,58.91,4.09,1.68,6.04,6.35,4.36,10.44-1.68,4.09-6.35,6.04-10.44,4.36-30.01-12.33-49.4-41.26-49.4-73.71,0-43.92,35.73-79.66,79.66-79.66s79.66,35.73,79.66,79.66c0,32.94-19.8,62.04-50.44,74.12-.96.38-1.96.56-2.93.56Z" style="fill: #00c6c2; stroke-width: 0px;"/>
      <path d="M240.04,89.31c-13.45,0-24.39-10.94-24.39-24.39s10.94-24.39,24.39-24.39,24.39,10.94,24.39,24.39-10.94,24.39-24.39,24.39ZM240.04,56.54c-4.62,0-8.39,3.76-8.39,8.39s3.76,8.39,8.39,8.39,8.39-3.76,8.39-8.39-3.76-8.39-8.39-8.39Z" style="fill: #00c6c2; stroke-width: 0px;"/>
      <path d="M239.43,212.84c-1.53,0-3.08-.44-4.45-1.36-3.67-2.46-4.64-7.43-2.18-11.1,23.39-34.82,26.52-79.93,8.16-117.72-1.93-3.97-.27-8.76,3.7-10.69,3.98-1.93,8.76-.27,10.69,3.7,20.84,42.9,17.29,94.1-9.27,133.63-1.54,2.3-4.07,3.54-6.65,3.54Z" style="fill: #00c6c2; stroke-width: 0px;"/>
      <path d="M107.18,265.92c-.57,0-1.14-.06-1.72-.19-16.11-3.53-31.24-9.92-44.98-18.97-3.69-2.43-4.71-7.39-2.28-11.08,2.43-3.69,7.39-4.71,11.08-2.28,12.09,7.97,25.41,13.59,39.6,16.7,4.32.95,7.05,5.21,6.1,9.53-.82,3.74-4.13,6.29-7.81,6.29Z" style="fill: #00c6c2; stroke-width: 0px;"/>
      <path d="M27.83,226.89c-13.45,0-24.39-10.94-24.39-24.39s10.94-24.39,24.39-24.39,24.39,10.94,24.39,24.39-10.94,24.39-24.39,24.39ZM27.83,194.12c-4.62,0-8.39,3.76-8.39,8.39s3.76,8.39,8.39,8.39,8.39-3.76,8.39-8.39-3.76-8.39-8.39-8.39Z" style="fill: #00c6c2; stroke-width: 0px;"/>
      <path d="M206.67,471.93c-37.54,0-72.47-16.85-95.85-46.22l-83.9-105.44c-11.93-14.99-9.44-36.9,5.55-48.83,14.99-11.93,36.9-9.44,48.83,5.55l17.88,22.47v-162.36c0-19.16,15.59-34.75,34.75-34.75s34.75,15.59,34.75,34.75v54.88c5.41-3.48,11.85-5.5,18.75-5.5,13.68,0,25.53,7.94,31.2,19.46,6.04-5.06,13.82-8.12,22.3-8.12,13.68,0,25.53,7.94,31.2,19.46,6.04-5.06,13.82-8.12,22.3-8.12,19.16,0,34.75,15.59,34.75,34.75v105.52c0,67.54-54.95,122.49-122.49,122.49ZM54.09,279.9c-4.09,0-8.21,1.33-11.66,4.07-8.09,6.44-9.43,18.26-3,26.34l83.9,105.44c20.32,25.54,50.69,40.18,83.33,40.18,58.72,0,106.49-47.77,106.49-106.49v-105.52c0-10.34-8.41-18.75-18.75-18.75s-18.75,8.41-18.75,18.75c0,4.42-3.58,8-8,8s-8-3.58-8-8v-11.34c0-10.34-8.41-18.75-18.75-18.75s-18.75,8.41-18.75,18.75c0,4.42-3.58,8-8,8s-8-3.58-8-8v-11.34c0-10.34-8.41-18.75-18.75-18.75s-18.75,8.41-18.75,18.75c0,4.42-3.58,8-8,8s-8-3.58-8-8v-84.12c0-10.34-8.41-18.75-18.75-18.75s-18.75,8.41-18.75,18.75v185.26c0,3.4-2.15,6.43-5.36,7.55-3.21,1.12-6.78.09-8.9-2.57l-32.14-40.39c-3.7-4.65-9.17-7.07-14.69-7.07Z" style="fill: #fff; stroke-width: 0px;"/>
      <path d="M19.92,196.16c-3.01,0-5.89-1.7-7.25-4.6C-11.31,140.45-.6,79.29,39.33,39.36,61.13,17.56,89.99,3.83,120.6.7c30.17-3.09,60.78,4.16,86.18,20.43,3.72,2.38,4.81,7.33,2.42,11.05-2.38,3.72-7.33,4.81-11.05,2.42-22.37-14.32-49.34-20.71-75.92-17.98-26.96,2.76-52.39,14.86-71.59,34.06C15.47,85.85,6.03,139.74,27.15,184.76c1.88,4,.16,8.76-3.84,10.64-1.1.52-2.26.76-3.39.76Z" style="fill: #00c6c2; stroke-width: 0px;"/>
    </g>
  </g>
</svg>