<?xml version="1.0" encoding="UTF-8"?>
<svg id="Layer_2" data-name="Layer 2" xmlns="http://www.w3.org/2000/svg" viewBox="0 0 590.05 427.46">
  <g id="Layer_1-2" data-name="Layer 1">
    <g>
      <g>
        <path d="M381.24,325.38c-4.42,0-8-3.58-8-8,0-43.12-35.08-78.21-78.21-78.21s-78.21,35.08-78.21,78.21c0,4.42-3.58,8-8,8s-8-3.58-8-8c0-51.95,42.26-94.21,94.21-94.21s94.21,42.26,94.21,94.21c0,4.42-3.58,8-8,8Z" style="fill: #fff; stroke-width: 0px;"/>
        <path d="M295.03,205.28c-28.45,0-51.6-23.15-51.6-51.6s23.15-51.6,51.6-51.6,51.6,23.15,51.6,51.6-23.15,51.6-51.6,51.6ZM295.03,118.08c-19.63,0-35.6,15.97-35.6,35.6s15.97,35.6,35.6,35.6,35.6-15.97,35.6-35.6-15.97-35.6-35.6-35.6Z" style="fill: #fff; stroke-width: 0px;"/>
      </g>
      <g>
        <g>
          <path d="M582.05,291.68c-4.42,0-8-3.58-8-8,0-27.67-22.51-50.18-50.18-50.18s-50.18,22.51-50.18,50.18c0,4.42-3.58,8-8,8s-8-3.58-8-8c0-36.49,29.69-66.18,66.18-66.18s66.18,29.69,66.18,66.18c0,4.42-3.58,8-8,8Z" style="fill: #fff; stroke-width: 0px;"/>
          <path d="M523.88,210.63c-20.63,0-37.42-16.79-37.42-37.42s16.79-37.42,37.42-37.42,37.42,16.79,37.42,37.42-16.79,37.42-37.42,37.42ZM523.88,151.79c-11.81,0-21.42,9.61-21.42,21.42s9.61,21.42,21.42,21.42,21.42-9.61,21.42-21.42-9.61-21.42-21.42-21.42Z" style="fill: #fff; stroke-width: 0px;"/>
        </g>
        <g>
          <path d="M124.35,291.68c-4.42,0-8-3.58-8-8,0-27.67-22.51-50.18-50.18-50.18s-50.18,22.51-50.18,50.18c0,4.42-3.58,8-8,8s-8-3.58-8-8c0-36.49,29.69-66.18,66.18-66.18s66.18,29.69,66.18,66.18c0,4.42-3.58,8-8,8Z" style="fill: #fff; stroke-width: 0px;"/>
          <path d="M66.18,210.63c-20.63,0-37.42-16.79-37.42-37.42s16.79-37.42,37.42-37.42,37.42,16.79,37.42,37.42-16.79,37.42-37.42,37.42ZM66.18,151.79c-11.81,0-21.42,9.61-21.42,21.42s9.61,21.42,21.42,21.42,21.42-9.61,21.42-21.42-9.61-21.42-21.42-21.42Z" style="fill: #fff; stroke-width: 0px;"/>
        </g>
      </g>
      <g>
        <path d="M295.03,427.46c-78.36,0-150.33-42.79-187.83-111.67-2.11-3.88-.68-8.74,3.2-10.85,3.88-2.11,8.74-.68,10.85,3.2,34.7,63.73,101.29,103.32,173.78,103.32,26.7,0,52.59-5.23,76.96-15.54,41.07-17.37,75.45-48.55,96.82-87.79,2.11-3.88,6.97-5.31,10.85-3.2,3.88,2.11,5.31,6.97,3.2,10.85-23.09,42.41-60.25,76.1-104.64,94.87-26.36,11.15-54.35,16.8-83.2,16.8Z" style="fill: #00c6c2; stroke-width: 0px;"/>
        <path d="M476.62,124.98c-2.86,0-5.62-1.54-7.06-4.23-34.5-64.61-101.38-104.74-174.53-104.74-36.02,0-71.27,9.78-101.95,28.27-30.63,18.47-55.74,44.92-72.59,76.47-2.08,3.9-6.93,5.37-10.83,3.29-3.9-2.08-5.37-6.93-3.29-10.83,18.21-34.1,45.33-62.68,78.44-82.64C217.99,10.57,256.1,0,295.03,0c79.08,0,151.36,43.38,188.65,113.21,2.08,3.9.61,8.74-3.29,10.83-1.2.64-2.49.95-3.76.95Z" style="fill: #00c6c2; stroke-width: 0px;"/>
      </g>
      <g>
        <path d="M295.03,366.89c-24.48,0-48.85-5.93-70.47-17.16-3.92-2.04-5.45-6.87-3.41-10.79,2.04-3.92,6.86-5.45,10.79-3.41,19.63,10.19,40.86,15.36,63.1,15.36s43.47-5.17,63.1-15.35c3.92-2.03,8.75-.51,10.79,3.41,2.04,3.92.51,8.75-3.41,10.79-21.62,11.22-45.98,17.15-70.47,17.15Z" style="fill: #00c6c2; stroke-width: 0px;"/>
        <path d="M183.02,314.07c-2.31,0-4.59-.99-6.17-2.91-22.55-27.33-34.98-61.93-34.98-97.42,0-15.53,2.32-30.85,6.89-45.54,8.8-28.3,25.57-53.32,48.5-72.35,27.39-22.74,62.11-35.26,97.77-35.26,84.45,0,153.16,68.71,153.16,153.16,0,34.64-11.89,68.59-33.49,95.59-2.76,3.45-7.79,4.01-11.25,1.25-3.45-2.76-4.01-7.79-1.25-11.25,19.62-24.53,29.98-54.12,29.98-85.6,0-75.63-61.53-137.16-137.16-137.16-31.93,0-63.03,11.21-87.55,31.57-20.54,17.05-35.56,39.46-43.44,64.79-4.09,13.15-6.17,26.88-6.17,40.79,0,31.79,11.12,62.77,31.32,87.24,2.81,3.41,2.33,8.45-1.08,11.26-1.49,1.23-3.29,1.83-5.09,1.83Z" style="fill: #00c6c2; stroke-width: 0px;"/>
      </g>
    </g>
  </g>
</svg>