<?xml version="1.0" encoding="UTF-8"?>
<svg id="Layer_2" data-name="Layer 2" xmlns="http://www.w3.org/2000/svg" viewBox="0 0 528.65 414.89">
  <g id="Layer_1-2" data-name="Layer 1">
    <g>
      <path d="M504.33,319.27H24.32c-13.41,0-24.32-10.91-24.32-24.32V24.32C0,10.91,10.91,0,24.32,0h480.01c13.41,0,24.32,10.91,24.32,24.32v270.63c0,13.41-10.91,24.32-24.32,24.32ZM24.32,16c-4.59,0-8.32,3.73-8.32,8.32v270.63c0,4.59,3.73,8.32,8.32,8.32h480.01c4.59,0,8.32-3.73,8.32-8.32V24.32c0-4.59-3.73-8.32-8.32-8.32H24.32Z" style="fill: #fff; stroke-width: 0px;"/>
      <path d="M206.67,372.51c-4.42,0-8-3.58-8-8v-46.82c0-4.42,3.58-8,8-8s8,3.58,8,8v46.82c0,4.42-3.58,8-8,8Z" style="fill: #fff; stroke-width: 0px;"/>
      <path d="M321.98,372.51c-4.42,0-8-3.58-8-8v-46.82c0-4.42,3.58-8,8-8s8,3.58,8,8v46.82c0,4.42-3.58,8-8,8Z" style="fill: #fff; stroke-width: 0px;"/>
      <path d="M395.23,414.89H133.42v-50.98h261.82v50.98ZM149.42,398.89h229.82v-18.98h-229.82v18.98Z" style="fill: #fff; stroke-width: 0px;"/>
      <path d="M341.6,261.03c-4.42,0-8-3.58-8-8,0-38.2-31.08-69.28-69.28-69.28s-69.28,31.08-69.28,69.28c0,4.42-3.58,8-8,8s-8-3.58-8-8c0-47.02,38.25-85.28,85.28-85.28s85.28,38.26,85.28,85.28c0,4.42-3.58,8-8,8Z" style="fill: #00c6c2; stroke-width: 0px;"/>
      <path d="M264.33,156.82c-25.96,0-47.08-21.12-47.08-47.08s21.12-47.08,47.08-47.08,47.08,21.12,47.08,47.08-21.12,47.08-47.08,47.08ZM264.33,78.66c-17.14,0-31.08,13.94-31.08,31.08s13.94,31.08,31.08,31.08,31.08-13.94,31.08-31.08-13.94-31.08-31.08-31.08Z" style="fill: #00c6c2; stroke-width: 0px;"/>
    </g>
  </g>
</svg>