<?xml version="1.0" encoding="UTF-8"?>
<svg id="Layer_2" data-name="Layer 2" xmlns="http://www.w3.org/2000/svg" viewBox="0 0 346.04 390.91">
  <g id="Layer_1-2" data-name="Layer 1">
    <g>
      <path d="M338.04,390.91c-4.42,0-8-3.58-8-8,0-86.58-70.44-157.02-157.02-157.02S16,296.33,16,382.91c0,4.42-3.58,8-8,8s-8-3.58-8-8c0-95.4,77.62-173.02,173.02-173.02s173.02,77.62,173.02,173.02c0,4.42-3.58,8-8,8Z" style="fill: #fff; stroke-width: 0px;"/>
      <path d="M173.02,182.91c-50.43,0-91.46-41.03-91.46-91.46S122.59,0,173.02,0s91.46,41.03,91.46,91.46-41.03,91.46-91.46,91.46ZM173.02,16c-41.61,0-75.46,33.85-75.46,75.46s33.85,75.46,75.46,75.46,75.46-33.85,75.46-75.46S214.63,16,173.02,16Z" style="fill: #00c6c2; stroke-width: 0px;"/>
    </g>
  </g>
</svg>