<?xml version="1.0" encoding="UTF-8"?>
<svg id="Layer_2" data-name="Layer 2" xmlns="http://www.w3.org/2000/svg" viewBox="0 0 557.47 419.15">
  <g id="Layer_1-2" data-name="Layer 1">
    <g>
      <path d="M452.85,419.15c-3.68,0-6.99-2.55-7.81-6.29-6.45-29.45-33.04-50.82-63.24-50.82-14.21,0-27.69,4.51-38.99,13.06-3.53,2.66-8.54,1.97-11.21-1.56-2.66-3.52-1.97-8.54,1.56-11.21,14.1-10.66,30.92-16.29,48.64-16.29s36.61,6.43,50.95,18.1c14.13,11.5,24.04,27.59,27.92,45.29.95,4.32-1.79,8.58-6.1,9.53-.58.13-1.15.19-1.72.19Z" style="fill: #fff; stroke-width: 0px;"/>
      <path d="M104.62,419.15c-.57,0-1.14-.06-1.72-.19-4.32-.94-7.05-5.21-6.1-9.53,3.88-17.7,13.79-33.79,27.92-45.29,14.33-11.67,32.43-18.1,50.95-18.1,17.27,0,33.74,5.37,47.63,15.54,3.57,2.61,4.34,7.62,1.73,11.18-2.61,3.56-7.61,4.34-11.18,1.73-11.13-8.15-24.34-12.45-38.18-12.45-30.19,0-56.79,21.37-63.24,50.82-.82,3.74-4.13,6.29-7.81,6.29Z" style="fill: #fff; stroke-width: 0px;"/>
      <path d="M381.81,337.25c-24.7,0-44.79-20.09-44.79-44.79s20.09-44.79,44.79-44.79,44.79,20.09,44.79,44.79-20.09,44.79-44.79,44.79ZM381.81,263.68c-15.87,0-28.79,12.91-28.79,28.79s12.91,28.79,28.79,28.79,28.79-12.91,28.79-28.79-12.91-28.79-28.79-28.79Z" style="fill: #fff; stroke-width: 0px;"/>
      <path d="M175.66,337.25c-24.7,0-44.79-20.09-44.79-44.79s20.09-44.79,44.79-44.79,44.79,20.09,44.79,44.79-20.09,44.79-44.79,44.79ZM175.66,263.68c-15.87,0-28.79,12.91-28.79,28.79s12.91,28.79,28.79,28.79,28.79-12.91,28.79-28.79-12.91-28.79-28.79-28.79Z" style="fill: #fff; stroke-width: 0px;"/>
      <path d="M549.46,419.15c-3.68,0-6.99-2.55-7.81-6.29-6.45-29.45-33.04-50.82-63.24-50.82-14.21,0-27.69,4.51-38.99,13.06-3.52,2.66-8.54,1.97-11.21-1.56s-1.97-8.54,1.56-11.21c14.1-10.66,30.92-16.29,48.64-16.29s36.61,6.43,50.95,18.1c14.13,11.5,24.04,27.59,27.92,45.29.95,4.32-1.79,8.58-6.1,9.53-.58.13-1.15.19-1.72.19Z" style="fill: #fff; stroke-width: 0px;"/>
      <path d="M478.42,337.25c-24.7,0-44.79-20.09-44.79-44.79s20.09-44.79,44.79-44.79,44.79,20.09,44.79,44.79-20.09,44.79-44.79,44.79ZM478.42,263.68c-15.87,0-28.79,12.91-28.79,28.79s12.91,28.79,28.79,28.79,28.79-12.91,28.79-28.79-12.91-28.79-28.79-28.79Z" style="fill: #fff; stroke-width: 0px;"/>
      <path d="M8.01,419.15c-.57,0-1.14-.06-1.72-.19-4.32-.94-7.05-5.21-6.1-9.53,3.88-17.7,13.79-33.79,27.92-45.29,14.33-11.67,32.43-18.1,50.95-18.1,17.27,0,33.74,5.37,47.63,15.54,3.57,2.61,4.34,7.62,1.73,11.18-2.61,3.56-7.61,4.34-11.18,1.73-11.13-8.15-24.33-12.45-38.18-12.45-30.19,0-56.79,21.37-63.24,50.82-.82,3.74-4.13,6.29-7.81,6.29Z" style="fill: #fff; stroke-width: 0px;"/>
      <path d="M79.05,337.25c-24.7,0-44.79-20.09-44.79-44.79s20.09-44.79,44.79-44.79,44.79,20.09,44.79,44.79-20.09,44.79-44.79,44.79ZM79.05,263.68c-15.87,0-28.79,12.91-28.79,28.79s12.91,28.79,28.79,28.79,28.79-12.91,28.79-28.79-12.91-28.79-28.79-28.79Z" style="fill: #fff; stroke-width: 0px;"/>
      <path d="M351.47,419.15c-4.42,0-8-3.58-8-8,0-35.7-29.04-64.74-64.74-64.74s-64.74,29.04-64.74,64.74c0,4.42-3.58,8-8,8s-8-3.58-8-8c0-44.52,36.22-80.74,80.74-80.74s80.74,36.22,80.74,80.74c0,4.42-3.58,8-8,8Z" style="fill: #fff; stroke-width: 0px;"/>
      <path d="M278.74,321.62c-24.7,0-44.79-20.09-44.79-44.79s20.09-44.79,44.79-44.79,44.79,20.09,44.79,44.79-20.09,44.79-44.79,44.79ZM278.74,248.05c-15.87,0-28.79,12.91-28.79,28.79s12.91,28.79,28.79,28.79,28.79-12.91,28.79-28.79-12.91-28.79-28.79-28.79Z" style="fill: #fff; stroke-width: 0px;"/>
      <path d="M279.53,171.28c-4.42,0-8-3.58-8-8V8c0-4.42,3.58-8,8-8s8,3.58,8,8v155.28c0,4.42-3.58,8-8,8Z" style="fill: #00c6c2; stroke-width: 0px;"/>
      <path d="M338.02,195.5c-2.05,0-4.09-.78-5.66-2.34-3.12-3.12-3.12-8.19,0-11.31l109.8-109.8c3.12-3.12,8.19-3.12,11.31,0,3.12,3.12,3.12,8.19,0,11.31l-109.8,109.8c-1.56,1.56-3.61,2.34-5.66,2.34Z" style="fill: #00c6c2; stroke-width: 0px;"/>
      <path d="M221.04,195.5c-2.05,0-4.09-.78-5.66-2.34l-109.8-109.8c-3.12-3.12-3.12-8.19,0-11.31,3.12-3.12,8.19-3.12,11.31,0l109.8,109.8c3.12,3.12,3.12,8.19,0,11.31-1.56,1.56-3.61,2.34-5.66,2.34Z" style="fill: #00c6c2; stroke-width: 0px;"/>
      <path d="M247.21,177.86c-3.11,0-6.07-1.83-7.37-4.88L179.17,30.05c-1.73-4.07.17-8.76,4.24-10.49,4.07-1.72,8.76.17,10.49,4.24l60.67,142.93c1.73,4.07-.17,8.76-4.24,10.49-1.02.43-2.08.64-3.12.64Z" style="fill: #00c6c2; stroke-width: 0px;"/>
      <path d="M355.68,221.68c-3.11,0-6.07-1.83-7.37-4.88-1.73-4.07.17-8.76,4.24-10.49l142.93-60.67c4.07-1.72,8.76.17,10.49,4.24,1.73,4.07-.17,8.76-4.24,10.49l-142.93,60.67c-1.02.43-2.08.64-3.12.64Z" style="fill: #00c6c2; stroke-width: 0px;"/>
      <path d="M310.51,177.3c-1,0-2.01-.19-2.99-.58-4.1-1.65-6.08-6.32-4.42-10.41l58.17-143.97c1.66-4.1,6.31-6.08,10.42-4.42,4.1,1.65,6.08,6.32,4.42,10.41l-58.17,143.97c-1.26,3.11-4.26,5-7.42,5Z" style="fill: #00c6c2; stroke-width: 0px;"/>
      <path d="M202.83,223.01c-1,0-2.01-.19-2.99-.58l-143.97-58.17c-4.1-1.66-6.08-6.32-4.42-10.42,1.65-4.1,6.31-6.08,10.41-4.42l143.97,58.17c4.1,1.66,6.08,6.32,4.42,10.42-1.26,3.11-4.25,5-7.42,5Z" style="fill: #00c6c2; stroke-width: 0px;"/>
    </g>
  </g>
</svg>