<?xml version="1.0" encoding="UTF-8"?>
<svg id="Layer_2" data-name="Layer 2" xmlns="http://www.w3.org/2000/svg" viewBox="0 0 483.39 478.51">
  <g id="Layer_1-2" data-name="Layer 1">
    <g>
      <path d="M359.52,388.05c-3.52,0-6.75-2.34-7.71-5.9-1.16-4.26,1.36-8.66,5.62-9.82.12-.03,14.08-4.01,23.99-14.33,13.02-13.56,31.48-18.95,32.26-19.17,4.25-1.22,8.68,1.25,9.89,5.49,1.21,4.24-1.24,8.67-5.48,9.89-.27.08-15.21,4.54-25.13,14.87-13.05,13.6-30.59,18.48-31.33,18.68-.7.19-1.41.28-2.1.28Z" style="fill: #fff; stroke-width: 0px;"/>
      <path d="M430,366.42c-3.91,0-7.76-1.09-11.17-3.21-4.82-2.99-8.18-7.68-9.46-13.2l-27.5-117.93c-1.29-5.52-.35-11.21,2.64-16.03,2.99-4.82,7.68-8.18,13.2-9.46l32.12-7.49c11.4-2.66,22.83,4.45,25.49,15.85l27.51,117.93c2.66,11.4-4.45,22.83-15.85,25.49l-32.12,7.49c-1.61.38-3.24.56-4.86.56ZM465.17,350.58h0,0ZM434.66,214.54c-.39,0-.79.04-1.19.14l-32.12,7.49c-1.36.32-2.51,1.14-3.25,2.33-.74,1.19-.97,2.59-.65,3.95l27.5,117.93c.32,1.36,1.14,2.51,2.33,3.25,1.18.74,2.58.97,3.95.65l32.12-7.49c2.81-.65,4.56-3.47,3.9-6.27l-27.51-117.93c-.56-2.41-2.71-4.04-5.09-4.04Z" style="fill: #fff; stroke-width: 0px;"/>
      <path d="M51.59,365.9c-2.75,0-5.53-.54-8.22-1.67l-30.39-12.82c-10.78-4.55-15.86-17.02-11.31-27.8l47.06-111.58c2.2-5.22,6.31-9.28,11.56-11.41,5.25-2.13,11.02-2.1,16.24.1l30.39,12.82c10.78,4.55,15.86,17.02,11.31,27.8l-47.06,111.58c-3.42,8.1-11.3,12.98-19.59,12.98ZM19.19,336.67l30.39,12.82c2.66,1.12,5.72-.13,6.84-2.78l47.06-111.58c.54-1.29.55-2.71.03-4-.53-1.29-1.52-2.3-2.81-2.84l-30.39-12.82c-1.29-.54-2.71-.55-4-.03-1.29.53-2.3,1.52-2.85,2.81l-47.06,111.58c-1.12,2.65.13,5.72,2.78,6.84h0Z" style="fill: #fff; stroke-width: 0px;"/>
      <path d="M110.54,246.77c-4.33,0-7.89-3.46-7.99-7.81-.1-4.42,3.39-8.08,7.81-8.18.55-.01,43.43-1.17,74.17-12.88,39.23-14.95,63.12-9.7,76.24-2.67,3.89,2.09,5.36,6.93,3.27,10.83-2.08,3.9-6.93,5.36-10.83,3.27-10.19-5.46-29.4-9.28-62.99,3.52-33.39,12.72-77.63,13.89-79.5,13.93-.06,0-.13,0-.19,0Z" style="fill: #fff; stroke-width: 0px;"/>
      <path d="M312.57,440.17c-.37,0-.75,0-1.12-.02-7.08-.29-13.62-3.32-18.42-8.54l-39.78-43.21c-2.99-3.25-2.78-8.31.47-11.3,3.25-2.99,8.31-2.78,11.3.47l39.78,43.21c1.9,2.07,4.5,3.27,7.3,3.39,2.83.11,5.49-.87,7.56-2.77,2.1-1.94,3.31-4.58,3.39-7.43.08-2.86-.97-5.56-2.95-7.62l-38.82-40.15c-3.07-3.18-2.99-8.24.19-11.31,3.18-3.07,8.24-2.99,11.31.19l38.82,40.15c5.01,5.18,7.65,12,7.45,19.21s-3.25,13.86-8.55,18.74c-4.94,4.54-11.27,7.01-17.94,7.01Z" style="fill: #fff; stroke-width: 0px;"/>
      <path d="M278.95,458.91c-.38,0-.75,0-1.13-.02-7.14-.29-13.74-3.35-18.58-8.61l-33.59-36.48c-2.99-3.25-2.78-8.31.47-11.3,3.25-2.99,8.31-2.78,11.3.47l33.59,36.48c1.95,2.11,4.6,3.34,7.46,3.46,2.87.1,5.61-.89,7.72-2.83,4.36-4.01,4.64-10.83.63-15.19l-33.59-36.48c-2.99-3.25-2.78-8.31.47-11.3,3.25-2.99,8.31-2.78,11.3.47l33.59,36.48c4.84,5.26,7.34,12.08,7.05,19.22s-3.35,13.74-8.61,18.58c-4.98,4.58-11.36,7.07-18.09,7.07Z" style="fill: #fff; stroke-width: 0px;"/>
      <path d="M246.02,478.51c-.38,0-.75,0-1.13-.02-7.14-.29-13.74-3.35-18.58-8.61l-11.81-13.13c-2.95-3.29-2.69-8.34.6-11.3s8.34-2.69,11.3.6l11.75,13.06c1.88,2.04,4.53,3.27,7.4,3.39,2.88.1,5.61-.89,7.72-2.83,2.11-1.95,3.34-4.6,3.46-7.46s-.89-5.61-2.83-7.72l-28.24-30.68c-2.99-3.25-2.78-8.31.47-11.3,3.25-2.99,8.31-2.78,11.3.47l28.24,30.68c4.84,5.26,7.34,12.08,7.05,19.22-.29,7.14-3.35,13.74-8.61,18.58-4.98,4.58-11.36,7.07-18.09,7.07Z" style="fill: #fff; stroke-width: 0px;"/>
      <path d="M345.19,419.96c-.1,0-.2,0-.3,0-7.28-.08-14.08-2.99-19.16-8.2l-44.42-45.54c-3.08-3.16-3.02-8.23.14-11.31,3.16-3.09,8.23-3.02,11.31.14l44.42,45.54c2.09,2.14,4.89,3.34,7.88,3.37.04,0,.08,0,.12,0,2.95,0,5.72-1.13,7.83-3.2,4.25-4.17,4.49-10.94.53-15.39l-77.34-87.15c-2.93-3.3-2.63-8.36.67-11.29,3.31-2.93,8.36-2.63,11.29.67l77.34,87.15c9.62,10.84,9.05,27.28-1.29,37.43-5.12,5.03-11.87,7.78-19.03,7.78Z" style="fill: #fff; stroke-width: 0px;"/>
      <path d="M110.79,387.27c-2.34,0-4.66-1.02-6.24-2.99-9.55-11.88-34.31-24.04-43.05-27.72-4.07-1.72-5.98-6.41-4.26-10.48,1.72-4.07,6.41-5.98,10.48-4.27,1.43.6,35.25,14.98,49.3,32.44,2.77,3.44,2.22,8.48-1.22,11.25-1.48,1.19-3.25,1.77-5.01,1.77Z" style="fill: #fff; stroke-width: 0px;"/>
      <path d="M179.5,320.12c-6.99,0-13.89-1.88-20.46-5.68-5.6-3.23-9.34-8.79-10.24-15.24-.91-6.54,1.19-13,5.78-17.73,6.37-6.58,16.15-17.61,26.51-32.87,5.13-7.55,12.16-13.62,20.32-17.56,51.31-24.77,78.26-18.23,110.74-6.28,33.35,12.26,76.31,3.19,76.74,3.09,4.32-.94,8.58,1.81,9.51,6.12.94,4.32-1.81,8.58-6.12,9.51-1.94.42-47.98,10.13-85.65-3.71-45.79-16.84-67.67-9.09-98.27,5.68-5.63,2.72-10.49,6.92-14.04,12.15-11.01,16.2-21.44,27.98-28.26,35.01-1.13,1.17-1.65,2.76-1.42,4.38.13.9.6,2.56,2.39,3.59,10.22,5.9,20.68,4.54,31.98-4.16,11.77-9.05,21.42-15.99,30.27-20.42,19.81-9.92,44.02-5.16,58.88,11.58,2.93,3.3,2.63,8.36-.67,11.29s-8.36,2.63-11.29-.67c-10.06-11.33-26.4-14.58-39.75-7.9-7.71,3.86-16.64,10.31-27.68,18.8-9.51,7.32-19.48,11.01-29.27,11.01Z" style="fill: #fff; stroke-width: 0px;"/>
      <path d="M196.85,477.88c-6.18,0-12.06-2.24-16.69-6.4-4.99-4.47-7.94-10.61-8.3-17.29s1.89-13.11,6.36-18.1l13.45-15.02c9.22-10.3,25.1-11.17,35.4-1.95,10.3,9.22,11.17,25.1,1.95,35.4l-13.45,15.02c-4.47,4.99-10.61,7.94-17.29,8.31-.47.03-.94.04-1.41.04ZM210.34,428.73c-2.49,0-4.97,1.02-6.76,3.01l-13.45,15.02c-1.62,1.8-2.43,4.13-2.3,6.55.13,2.42,1.2,4.64,3,6.25h0c1.8,1.62,4.13,2.44,6.55,2.3,2.42-.13,4.64-1.2,6.25-3l13.45-15.02c3.33-3.72,3.02-9.47-.71-12.8-1.73-1.55-3.89-2.31-6.04-2.31Z" style="fill: #fff; stroke-width: 0px;"/>
      <path d="M117.07,425.39c-6.17,0-12.05-2.24-16.69-6.39h0c-4.99-4.47-7.94-10.61-8.31-17.29-.37-6.69,1.89-13.12,6.36-18.1l13.45-15.02c9.22-10.3,25.1-11.17,35.4-1.95,10.3,9.22,11.17,25.1,1.95,35.4l-13.45,15.02c-4.47,4.99-10.61,7.94-17.29,8.31-.47.03-.94.04-1.41.04ZM130.56,376.24c-2.49,0-4.97,1.02-6.76,3.01l-13.45,15.02c-1.62,1.8-2.43,4.13-2.3,6.55.13,2.42,1.2,4.64,3,6.26h0c1.8,1.62,4.13,2.43,6.55,2.3,2.42-.13,4.64-1.2,6.25-3l13.45-15.02c3.33-3.72,3.02-9.47-.71-12.8-1.73-1.55-3.89-2.31-6.04-2.31Z" style="fill: #fff; stroke-width: 0px;"/>
      <path d="M165.09,462.85c-5.85,0-11.41-2.12-15.8-6.05-4.72-4.23-7.51-10.04-7.86-16.37-.35-6.33,1.79-12.41,6.02-17.13l20.49-22.88c4.23-4.72,10.04-7.51,16.37-7.86,6.33-.34,12.41,1.79,17.13,6.02,4.72,4.23,7.51,10.04,7.86,16.37.35,6.33-1.79,12.41-6.02,17.14l-20.49,22.88c-4.23,4.72-10.04,7.51-16.37,7.86-.45.02-.89.04-1.33.04ZM185.62,408.52c-.14,0-.29,0-.43.01-2.06.11-3.95,1.02-5.33,2.56l-20.49,22.88c-1.38,1.54-2.07,3.52-1.96,5.58.11,2.06,1.02,3.96,2.56,5.33,1.54,1.38,3.54,2.09,5.58,1.96,2.06-.11,3.96-1.02,5.33-2.56l20.49-22.88c1.38-1.54,2.07-3.52,1.96-5.58s-1.02-3.95-2.56-5.33c-1.43-1.28-3.24-1.97-5.15-1.97Z" style="fill: #fff; stroke-width: 0px;"/>
      <path d="M138.78,445.73c-5.53,0-10.79-2.01-14.94-5.72h0c-4.46-4-7.1-9.49-7.43-15.48s1.69-11.74,5.69-16.2l28.9-32.27c8.25-9.21,22.46-9.99,31.67-1.75,9.21,8.25,10,22.46,1.75,31.67l-28.9,32.27c-4,4.46-9.49,7.1-15.48,7.43-.42.02-.84.04-1.26.04ZM167.71,384.6c-1.77,0-3.53.72-4.79,2.14l-28.9,32.27c-1.15,1.28-1.72,2.93-1.63,4.64.09,1.72.85,3.29,2.13,4.44h0c1.28,1.15,2.92,1.73,4.64,1.63,1.71-.09,3.29-.85,4.44-2.13l28.9-32.27c2.37-2.64,2.14-6.72-.5-9.08-1.22-1.1-2.76-1.64-4.29-1.64Z" style="fill: #fff; stroke-width: 0px;"/>
      <path d="M241.69,176.78l-84.67-84.67c-21.04-21.04-21.04-55.27,0-76.31,10.19-10.19,23.74-15.8,38.15-15.8s27.96,5.61,38.15,15.8l8.36,8.36,8.36-8.36c10.19-10.19,23.74-15.8,38.15-15.8s27.96,5.61,38.15,15.8h0c21.04,21.04,21.04,55.27,0,76.31l-84.67,84.67ZM195.18,16.02c-9.72,0-19.44,3.7-26.84,11.1-14.8,14.8-14.8,38.88,0,53.68l73.35,73.35,73.35-73.35c14.8-14.8,14.8-38.88,0-53.68-14.8-14.8-38.88-14.8-53.68,0l-19.68,19.67-19.68-19.67c-7.4-7.4-17.12-11.1-26.84-11.1Z" style="fill: #00c6c2; stroke-width: 0px;"/>
    </g>
  </g>
</svg>