<?xml version="1.0" encoding="UTF-8"?>
<svg id="Layer_2" data-name="Layer 2" xmlns="http://www.w3.org/2000/svg" viewBox="0 0 485.77 456.2">
  <g id="Layer_1-2" data-name="Layer 1">
    <g>
      <path d="M177.7,244.83c-4.42,0-8-3.58-8-8,0-42.38-34.48-76.85-76.85-76.85S16,194.46,16,236.83c0,4.42-3.58,8-8,8s-8-3.58-8-8c0-51.2,41.65-92.85,92.85-92.85s92.85,41.65,92.85,92.85c0,4.42-3.58,8-8,8Z" style="fill: #fff; stroke-width: 0px;"/>
      <path d="M92.85,126.62c-28.07,0-50.91-22.84-50.91-50.91s22.84-50.91,50.91-50.91,50.91,22.84,50.91,50.91-22.84,50.91-50.91,50.91ZM92.85,40.79c-19.25,0-34.91,15.66-34.91,34.91s15.66,34.91,34.91,34.91,34.91-15.66,34.91-34.91-15.66-34.91-34.91-34.91Z" style="fill: #fff; stroke-width: 0px;"/>
      <path d="M477.77,456.2c-4.42,0-8-3.58-8-8,0-42.38-34.48-76.85-76.85-76.85s-76.85,34.48-76.85,76.85c0,4.42-3.58,8-8,8s-8-3.58-8-8c0-51.2,41.65-92.85,92.85-92.85s92.85,41.65,92.85,92.85c0,4.42-3.58,8-8,8Z" style="fill: #fff; stroke-width: 0px;"/>
      <path d="M392.92,337.98c-28.07,0-50.91-22.84-50.91-50.91s22.84-50.91,50.91-50.91,50.91,22.84,50.91,50.91-22.84,50.91-50.91,50.91ZM392.92,252.16c-19.25,0-34.91,15.66-34.91,34.91s15.66,34.91,34.91,34.91,34.91-15.66,34.91-34.91-15.66-34.91-34.91-34.91Z" style="fill: #fff; stroke-width: 0px;"/>
      <path d="M242.89,456.2c-50.88,0-99.01-16.38-139.2-47.38-38.92-30.02-67.55-72.5-80.62-119.6-1.18-4.26,1.31-8.67,5.57-9.85,4.26-1.18,8.67,1.31,9.85,5.57,12.15,43.79,38.78,83.29,74.97,111.21,37.36,28.82,82.12,44.05,129.42,44.05,7.24,0,14.54-.37,21.7-1.09,4.38-.45,8.32,2.75,8.77,7.15.45,4.4-2.76,8.32-7.15,8.77-7.69.78-15.54,1.18-23.31,1.18Z" style="fill: #00c6c2; stroke-width: 0px;"/>
      <path d="M462.98,236.1c-4.42,0-8-3.58-8-8,0-116.95-95.15-212.1-212.1-212.1-25.7,0-50.82,4.54-74.64,13.5-4.14,1.55-8.75-.54-10.3-4.67-1.55-4.13.54-8.75,4.67-10.3C188.25,4.89,215.25,0,242.89,0c60.93,0,118.21,23.73,161.29,66.81s66.81,100.36,66.81,161.29c0,4.42-3.58,8-8,8Z" style="fill: #00c6c2; stroke-width: 0px;"/>
    </g>
  </g>
</svg>