<?xml version="1.0" encoding="UTF-8"?>
<svg id="Layer_2" data-name="Layer 2" xmlns="http://www.w3.org/2000/svg" viewBox="0 0 514.06 531.68">
  <g id="Layer_1-2" data-name="Layer 1">
    <g>
      <path d="M163.35,143.17c-.81,0-1.64-.13-2.46-.39-4.2-1.36-6.51-5.87-5.16-10.07l6.58-20.38-20.39-6.58c-4.21-1.36-6.51-5.86-5.16-10.07,1.36-4.21,5.86-6.51,10.07-5.16l35.62,11.49-11.49,35.61c-1.09,3.39-4.23,5.55-7.61,5.55Z" style="fill: #00c6c2; stroke-width: 0px;"/>
      <path d="M317.95,162.48c-4.42,0-8-3.58-8-8,0-29.18-23.74-52.92-52.92-52.92s-52.92,23.74-52.92,52.92c0,4.42-3.58,8-8,8s-8-3.58-8-8c0-38,30.92-68.92,68.92-68.92s68.92,30.92,68.92,68.92c0,4.42-3.58,8-8,8Z" style="fill: #fff; stroke-width: 0px;"/>
      <path d="M257.03,77.61c-21.4,0-38.81-17.41-38.81-38.81S235.63,0,257.03,0s38.81,17.41,38.81,38.81-17.41,38.81-38.81,38.81ZM257.03,16c-12.58,0-22.81,10.23-22.81,22.81s10.23,22.81,22.81,22.81,22.81-10.23,22.81-22.81-10.23-22.81-22.81-22.81Z" style="fill: #fff; stroke-width: 0px;"/>
      <path d="M129.83,475c-4.42,0-8-3.58-8-8,0-29.18-23.74-52.92-52.92-52.92s-52.92,23.74-52.92,52.92c0,4.42-3.58,8-8,8s-8-3.58-8-8c0-38,30.92-68.92,68.92-68.92s68.92,30.92,68.92,68.92c0,4.42-3.58,8-8,8Z" style="fill: #fff; stroke-width: 0px;"/>
      <path d="M68.92,390.13c-21.4,0-38.81-17.41-38.81-38.81s17.41-38.81,38.81-38.81,38.81,17.41,38.81,38.81-17.41,38.81-38.81,38.81ZM68.92,328.52c-12.58,0-22.81,10.23-22.81,22.81s10.23,22.81,22.81,22.81,22.81-10.23,22.81-22.81-10.23-22.81-22.81-22.81Z" style="fill: #fff; stroke-width: 0px;"/>
      <path d="M506.06,475c-4.42,0-8-3.58-8-8,0-29.18-23.74-52.92-52.92-52.92s-52.92,23.74-52.92,52.92c0,4.42-3.58,8-8,8s-8-3.58-8-8c0-38,30.92-68.92,68.92-68.92s68.92,30.92,68.92,68.92c0,4.42-3.58,8-8,8Z" style="fill: #fff; stroke-width: 0px;"/>
      <path d="M445.15,390.13c-21.4,0-38.81-17.41-38.81-38.81s17.41-38.81,38.81-38.81,38.81,17.41,38.81,38.81-17.41,38.81-38.81,38.81ZM445.15,328.52c-12.58,0-22.81,10.23-22.81,22.81s10.23,22.81,22.81,22.81,22.81-10.23,22.81-22.81-10.23-22.81-22.81-22.81Z" style="fill: #fff; stroke-width: 0px;"/>
      <path d="M257.03,529.7c-37.34,0-74.31-9.38-106.91-27.13-3.88-2.11-5.31-6.97-3.2-10.85,2.11-3.88,6.97-5.31,10.85-3.2,30.26,16.47,64.58,25.18,99.25,25.18s69-8.71,99.25-25.18c3.88-2.11,8.74-.68,10.85,3.2,2.11,3.88.68,8.74-3.2,10.85-32.6,17.75-69.57,27.13-106.91,27.13Z" style="fill: #00c6c2; stroke-width: 0px;"/>
      <path d="M472.44,299.82c-4.19,0-7.71-3.25-7.98-7.49-2.49-38.83-15.79-76.05-38.49-107.65-22.25-30.98-52.49-55.24-87.43-70.15-4.06-1.73-5.95-6.43-4.22-10.5,1.73-4.06,6.43-5.95,10.5-4.22,37.64,16.06,70.19,42.18,94.15,75.53,24.45,34.04,38.78,74.13,41.46,115.96.28,4.41-3.06,8.21-7.47,8.49-.17.01-.35.02-.52.02Z" style="fill: #00c6c2; stroke-width: 0px;"/>
      <path d="M41.37,304.59c-.11,0-.23,0-.34,0-4.42-.19-7.84-3.92-7.66-8.33,1.8-42.83,15.76-83.98,40.37-119,24.08-34.27,57.1-61.05,95.5-77.43,4.06-1.74,8.76.15,10.5,4.22,1.73,4.06-.16,8.76-4.22,10.5-35.65,15.21-66.32,40.08-88.69,71.91-22.85,32.51-35.81,70.72-37.48,110.48-.18,4.3-3.72,7.66-7.99,7.66Z" style="fill: #00c6c2; stroke-width: 0px;"/>
      <path d="M474.33,302.97l-30.49-21.69c-3.6-2.56-4.44-7.56-1.88-11.16s7.55-4.44,11.16-1.88l17.45,12.42,12.42-17.46c2.56-3.6,7.56-4.44,11.16-1.88,3.6,2.56,4.44,7.56,1.88,11.16l-21.69,30.5Z" style="fill: #00c6c2; stroke-width: 0px;"/>
      <path d="M162.57,531.68c-3.42,0-6.59-2.21-7.65-5.66l-10.97-35.79,35.78-10.96c4.23-1.29,8.7,1.08,9.99,5.31,1.29,4.22-1.08,8.7-5.31,9.99l-20.48,6.27,6.28,20.49c1.29,4.22-1.08,8.7-5.3,9.99-.78.24-1.57.35-2.35.35Z" style="fill: #00c6c2; stroke-width: 0px;"/>
    </g>
  </g>
</svg>