<?xml version="1.0" encoding="UTF-8"?>
<svg id="Layer_2" data-name="Layer 2" xmlns="http://www.w3.org/2000/svg" viewBox="0 0 475.44 485.12">
  <g id="Layer_1-2" data-name="Layer 1">
    <g>
      <path d="M73.19,350.46c-2.05,0-4.09-.78-5.66-2.34-3.12-3.12-3.12-8.19,0-11.31l55.12-55.12c23.18-23.18,54-35.95,86.78-35.95h102.45c20.95,0,37.99,17.04,37.99,37.99s-17.04,37.99-37.99,37.99h-85.34c-4.42,0-8-3.58-8-8s3.58-8,8-8h85.34c12.13,0,21.99-9.87,21.99-21.99s-9.87-21.99-21.99-21.99h-102.45c-28.51,0-55.31,11.1-75.47,31.26l-55.12,55.12c-1.56,1.56-3.61,2.34-5.66,2.34Z" style="fill: #fff; stroke-width: 0px;"/>
      <path d="M142.53,417.71c-2.05,0-4.09-.78-5.66-2.34-3.12-3.12-3.12-8.19,0-11.31l21.72-21.72h127.27c25.41,0,49.61-9.58,68.14-26.97l98.55-92.48c8.76-8.22,9.23-22.07,1.05-30.87-4.01-4.32-9.47-6.8-15.36-6.98-5.89-.21-11.49,1.96-15.76,6.02l-78.61,74.12c-3.22,3.03-8.28,2.88-11.31-.33-3.03-3.21-2.88-8.28.33-11.31l78.58-74.09c7.37-7.01,17.08-10.69,27.26-10.39,10.2.32,19.64,4.6,26.59,12.08,14.16,15.23,13.34,39.2-1.83,53.43l-98.55,92.49c-21.51,20.18-49.59,31.3-79.09,31.3h-120.65l-17.04,17.04c-1.56,1.56-3.61,2.34-5.66,2.34Z" style="fill: #fff; stroke-width: 0px;"/>
      <path d="M99.99,485.12c-5.26,0-10.53-2-14.53-6.01L6.01,399.66c-8.01-8.01-8.01-21.05,0-29.06l38.3-38.3c8.02-8.01,21.05-8.01,29.06,0l79.45,79.45c8.01,8.01,8.01,21.05,0,29.06l-38.3,38.31c-4.01,4-9.27,6.01-14.53,6.01ZM58.85,342.27c-1.21,0-2.36.47-3.22,1.33l-38.3,38.3c-.86.86-1.33,2-1.33,3.22s.47,2.36,1.33,3.22l79.45,79.45c1.77,1.78,4.66,1.77,6.44,0l38.3-38.31c.86-.86,1.33-2,1.33-3.22s-.47-2.36-1.33-3.22l-79.45-79.45c-.86-.86-2-1.33-3.22-1.33Z" style="fill: #fff; stroke-width: 0px;"/>
      <path d="M237.73,215.61l-104.15-104.15c-25.46-25.46-25.46-66.88,0-92.33C145.91,6.79,162.31,0,179.75,0s33.83,6.79,46.17,19.12l11.82,11.82,11.82-11.82c12.33-12.33,28.73-19.12,46.17-19.12s33.83,6.79,46.17,19.12h0c25.46,25.46,25.46,66.88,0,92.33l-104.15,104.15ZM179.75,16c-13.17,0-25.54,5.13-34.85,14.44-19.22,19.22-19.22,50.49,0,69.7l92.84,92.84,92.84-92.84c19.22-19.22,19.21-50.49,0-69.71h0c-9.31-9.31-21.69-14.44-34.85-14.44s-25.54,5.13-34.85,14.44l-23.13,23.13-23.13-23.13c-9.31-9.31-21.69-14.44-34.85-14.44Z" style="fill: #00c6c2; stroke-width: 0px;"/>
    </g>
  </g>
</svg>