<?xml version="1.0" encoding="UTF-8"?>
<svg id="Layer_2" data-name="Layer 2" xmlns="http://www.w3.org/2000/svg" viewBox="0 0 323.22 468.31">
  <g id="Layer_1-2" data-name="Layer 1">
    <g>
      <path d="M200.73,468.31c-37.54,0-72.47-16.85-95.85-46.22l-83.9-105.44c-11.93-14.99-9.44-36.9,5.55-48.83,14.99-11.93,36.9-9.44,48.83,5.55l17.88,22.47v-162.36c0-19.16,15.59-34.75,34.75-34.75s34.75,15.59,34.75,34.75v54.88c5.41-3.48,11.85-5.5,18.75-5.5,13.68,0,25.53,7.94,31.2,19.46,6.04-5.06,13.82-8.12,22.3-8.12,13.68,0,25.53,7.94,31.2,19.46,6.04-5.06,13.82-8.12,22.3-8.12h0c19.16,0,34.75,15.59,34.75,34.75v105.52c0,67.54-54.95,122.49-122.49,122.49ZM48.13,276.26c-4.22,0-8.29,1.41-11.64,4.08-3.92,3.12-6.39,7.58-6.95,12.55-.57,4.98.84,9.87,3.96,13.79l83.9,105.44c20.32,25.54,50.69,40.18,83.33,40.18,58.72,0,106.49-47.77,106.49-106.49v-105.52c0-10.34-8.41-18.75-18.75-18.75s-18.75,8.41-18.75,18.75c0,4.42-3.58,8-8,8s-8-3.58-8-8v-11.34c0-10.34-8.41-18.75-18.75-18.75s-18.75,8.41-18.75,18.75c0,4.42-3.58,8-8,8s-8-3.58-8-8v-11.34c0-10.34-8.41-18.75-18.75-18.75s-18.75,8.41-18.75,18.75c0,4.42-3.58,8-8,8s-8-3.58-8-8v-84.12c0-10.34-8.41-18.75-18.75-18.75s-18.75,8.41-18.75,18.75v185.26c0,3.4-2.15,6.43-5.36,7.55-3.21,1.12-6.78.09-8.9-2.57l-32.14-40.39c-3.12-3.92-7.58-6.39-12.55-6.95-.72-.08-1.44-.12-2.16-.12Z" style="fill: #fff; stroke-width: 0px;"/>
      <path d="M59.94,150.73H8c-4.42,0-8-3.58-8-8s3.58-8,8-8h51.94c4.42,0,8,3.58,8,8s-3.58,8-8,8Z" style="fill: #00c6c2; stroke-width: 0px;"/>
      <path d="M254.77,150.73h-51.94c-4.42,0-8-3.58-8-8s3.58-8,8-8h51.94c4.42,0,8,3.58,8,8s-3.58,8-8,8Z" style="fill: #00c6c2; stroke-width: 0px;"/>
      <path d="M131.39,67.94c-4.42,0-8-3.58-8-8V8c0-4.42,3.58-8,8-8s8,3.58,8,8v51.94c0,4.42-3.58,8-8,8Z" style="fill: #00c6c2; stroke-width: 0px;"/>
    </g>
  </g>
</svg>