<?xml version="1.0" encoding="UTF-8"?>
<svg id="Layer_2" data-name="Layer 2" xmlns="http://www.w3.org/2000/svg" viewBox="0 0 405.15 478.87">
  <g id="Layer_1-2" data-name="Layer 1">
    <g>
      <path d="M202.58,478.87L0,244.64l79.34-123.06h246.47l79.34,123.06-202.58,234.23ZM19.94,243.24l182.64,211.17,182.64-211.17-68.12-105.66H88.06L19.94,243.24Z" style="fill: #052831; stroke-width: 0px;"/>
      <path d="M395.18,251.94H9.97c-4.42,0-8-3.58-8-8s3.58-8,8-8h385.21c4.42,0,8,3.58,8,8s-3.58,8-8,8Z" style="fill: #052831; stroke-width: 0px;"/>
      <path d="M202.57,474.64c-3.45,0-6.64-2.25-7.67-5.73l-65.74-221.96c-1.25-4.24,1.16-8.69,5.4-9.94,4.24-1.25,8.69,1.16,9.94,5.4l65.74,221.96c1.25,4.24-1.16,8.69-5.4,9.94-.76.22-1.52.33-2.27.33Z" style="fill: #052831; stroke-width: 0px;"/>
      <path d="M202.58,474.64c-.75,0-1.52-.11-2.27-.33-4.24-1.25-6.65-5.71-5.4-9.94l65.74-221.96c1.25-4.24,5.7-6.65,9.94-5.4,4.24,1.25,6.65,5.71,5.4,9.94l-65.74,221.96c-1.03,3.48-4.22,5.73-7.67,5.73Z" style="fill: #052831; stroke-width: 0px;"/>
      <path d="M268.32,252.68c-2.86,0-5.51-1.53-6.94-4.02l-58.8-102.52-58.8,102.52c-1.49,2.6-4.29,4.15-7.29,4.01-2.99-.13-5.66-1.92-6.91-4.64l-53.13-115.1c-1.85-4.01-.1-8.76,3.91-10.62,4.01-1.85,8.76-.1,10.62,3.91l46.64,101.03,58.03-101.18c1.43-2.49,4.07-4.02,6.94-4.02s5.51,1.53,6.94,4.02l58.03,101.18,46.64-101.03c1.85-4.01,6.61-5.76,10.62-3.91,4.01,1.85,5.76,6.6,3.91,10.62l-53.13,115.1c-1.25,2.72-3.92,4.51-6.91,4.64-.12,0-.24,0-.35,0Z" style="fill: #052831; stroke-width: 0px;"/>
      <path d="M253.39,85.8c-2.05,0-4.09-.78-5.66-2.34-3.12-3.12-3.12-8.19,0-11.31l36.73-36.73c3.13-3.12,8.19-3.12,11.31,0s3.12,8.19,0,11.31l-36.73,36.73c-1.56,1.56-3.61,2.34-5.66,2.34Z" style="fill: #00c6c2; stroke-width: 0px;"/>
      <path d="M151.76,85.8c-2.05,0-4.09-.78-5.66-2.34l-36.73-36.73c-3.12-3.12-3.12-8.19,0-11.31,3.13-3.12,8.19-3.12,11.31,0l36.73,36.73c3.12,3.12,3.12,8.19,0,11.31-1.56,1.56-3.61,2.34-5.66,2.34Z" style="fill: #00c6c2; stroke-width: 0px;"/>
      <path d="M202.58,67.94c-4.42,0-8-3.58-8-8V8c0-4.42,3.58-8,8-8s8,3.58,8,8v51.94c0,4.42-3.58,8-8,8Z" style="fill: #00c6c2; stroke-width: 0px;"/>
    </g>
  </g>
</svg>