<?xml version="1.0" encoding="UTF-8"?>
<svg id="Layer_2" data-name="Layer 2" xmlns="http://www.w3.org/2000/svg" viewBox="0 0 373.61 390.91">
  <g id="Layer_1-2" data-name="Layer 1">
    <g>
      <path d="M338.04,390.91c-4.42,0-8-3.58-8-8,0-15.65-2.29-31.09-6.82-45.91-1.29-4.23,1.09-8.7,5.32-9.99,4.23-1.29,8.7,1.09,9.99,5.32,4.99,16.33,7.51,33.35,7.51,50.58,0,4.42-3.58,8-8,8Z" style="fill: #052831; stroke-width: 0px;"/>
      <path d="M8,390.91c-4.42,0-8-3.58-8-8,0-95.4,77.62-173.02,173.02-173.02,25.08,0,49.27,5.25,71.91,15.61,4.02,1.84,5.78,6.59,3.95,10.6-1.84,4.02-6.58,5.79-10.6,3.95-20.53-9.39-42.48-14.16-65.25-14.16-86.58,0-157.02,70.44-157.02,157.02,0,4.42-3.58,8-8,8Z" style="fill: #052831; stroke-width: 0px;"/>
      <path d="M173.02,182.91c-50.43,0-91.46-41.03-91.46-91.46S122.59,0,173.02,0s91.46,41.03,91.46,91.46-41.03,91.46-91.46,91.46ZM173.02,16c-41.61,0-75.46,33.85-75.46,75.46s33.85,75.46,75.46,75.46,75.46-33.85,75.46-75.46S214.63,16,173.02,16Z" style="fill: #052831; stroke-width: 0px;"/>
      <path d="M296.91,350.55c-42.29,0-76.7-34.41-76.7-76.7s34.41-76.7,76.7-76.7,76.7,34.41,76.7,76.7-34.41,76.7-76.7,76.7ZM296.91,213.15c-33.47,0-60.7,27.23-60.7,60.7s27.23,60.7,60.7,60.7,60.7-27.23,60.7-60.7-27.23-60.7-60.7-60.7Z" style="fill: #00c6c2; stroke-width: 0px;"/>
      <polygon points="295.61 240.56 273.59 248.4 280.19 265.3 290.38 261.62 290.38 307.14 309.93 307.14 309.93 240.56 295.61 240.56" style="fill: #00c6c2; stroke-width: 0px;"/>
    </g>
  </g>
</svg>