<?xml version="1.0" encoding="UTF-8"?>
<svg id="Layer_2" data-name="Layer 2" xmlns="http://www.w3.org/2000/svg" viewBox="0 0 324.45 452.64">
  <g id="Layer_1-2" data-name="Layer 1">
    <g>
      <path d="M324.45,452.64H0V0h230.69l93.76,93.76v358.88ZM16,436.64h292.45V100.39L224.06,16H16v420.64Z" style="fill: #052831; stroke-width: 0px;"/>
      <path d="M316.45,105.07h-89.07c-4.42,0-8-3.58-8-8V8c0-3.24,1.95-6.15,4.94-7.39,2.99-1.24,6.43-.55,8.72,1.73l89.07,89.07c2.29,2.29,2.97,5.73,1.73,8.72s-4.16,4.94-7.39,4.94ZM235.37,89.07h61.76l-61.76-61.76v61.76Z" style="fill: #052831; stroke-width: 0px;"/>
      <g>
        <path d="M169.63,382.27c-47.87,0-86.81-38.94-86.81-86.81s38.94-86.81,86.81-86.81h8v78.81h78.81v8c0,47.87-38.94,86.81-86.81,86.81ZM161.63,225.11c-35.29,3.99-62.81,34.02-62.81,70.36,0,39.04,31.76,70.81,70.81,70.81,36.34,0,66.37-27.52,70.36-62.81h-78.36v-78.36Z" style="fill: #00c6c2; stroke-width: 0px;"/>
        <path d="M284.9,275h-94.81v-94.81h8c47.87,0,86.81,38.94,86.81,86.81v8ZM206.09,259h62.36c-3.69-32.66-29.7-58.67-62.36-62.36v62.36Z" style="fill: #00c6c2; stroke-width: 0px;"/>
      </g>
      <path d="M126.75,93.03H51.17c-4.42,0-8-3.58-8-8s3.58-8,8-8h75.59c4.42,0,8,3.58,8,8s-3.58,8-8,8Z" style="fill: #00c6c2; stroke-width: 0px;"/>
      <path d="M126.75,135.51H51.17c-4.42,0-8-3.58-8-8s3.58-8,8-8h75.59c4.42,0,8,3.58,8,8s-3.58,8-8,8Z" style="fill: #00c6c2; stroke-width: 0px;"/>
      <path d="M126.75,181.39H51.17c-4.42,0-8-3.58-8-8s3.58-8,8-8h75.59c4.42,0,8,3.58,8,8s-3.58,8-8,8Z" style="fill: #00c6c2; stroke-width: 0px;"/>
    </g>
  </g>
</svg>