<?xml version="1.0" encoding="UTF-8"?>
<svg id="Layer_2" data-name="Layer 2" xmlns="http://www.w3.org/2000/svg" viewBox="0 0 324.45 452.64">
  <g id="Layer_1-2" data-name="Layer 1">
    <g>
      <path d="M324.45,452.64H0V0h230.69l93.76,93.76v358.88ZM16,436.64h292.45V100.39L224.06,16H16v420.64Z" style="fill: #052831; stroke-width: 0px;"/>
      <path d="M316.45,105.07h-89.07c-4.42,0-8-3.58-8-8V8c0-3.24,1.95-6.15,4.94-7.39,2.99-1.24,6.43-.55,8.72,1.73l89.07,89.07c2.29,2.29,2.97,5.73,1.73,8.72-1.24,2.99-4.16,4.94-7.39,4.94ZM235.37,89.07h61.76l-61.76-61.76v61.76Z" style="fill: #052831; stroke-width: 0px;"/>
      <path d="M209.81,168.76H58.64c-4.42,0-8-3.58-8-8s3.58-8,8-8h151.17c4.42,0,8,3.58,8,8s-3.58,8-8,8Z" style="fill: #00c6c2; stroke-width: 0px;"/>
      <path d="M209.81,211.24H58.64c-4.42,0-8-3.58-8-8s3.58-8,8-8h151.17c4.42,0,8,3.58,8,8s-3.58,8-8,8Z" style="fill: #00c6c2; stroke-width: 0px;"/>
      <path d="M209.81,253.73H58.64c-4.42,0-8-3.58-8-8s3.58-8,8-8h151.17c4.42,0,8,3.58,8,8s-3.58,8-8,8Z" style="fill: #00c6c2; stroke-width: 0px;"/>
      <path d="M209.81,296.22H58.64c-4.42,0-8-3.58-8-8s3.58-8,8-8h151.17c4.42,0,8,3.58,8,8s-3.58,8-8,8Z" style="fill: #00c6c2; stroke-width: 0px;"/>
    </g>
  </g>
</svg>