<?xml version="1.0" encoding="UTF-8"?>
<svg id="Layer_2" data-name="Layer 2" xmlns="http://www.w3.org/2000/svg" viewBox="0 0 324.45 452.64">
  <g id="Layer_1-2" data-name="Layer 1">
    <g>
      <path d="M324.45,452.64H0V0h230.69l93.76,93.76v358.88ZM16,436.64h292.45V100.39L224.06,16H16v420.64Z" style="fill: #052831; stroke-width: 0px;"/>
      <path d="M316.45,105.07h-89.07c-4.42,0-8-3.58-8-8V8c0-3.24,1.95-6.15,4.94-7.39,2.99-1.24,6.43-.55,8.72,1.73l89.07,89.07c2.29,2.29,2.97,5.73,1.73,8.72s-4.16,4.94-7.39,4.94ZM235.37,89.07h61.76l-61.76-61.76v61.76Z" style="fill: #052831; stroke-width: 0px;"/>
      <path d="M137.01,236.53H51.02c-4.42,0-8-3.58-8-8v-85.99c0-4.42,3.58-8,8-8h85.99c4.42,0,8,3.58,8,8v85.99c0,4.42-3.58,8-8,8ZM59.02,220.53h69.99v-69.99H59.02v69.99Z" style="fill: #052831; stroke-width: 0px;"/>
      <path d="M96.39,205.04h-.03c-2.48-.01-4.82-1.17-6.32-3.14l-19.24-25.16c-2.68-3.51-2.01-8.53,1.5-11.21,3.51-2.69,8.53-2.02,11.21,1.5l12.94,16.92,59.47-76.46c2.71-3.49,7.74-4.11,11.23-1.4,3.49,2.71,4.12,7.74,1.4,11.23l-65.84,84.64c-1.52,1.95-3.85,3.09-6.31,3.09Z" style="fill: #00c6c2; stroke-width: 0px;"/>
      <path d="M137.01,368.97H51.02c-4.42,0-8-3.58-8-8v-85.99c0-4.42,3.58-8,8-8h85.99c4.42,0,8,3.58,8,8v85.99c0,4.42-3.58,8-8,8ZM59.02,352.97h69.99v-69.99H59.02v69.99Z" style="fill: #052831; stroke-width: 0px;"/>
      <path d="M96.39,337.48h-.03c-2.48-.01-4.82-1.17-6.32-3.14l-19.24-25.16c-2.68-3.51-2.01-8.53,1.5-11.21,3.51-2.69,8.53-2.02,11.21,1.5l12.94,16.92,59.47-76.46c2.71-3.49,7.74-4.11,11.23-1.4,3.49,2.71,4.12,7.74,1.4,11.23l-65.84,84.64c-1.52,1.95-3.85,3.09-6.31,3.09Z" style="fill: #00c6c2; stroke-width: 0px;"/>
    </g>
  </g>
</svg>