<?xml version="1.0" encoding="UTF-8"?>
<svg id="Layer_2" data-name="Layer 2" xmlns="http://www.w3.org/2000/svg" viewBox="0 0 466.3 411.23">
  <g id="Layer_1-2" data-name="Layer 1">
    <g>
      <path d="M438.03,213.62H84.1c-4.42,0-8-3.58-8-8s3.58-8,8-8h353.93c4.42,0,8,3.58,8,8s-3.58,8-8,8Z" style="fill: #fff; stroke-width: 0px;"/>
      <path d="M399.14,270.33c-2.05,0-4.09-.78-5.66-2.34-3.12-3.12-3.12-8.19,0-11.31l50.19-50.19-50.19-50.19c-3.12-3.12-3.12-8.19,0-11.31,3.12-3.12,8.19-3.12,11.31,0l61.5,61.5-61.5,61.5c-1.56,1.56-3.61,2.34-5.66,2.34Z" style="fill: #fff; stroke-width: 0px;"/>
      <path d="M289.77,374.69h-140.04c-4.42,0-8-3.58-8-8s3.58-8,8-8h124.04V52.54h-124.04c-4.42,0-8-3.58-8-8s3.58-8,8-8h140.04v338.15Z" style="fill: #fff; stroke-width: 0px;"/>
      <path d="M147.37,411.23h-71.56c-2.12,0-4.16-.84-5.66-2.34-1.5-1.5-2.34-3.54-2.34-5.66v-73.08c0-4.42,3.58-8,8-8h71.56c2.12,0,4.16.84,5.66,2.34,1.5,1.5,2.34,3.54,2.34,5.66v73.08c0,4.42-3.58,8-8,8ZM83.81,395.23h55.56v-57.08h-55.56s0,57.08,0,57.08Z" style="fill: #00c6c2; stroke-width: 0px;"/>
      <path d="M79.56,250.16H8c-2.12,0-4.16-.84-5.66-2.34-1.5-1.5-2.34-3.54-2.34-5.66v-73.08c0-4.42,3.58-8,8-8h71.56c4.42,0,8,3.58,8,8v73.08c0,4.42-3.58,8-8,8ZM16,234.16h55.56v-57.08H16v57.08Z" style="fill: #00c6c2; stroke-width: 0px;"/>
      <path d="M75.81,89.08c-2.12,0-4.16-.84-5.66-2.34-1.5-1.5-2.34-3.54-2.34-5.66V8c0-4.42,3.58-8,8-8h71.56c4.42,0,8,3.58,8,8v73.08c0,4.42-3.58,8-8,8h-71.56ZM83.81,16v57.08h55.56V16h-55.56Z" style="fill: #00c6c2; stroke-width: 0px;"/>
    </g>
  </g>
</svg>