<?xml version="1.0" encoding="UTF-8"?>
<svg id="Layer_2" data-name="Layer 2" xmlns="http://www.w3.org/2000/svg" viewBox="0 0 562.74 367.96">
  <g id="Layer_1-2" data-name="Layer 1">
    <g>
      <path d="M332.03,281.86l-44.85-58.65c-2.68-3.51-2.01-8.53,1.5-11.21,3.51-2.68,8.53-2.02,11.21,1.5l32.25,42.17,125.53-161.38c2.71-3.49,7.74-4.11,11.23-1.4,3.49,2.71,4.12,7.74,1.4,11.23l-138.27,177.76Z" style="fill: #fff; stroke-width: 0px;"/>
      <g>
        <path d="M167.41,253.93h-77.99c-4.42,0-8-3.58-8-8s3.58-8,8-8h77.99c4.42,0,8,3.58,8,8s-3.58,8-8,8Z" style="fill: #00c6c2; stroke-width: 0px;"/>
        <path d="M167.41,130.03h-77.99c-4.42,0-8-3.58-8-8s3.58-8,8-8h77.99c4.42,0,8,3.58,8,8s-3.58,8-8,8Z" style="fill: #00c6c2; stroke-width: 0px;"/>
        <path d="M153.94,191.98H8c-4.42,0-8-3.58-8-8s3.58-8,8-8h145.94c4.42,0,8,3.58,8,8s-3.58,8-8,8Z" style="fill: #00c6c2; stroke-width: 0px;"/>
      </g>
      <path d="M378.76,367.96c-101.45,0-183.98-82.53-183.98-183.98S277.31,0,378.76,0s183.98,82.53,183.98,183.98-82.53,183.98-183.98,183.98ZM378.76,16c-92.62,0-167.98,75.35-167.98,167.98s75.35,167.98,167.98,167.98,167.98-75.35,167.98-167.98S471.38,16,378.76,16Z" style="fill: #fff; stroke-width: 0px;"/>
    </g>
  </g>
</svg>