<?xml version="1.0" encoding="UTF-8"?>
<svg id="Layer_2" data-name="Layer 2" xmlns="http://www.w3.org/2000/svg" viewBox="0 0 526.93 526.93">
  <g id="Layer_1-2" data-name="Layer 1">
    <g>
      <path d="M67.68,123.5l-24.09-22.92c-3.2-3.05-3.33-8.11-.28-11.31,3.05-3.2,8.11-3.33,11.31-.28l10.82,10.29,37.17-51.43c2.59-3.58,7.59-4.39,11.17-1.8,3.58,2.59,4.39,7.59,1.8,11.17l-47.9,66.27Z" style="fill: #fff; stroke-width: 0px;"/>
      <path d="M80.23,160.46C35.99,160.46,0,124.47,0,80.23S35.99,0,80.23,0s80.23,35.99,80.23,80.23-35.99,80.23-80.23,80.23ZM80.23,16c-35.42,0-64.23,28.81-64.23,64.23s28.81,64.23,64.23,64.23,64.23-28.81,64.23-64.23S115.65,16,80.23,16Z" style="fill: #fff; stroke-width: 0px;"/>
      <path d="M245.9,306.73l-24.09-22.92c-3.2-3.05-3.33-8.11-.28-11.31,3.05-3.2,8.11-3.33,11.31-.28l10.82,10.29,37.17-51.43c2.59-3.58,7.59-4.39,11.17-1.8,3.58,2.59,4.39,7.59,1.8,11.17l-47.9,66.27Z" style="fill: #fff; stroke-width: 0px;"/>
      <path d="M258.45,343.7c-44.24,0-80.23-35.99-80.23-80.23s35.99-80.23,80.23-80.23,80.23,35.99,80.23,80.23-35.99,80.23-80.23,80.23ZM258.45,199.23c-35.42,0-64.23,28.81-64.23,64.23s28.81,64.23,64.23,64.23,64.23-28.81,64.23-64.23-28.81-64.23-64.23-64.23Z" style="fill: #fff; stroke-width: 0px;"/>
      <path d="M434.15,489.96l-24.09-22.92c-3.2-3.05-3.33-8.11-.28-11.31,3.05-3.2,8.11-3.33,11.31-.28l10.82,10.29,37.17-51.43c2.59-3.58,7.59-4.39,11.17-1.8,3.58,2.59,4.39,7.59,1.8,11.17l-47.9,66.27Z" style="fill: #fff; stroke-width: 0px;"/>
      <path d="M446.7,526.93c-44.24,0-80.23-35.99-80.23-80.23s35.99-80.23,80.23-80.23,80.23,35.99,80.23,80.23-35.99,80.23-80.23,80.23ZM446.7,382.47c-35.42,0-64.23,28.81-64.23,64.23s28.81,64.23,64.23,64.23,64.23-28.81,64.23-64.23-28.81-64.23-64.23-64.23Z" style="fill: #fff; stroke-width: 0px;"/>
      <path d="M186.27,200.69c-2.05,0-4.09-.78-5.66-2.34l-41.69-41.69c-3.12-3.12-3.12-8.19,0-11.31,3.12-3.12,8.19-3.12,11.31,0l41.69,41.69c3.12,3.12,3.12,8.19,0,11.31-1.56,1.56-3.61,2.34-5.66,2.34Z" style="fill: #00c6c2; stroke-width: 0px;"/>
      <path d="M194.27,200.69h-41.43c-4.42,0-8-3.58-8-8s3.58-8,8-8h25.43v-25.43c0-4.42,3.58-8,8-8s8,3.58,8,8v41.43Z" style="fill: #00c6c2; stroke-width: 0px;"/>
      <path d="M371.59,383.93c-2.05,0-4.09-.78-5.66-2.34l-41.69-41.69c-3.12-3.12-3.12-8.19,0-11.31,3.12-3.12,8.19-3.12,11.31,0l41.69,41.69c3.12,3.12,3.12,8.19,0,11.31-1.56,1.56-3.61,2.34-5.66,2.34Z" style="fill: #00c6c2; stroke-width: 0px;"/>
      <path d="M379.59,383.93h-41.43c-4.42,0-8-3.58-8-8s3.58-8,8-8h25.43v-25.43c0-4.42,3.58-8,8-8s8,3.58,8,8v41.43Z" style="fill: #00c6c2; stroke-width: 0px;"/>
    </g>
  </g>
</svg>