<?xml version="1.0" encoding="UTF-8"?>
<svg id="Layer_2" data-name="Layer 2" xmlns="http://www.w3.org/2000/svg" viewBox="0 0 405.38 405.38">
  <g id="Layer_1-2" data-name="Layer 1">
    <g>
      <path d="M155.16,163.16H8c-4.42,0-8-3.58-8-8V8C0,3.58,3.58,0,8,0h147.16c4.42,0,8,3.58,8,8v147.16c0,4.42-3.58,8-8,8ZM16,147.16h131.16V16H16v131.16Z" style="fill: #fff; stroke-width: 0px;"/>
      <g>
        <path d="M397.38,405.38c-.52,0-1.05-.05-1.56-.16-.52-.1-1.02-.25-1.5-.45-.48-.2-.95-.45-1.38-.74-.44-.29-.85-.63-1.22-.99-.37-.37-.7-.78-.99-1.22-.29-.43-.54-.9-.74-1.38-.2-.48-.35-.99-.46-1.5-.1-.51-.15-1.04-.15-1.56s.05-1.05.15-1.56c.11-.51.26-1.02.46-1.5.2-.48.45-.95.74-1.38.29-.44.62-.85.99-1.21.37-.37.78-.71,1.22-1,.43-.29.9-.54,1.38-.74s.98-.35,1.5-.45c1.03-.21,2.09-.21,3.12,0,.51.1,1.02.25,1.5.45s.95.45,1.38.74c.44.29.85.63,1.22,1,.37.36.7.77.99,1.21.29.43.54.9.74,1.38.2.48.35.99.45,1.5.11.51.16,1.04.16,1.56s-.05,1.05-.16,1.56c-.1.51-.25,1.02-.45,1.5-.2.48-.45.95-.74,1.38-.29.44-.62.85-.99,1.22-.37.36-.78.7-1.22.99-.43.29-.9.54-1.38.74-.48.2-.99.35-1.5.45-.51.11-1.04.16-1.56.16Z" style="fill: #fff; stroke-width: 0px;"/>
        <path d="M359.95,397.38c0-4.42,3.58-8,8-8h0c4.42,0,8,3.58,8,8h0c0,4.42-3.58,8-8,8h0c-4.42,0-8-3.58-8-8ZM330.51,397.38c0-4.42,3.59-8,8-8h0c4.42,0,8,3.58,8,8h0c0,4.42-3.58,8-8,8h0c-4.41,0-8-3.58-8-8ZM301.08,397.38c0-4.42,3.58-8,8-8h0c4.42,0,8,3.58,8,8h0c0,4.42-3.58,8-8,8h0c-4.42,0-8-3.58-8-8ZM271.65,397.38c0-4.42,3.58-8,8-8h0c4.42,0,8,3.58,8,8h0c0,4.42-3.58,8-8,8h0c-4.42,0-8-3.58-8-8Z" style="fill: #fff; stroke-width: 0px;"/>
        <path d="M250.22,405.38c-.52,0-1.05-.05-1.56-.16-.51-.1-1.02-.25-1.5-.45-.48-.2-.95-.45-1.38-.74-.44-.29-.85-.63-1.22-.99-.37-.37-.7-.78-.99-1.22-.29-.43-.54-.9-.74-1.38-.2-.48-.35-.99-.45-1.5-.11-.51-.16-1.04-.16-1.56s.05-1.05.16-1.56c.1-.51.25-1.02.45-1.5.2-.48.45-.95.74-1.38.29-.44.62-.85.99-1.21.37-.37.78-.71,1.22-1,.43-.29.9-.54,1.38-.74s.99-.35,1.5-.45c1.03-.21,2.09-.21,3.12,0,.51.1,1.01.25,1.5.45.48.2.94.45,1.38.74s.85.63,1.22,1c.36.36.7.77.99,1.21.29.43.54.9.74,1.38.19.48.35.99.45,1.5.1.51.16,1.04.16,1.56s-.06,1.05-.16,1.56c-.1.51-.26,1.02-.45,1.5-.2.48-.45.95-.74,1.38-.29.44-.63.85-.99,1.22-.37.36-.78.7-1.22.99s-.9.54-1.38.74c-.49.2-.99.35-1.5.45-.51.11-1.04.16-1.56.16Z" style="fill: #fff; stroke-width: 0px;"/>
        <path d="M242.22,367.95c0-4.42,3.58-8,8-8h0c4.42,0,8,3.58,8,8h0c0,4.42-3.58,8-8,8h0c-4.42,0-8-3.58-8-8ZM242.22,338.52c0-4.42,3.58-8,8-8h0c4.42,0,8,3.58,8,8h0c0,4.41-3.58,7.99-8,7.99h0c-4.42,0-8-3.58-8-7.99ZM242.22,309.08c0-4.42,3.58-8,8-8h0c4.42,0,8,3.58,8,8h0c0,4.42-3.58,8-8,8h0c-4.42,0-8-3.58-8-8ZM242.22,279.65c0-4.42,3.58-8,8-8h0c4.42,0,8,3.58,8,8h0c0,4.42-3.58,8-8,8h0c-4.42,0-8-3.58-8-8Z" style="fill: #fff; stroke-width: 0px;"/>
        <path d="M250.22,258.22c-.52,0-1.05-.05-1.57-.16-.51-.1-1.01-.25-1.49-.45s-.95-.45-1.38-.74c-.44-.29-.85-.63-1.22-.99-.37-.37-.7-.78-.99-1.22-.29-.43-.54-.9-.74-1.38-.2-.48-.35-.99-.45-1.5-.11-.51-.16-1.04-.16-1.56s.05-1.05.16-1.57c.1-.51.25-1.01.45-1.49s.45-.95.74-1.38c.29-.44.62-.85.99-1.22.37-.37.78-.7,1.22-.99.43-.29.9-.54,1.38-.74s.98-.35,1.49-.46c1.04-.2,2.1-.2,3.13,0,.51.11,1.01.26,1.5.46.48.2.95.45,1.38.74.44.29.85.62,1.21.99.37.37.71.78,1,1.22.29.43.54.9.74,1.38s.35.98.45,1.49c.11.52.16,1.05.16,1.57s-.05,1.05-.16,1.56c-.1.51-.25,1.02-.45,1.5-.2.48-.45.95-.74,1.38-.29.44-.63.85-1,1.22-.36.36-.77.7-1.21.99-.43.29-.9.54-1.38.74-.49.2-.99.35-1.5.45-.51.11-1.04.16-1.56.16Z" style="fill: #fff; stroke-width: 0px;"/>
        <path d="M359.95,250.22c0-4.42,3.58-8,8-8h0c4.42,0,8,3.58,8,8h0c0,4.42-3.58,8-8,8h0c-4.42,0-8-3.58-8-8ZM330.52,250.22c0-4.42,3.58-8,7.99-8h0c4.42,0,8,3.58,8,8h0c0,4.42-3.58,8-8,8h0c-4.41,0-7.99-3.58-7.99-8ZM301.08,250.22c0-4.42,3.58-8,8-8h0c4.42,0,8,3.58,8,8h0c0,4.42-3.58,8-8,8h0c-4.42,0-8-3.58-8-8ZM271.65,250.22c0-4.42,3.58-8,8-8h0c4.42,0,8,3.58,8,8h0c0,4.42-3.58,8-8,8h0c-4.42,0-8-3.58-8-8Z" style="fill: #fff; stroke-width: 0px;"/>
        <path d="M397.38,258.22c-.52,0-1.05-.05-1.56-.16-.51-.1-1.02-.25-1.5-.45s-.95-.45-1.38-.74c-.44-.29-.85-.63-1.22-.99-.37-.37-.7-.78-.99-1.22-.29-.43-.54-.9-.74-1.38-.2-.48-.35-.99-.45-1.5-.11-.51-.16-1.04-.16-1.56s.05-1.05.16-1.57c.1-.51.25-1.01.45-1.49.2-.48.45-.95.74-1.38.29-.44.62-.85.99-1.22.37-.37.78-.7,1.22-.99.43-.29.9-.54,1.38-.74s.99-.35,1.5-.46c1.03-.2,2.09-.2,3.12,0,.51.11,1.02.26,1.5.46s.95.45,1.38.74c.44.29.85.62,1.22.99.37.37.7.78.99,1.22.29.43.54.9.74,1.38.2.48.35.98.45,1.49.11.52.16,1.05.16,1.57s-.05,1.05-.16,1.56c-.1.51-.25,1.02-.45,1.5-.2.48-.45.95-.74,1.38-.29.44-.62.85-.99,1.22-.37.36-.78.7-1.22.99-.43.29-.9.54-1.38.74s-.99.35-1.5.45c-.51.11-1.04.16-1.56.16Z" style="fill: #fff; stroke-width: 0px;"/>
        <path d="M389.38,367.95c0-4.42,3.58-8,8-8h0c4.42,0,8,3.58,8,8h0c0,4.42-3.58,8-8,8h0c-4.42,0-8-3.58-8-8ZM389.38,338.52c0-4.42,3.58-8,8-8h0c4.42,0,8,3.58,8,8h0c0,4.42-3.58,8-8,8h0c-4.42,0-8-3.58-8-8ZM389.38,309.09c0-4.42,3.58-8,8-8h0c4.42,0,8,3.58,8,8h0c0,4.41-3.58,7.99-8,7.99h0c-4.42,0-8-3.58-8-7.99ZM389.38,279.65c0-4.42,3.58-8,8-8h0c4.42,0,8,3.58,8,8h0c0,4.42-3.58,8-8,8h0c-4.42,0-8-3.58-8-8Z" style="fill: #fff; stroke-width: 0px;"/>
      </g>
      <path d="M219.41,115.9c-1.92,0-3.84-.73-5.3-2.2l-32.06-32.05,32.05-32.18c2.92-2.93,7.67-2.94,10.61-.02,2.93,2.92,2.94,7.67.02,10.61l-21.49,21.57,21.47,21.47c2.93,2.93,2.93,7.68,0,10.61-1.46,1.46-3.38,2.2-5.3,2.2Z" style="fill: #00c6c2; stroke-width: 0px;"/>
      <path d="M323.8,207.35c-4.42,0-8-3.58-8-8v-109.77h-109.77c-4.42,0-8-3.58-8-8s3.58-8,8-8h125.77v125.77c0,4.42-3.58,8-8,8Z" style="fill: #00c6c2; stroke-width: 0px;"/>
      <path d="M179.21,357.42c-1.92,0-3.84-.73-5.3-2.2-2.93-2.93-2.93-7.68,0-10.61l21.51-21.52-21.51-21.51c-2.93-2.93-2.93-7.68,0-10.61,2.93-2.93,7.68-2.93,10.61,0l32.12,32.12-32.12,32.12c-1.46,1.46-3.38,2.2-5.3,2.2Z" style="fill: #00c6c2; stroke-width: 0px;"/>
      <path d="M200.05,331.1h-125.77v-125.77c0-4.42,3.58-8,8-8s8,3.58,8,8v109.77h109.77c4.42,0,8,3.58,8,8s-3.58,8-8,8Z" style="fill: #00c6c2; stroke-width: 0px;"/>
    </g>
  </g>
</svg>