<?xml version="1.0" encoding="UTF-8"?>
<svg id="Layer_2" data-name="Layer 2" xmlns="http://www.w3.org/2000/svg" viewBox="0 0 365.8 431.28">
  <g id="Layer_1-2" data-name="Layer 1">
    <g>
      <path d="M209.26,431.28c-39.25,0-77.49-18.65-101.25-52.26-5.68-8.04-11.3-16.37-16.68-24.76-17.64-27.49-31.71-51.51-47.3-86.28-15.93-35.53-24.63-62.54-33.49-94.6h0c-2.73-9.88-5.25-19.87-7.48-29.68C-3.25,115.96.26,86.68,12.95,61.23,25.63,35.78,46.91,15.35,72.86,3.72c10.28-4.61,21.74-4.94,32.27-.93,10.53,4.01,18.87,11.88,23.48,22.16l22.16,49.42c9.52,21.22,0,46.23-21.23,55.75l-12.67,5.68c-10.07,4.51-15.21,15.92-11.95,26.54,7.69,25.1,13.64,42.39,24.78,67.24,10.85,24.2,19.19,39.12,32.7,61.53,5.74,9.53,17.69,13.29,27.79,8.76l12.89-5.78c10.28-4.61,21.74-4.94,32.27-.93s18.87,11.88,23.48,22.16l22.16,49.42c9.52,21.22,0,46.23-21.23,55.75-16.29,7.3-33.48,10.81-50.49,10.81ZM25.97,169.11c8.66,31.34,17.15,57.72,32.67,92.32,15.19,33.86,28.92,57.32,46.17,84.19,5.25,8.19,10.73,16.32,16.28,24.17,29.65,41.95,85.21,57.12,132.12,36.09,13.17-5.91,19.08-21.43,13.18-34.6l-22.16-49.42c-2.86-6.38-8.04-11.27-14.57-13.75-6.54-2.49-13.65-2.29-20.03.58l-12.89,5.78c-17.48,7.83-38.13,1.34-48.04-15.1-13.55-22.49-22.47-38.44-33.59-63.25-11.49-25.61-17.59-43.36-25.48-69.09-5.61-18.32,3.29-38.02,20.7-45.83l12.67-5.68c13.17-5.91,19.08-21.43,13.18-34.6l-22.16-49.42c-5.91-13.17-21.43-19.09-34.6-13.18C32.89,39.17,7.35,90.41,18.66,140.15c2.18,9.57,4.63,19.32,7.3,28.97h0Z" style="fill: #052831; stroke-width: 0px;"/>
      <g>
        <path d="M346.87,267.46c-.95,0-1.91-.17-2.84-.53-4.13-1.57-6.2-6.19-4.63-10.32,14.98-39.34,13.74-82.16-3.48-120.57s-48.38-67.81-87.72-82.79c-4.13-1.57-6.2-6.19-4.63-10.32,1.57-4.13,6.2-6.2,10.32-4.63,43.33,16.5,77.65,48.89,96.62,91.2,18.97,42.31,20.33,89.48,3.83,132.81-1.22,3.19-4.25,5.16-7.48,5.16Z" style="fill: #00c6c2; stroke-width: 0px;"/>
        <path d="M346.87,267.46c-.95,0-1.91-.17-2.84-.53-4.13-1.57-6.2-6.19-4.63-10.32,14.98-39.34,13.74-82.16-3.48-120.57s-48.38-67.81-87.72-82.79c-4.13-1.57-6.2-6.19-4.63-10.32,1.57-4.13,6.2-6.2,10.32-4.63,43.33,16.5,77.65,48.89,96.62,91.2,18.97,42.31,20.33,89.48,3.83,132.81-1.22,3.19-4.25,5.16-7.48,5.16Z" style="fill: #00c6c2; stroke-width: 0px;"/>
        <path d="M299.53,249.43c-.95,0-1.91-.17-2.84-.53-4.13-1.57-6.2-6.19-4.63-10.32,10.17-26.69,9.33-55.75-2.36-81.81-11.69-26.06-32.83-46.02-59.52-56.18-4.13-1.57-6.2-6.19-4.63-10.32,1.57-4.13,6.2-6.2,10.32-4.63,30.69,11.69,54.99,34.62,68.43,64.59,13.44,29.96,14.4,63.37,2.72,94.05-1.22,3.19-4.25,5.16-7.48,5.16Z" style="fill: #00c6c2; stroke-width: 0px;"/>
        <path d="M249.9,230.53c-.95,0-1.91-.17-2.84-.53-4.13-1.57-6.2-6.19-4.63-10.32,5.12-13.44,4.7-28.07-1.19-41.19-5.89-13.12-16.53-23.17-29.97-28.29-4.13-1.57-6.2-6.19-4.63-10.32s6.2-6.2,10.32-4.63c17.43,6.64,31.24,19.67,38.87,36.69,7.63,17.02,8.18,36,1.54,53.43-1.22,3.19-4.25,5.16-7.48,5.16Z" style="fill: #00c6c2; stroke-width: 0px;"/>
        <path d="M299.53,249.43c-.95,0-1.91-.17-2.84-.53-4.13-1.57-6.2-6.19-4.63-10.32,10.17-26.69,9.33-55.75-2.36-81.81-11.69-26.06-32.83-46.02-59.52-56.18-4.13-1.57-6.2-6.19-4.63-10.32,1.57-4.13,6.2-6.2,10.32-4.63,30.69,11.69,54.99,34.62,68.43,64.59,13.44,29.96,14.4,63.37,2.72,94.05-1.22,3.19-4.25,5.16-7.48,5.16Z" style="fill: #00c6c2; stroke-width: 0px;"/>
        <path d="M249.9,230.53c-.95,0-1.91-.17-2.84-.53-4.13-1.57-6.2-6.19-4.63-10.32,5.12-13.44,4.7-28.07-1.19-41.19-5.89-13.12-16.53-23.17-29.97-28.29-4.13-1.57-6.2-6.19-4.63-10.32s6.2-6.2,10.32-4.63c17.43,6.64,31.24,19.67,38.87,36.69,7.63,17.02,8.18,36,1.54,53.43-1.22,3.19-4.25,5.16-7.48,5.16Z" style="fill: #00c6c2; stroke-width: 0px;"/>
      </g>
    </g>
  </g>
</svg>