<?xml version="1.0" encoding="UTF-8"?>
<svg id="Layer_2" data-name="Layer 2" xmlns="http://www.w3.org/2000/svg" viewBox="0 0 492.41 329.48">
  <g id="Layer_1-2" data-name="Layer 1">
    <g>
      <path d="M211.85,222.28L3.56,83.35c-3.68-2.45-4.67-7.42-2.22-11.09,2.45-3.67,7.42-4.67,11.09-2.22l199.42,133,142.26-94.88c3.67-2.45,8.64-1.46,11.09,2.22,2.45,3.68,1.46,8.64-2.22,11.09l-151.14,100.81Z" style="fill: #052831; stroke-width: 0px;"/>
      <path d="M415.71,329.48H8C3.58,329.48,0,325.9,0,321.48V76.7c0-4.42,3.58-8,8-8h339.01c4.42,0,8,3.58,8,8s-3.58,8-8,8H16v228.79h391.71v-168.09c0-4.42,3.58-8,8-8s8,3.58,8,8v176.09c0,4.42-3.58,8-8,8Z" style="fill: #052831; stroke-width: 0px;"/>
      <path d="M415.71,153.39c-42.29,0-76.7-34.41-76.7-76.7S373.42,0,415.71,0s76.7,34.41,76.7,76.7-34.41,76.7-76.7,76.7ZM415.71,16c-33.47,0-60.7,27.23-60.7,60.7s27.23,60.7,60.7,60.7,60.7-27.23,60.7-60.7-27.23-60.7-60.7-60.7Z" style="fill: #00c6c2; stroke-width: 0px;"/>
      <polygon points="414.41 43.41 392.38 51.25 398.99 68.14 409.17 64.47 409.17 109.98 428.72 109.98 428.72 43.41 414.41 43.41" style="fill: #00c6c2; stroke-width: 0px;"/>
    </g>
  </g>
</svg>