<?xml version="1.0" encoding="UTF-8"?>
<svg id="Layer_2" data-name="Layer 2" xmlns="http://www.w3.org/2000/svg" viewBox="0 0 384.37 483.46">
  <g id="Layer_1-2" data-name="Layer 1">
    <g>
      <g>
        <path d="M194.81,483.46H63c-34.74,0-63-28.26-63-63V63C0,28.26,28.26,0,63,0h131.81c34.74,0,63,28.26,63,63v73.77c0,4.42-3.58,8-8,8s-8-3.58-8-8V63c0-25.92-21.09-47-47-47H63c-25.92,0-47,21.09-47,47v357.46c0,25.92,21.09,47,47,47h131.81c25.92,0,47-21.09,47-47v-113.75c0-4.42,3.58-8,8-8s8,3.58,8,8v113.75c0,34.74-28.26,63-63,63Z" style="fill: #052831; stroke-width: 0px;"/>
        <path d="M249.82,66.46H8c-4.42,0-8-3.58-8-8s3.58-8,8-8h241.82c4.42,0,8,3.58,8,8s-3.58,8-8,8Z" style="fill: #052831; stroke-width: 0px;"/>
        <path d="M249.82,433H8c-4.42,0-8-3.58-8-8s3.58-8,8-8h241.82c4.42,0,8,3.58,8,8s-3.58,8-8,8Z" style="fill: #052831; stroke-width: 0px;"/>
      </g>
      <path d="M168.59,364.66v-50.47c-30.05-3.93-53.32-29.7-53.32-60.8v-63.29c0-33.81,27.51-61.32,61.32-61.32h146.45c33.81,0,61.32,27.51,61.32,61.32v63.29c0,33.81-27.51,61.32-61.32,61.32h-74.09l-80.36,49.95ZM176.59,144.77c-24.99,0-45.32,20.33-45.32,45.32v63.29c0,24.99,20.33,45.32,45.32,45.32h8v37.16l59.79-37.16h78.66c24.99,0,45.32-20.33,45.32-45.32v-63.29c0-24.99-20.33-45.32-45.32-45.32h-146.45Z" style="fill: #00c6c2; stroke-width: 0px;"/>
      <path d="M249.82,270.42l-44.01-44.01c-11.82-11.82-11.82-31.04,0-42.86,5.72-5.72,13.33-8.88,21.43-8.88s15.71,3.15,21.43,8.88l1.15,1.15,1.15-1.15c5.72-5.72,13.33-8.88,21.43-8.88s15.71,3.15,21.43,8.88h0c11.82,11.82,11.82,31.04,0,42.86l-44.01,44.01ZM227.24,190.68c-3.82,0-7.41,1.49-10.12,4.19-5.58,5.58-5.58,14.65,0,20.23l32.69,32.69,32.69-32.69c5.58-5.58,5.58-14.65,0-20.23h0c-2.7-2.7-6.29-4.19-10.12-4.19s-7.41,1.49-10.12,4.19l-12.46,12.46-12.46-12.46c-2.7-2.7-6.29-4.19-10.12-4.19Z" style="fill: #00c6c2; stroke-width: 0px;"/>
    </g>
  </g>
</svg>