<?xml version="1.0" encoding="UTF-8"?>
<svg id="Layer_2" data-name="Layer 2" xmlns="http://www.w3.org/2000/svg" viewBox="0 0 473.12 436.35">
  <g id="Layer_1-2" data-name="Layer 1">
    <g>
      <path d="M32.58,232.89c-17.96,0-32.58-14.61-32.58-32.58s14.61-32.58,32.58-32.58,32.58,14.61,32.58,32.58-14.61,32.58-32.58,32.58ZM32.58,183.74c-9.14,0-16.58,7.44-16.58,16.58s7.44,16.58,16.58,16.58,16.58-7.44,16.58-16.58-7.44-16.58-16.58-16.58Z" style="fill: #00c6c2; stroke-width: 0px;"/>
      <path d="M146.19,87.48c-17.96,0-32.58-14.61-32.58-32.58s14.61-32.58,32.58-32.58,32.58,14.61,32.58,32.58-14.61,32.58-32.58,32.58ZM146.19,38.33c-9.14,0-16.58,7.44-16.58,16.58s7.44,16.58,16.58,16.58,16.58-7.44,16.58-16.58-7.44-16.58-16.58-16.58Z" style="fill: #00c6c2; stroke-width: 0px;"/>
      <path d="M259.81,205.55c-17.96,0-32.58-14.61-32.58-32.58s14.61-32.58,32.58-32.58,32.58,14.61,32.58,32.58-14.61,32.58-32.58,32.58ZM259.81,156.4c-9.14,0-16.58,7.44-16.58,16.58s7.44,16.58,16.58,16.58,16.58-7.44,16.58-16.58-7.44-16.58-16.58-16.58Z" style="fill: #00c6c2; stroke-width: 0px;"/>
      <path d="M373.42,145.57c-17.96,0-32.58-14.61-32.58-32.58s14.61-32.58,32.58-32.58,32.58,14.61,32.58,32.58-14.61,32.58-32.58,32.58ZM373.42,96.42c-9.14,0-16.58,7.44-16.58,16.58s7.44,16.58,16.58,16.58,16.58-7.44,16.58-16.58-7.44-16.58-16.58-16.58Z" style="fill: #00c6c2; stroke-width: 0px;"/>
      <path d="M241.01,161.44c-2.1,0-4.2-.82-5.77-2.45l-76.29-79.28c-3.06-3.18-2.97-8.25.22-11.31,3.18-3.06,8.25-2.97,11.31.22l76.29,79.28c3.06,3.18,2.97,8.25-.22,11.31-1.55,1.49-3.55,2.24-5.55,2.24Z" style="fill: #00c6c2; stroke-width: 0px;"/>
      <path d="M281.99,169.27c-2.87,0-5.65-1.55-7.08-4.27-2.06-3.91-.57-8.75,3.34-10.81l68.19-36c3.91-2.06,8.75-.57,10.81,3.34,2.06,3.91.57,8.75-3.34,10.81l-68.19,36c-1.19.63-2.47.93-3.73.93Z" style="fill: #00c6c2; stroke-width: 0px;"/>
      <path d="M47.67,188.99c-1.72,0-3.46-.55-4.92-1.7-3.48-2.72-4.1-7.75-1.38-11.23l82.78-105.94c2.72-3.48,7.75-4.1,11.23-1.38,3.48,2.72,4.1,7.75,1.38,11.23l-82.78,105.94c-1.58,2.02-3.93,3.07-6.31,3.07Z" style="fill: #00c6c2; stroke-width: 0px;"/>
      <path d="M436.29,436.35c-13.79,0-27.03-7.76-33.35-21l-65.05-136.38c-1.9-3.99-.21-8.76,3.78-10.67,3.99-1.9,8.76-.21,10.67,3.78l65.05,136.38c4.96,10.4,17.45,14.82,27.84,9.86,10.4-4.96,14.82-17.45,9.86-27.85l-65.06-136.38c-1.9-3.99-.21-8.76,3.78-10.67,3.99-1.9,8.76-.21,10.67,3.78l65.06,136.38c8.76,18.36.94,40.42-17.41,49.18-5.11,2.44-10.51,3.59-15.82,3.59Z" style="fill: #052831; stroke-width: 0px;"/>
      <path d="M313.17,282.49c-15.88,0-31.81-2.71-47.22-8.17-35.55-12.59-64.06-38.26-80.3-72.3-33.51-70.26-3.62-154.68,66.64-188.2,34.03-16.23,72.35-18.24,107.9-5.66,35.54,12.59,64.06,38.26,80.3,72.3h0c16.23,34.03,18.24,72.35,5.66,107.9-12.59,35.55-38.26,64.06-72.3,80.3-19.28,9.2-39.93,13.83-60.68,13.83ZM312.98,16.01c-18.39,0-36.71,4.11-53.8,12.26-62.29,29.72-88.8,104.57-59.09,166.87,21.44,44.95,66.4,71.27,113.17,71.27,18.04,0,36.35-3.91,53.69-12.19,30.18-14.39,52.94-39.68,64.1-71.2s9.38-65.49-5.02-95.67h0c-14.39-30.18-39.68-52.94-71.2-64.1-13.66-4.84-27.79-7.24-41.87-7.24Z" style="fill: #052831; stroke-width: 0px;"/>
    </g>
  </g>
</svg>