<?xml version="1.0" encoding="UTF-8"?>
<svg id="Layer_2" data-name="Layer 2" xmlns="http://www.w3.org/2000/svg" viewBox="0 0 528.65 414.89">
  <g id="Layer_1-2" data-name="Layer 1">
    <g>
      <path d="M504.33,319.27H24.32c-13.41,0-24.32-10.91-24.32-24.32V24.32C0,10.91,10.91,0,24.32,0h480.01c13.41,0,24.32,10.91,24.32,24.32v270.63c0,13.41-10.91,24.32-24.32,24.32ZM24.32,16c-4.59,0-8.32,3.73-8.32,8.32v270.63c0,4.59,3.73,8.32,8.32,8.32h480.01c4.59,0,8.32-3.73,8.32-8.32V24.32c0-4.59-3.73-8.32-8.32-8.32H24.32Z" style="fill: #052831; stroke-width: 0px;"/>
      <path d="M206.67,372.51c-4.42,0-8-3.58-8-8v-46.82c0-4.42,3.58-8,8-8s8,3.58,8,8v46.82c0,4.42-3.58,8-8,8Z" style="fill: #052831; stroke-width: 0px;"/>
      <path d="M321.98,372.51c-4.42,0-8-3.58-8-8v-46.82c0-4.42,3.58-8,8-8s8,3.58,8,8v46.82c0,4.42-3.58,8-8,8Z" style="fill: #052831; stroke-width: 0px;"/>
      <path d="M395.23,414.89H133.42v-50.98h261.82v50.98ZM149.42,398.89h229.82v-18.98h-229.82v18.98Z" style="fill: #052831; stroke-width: 0px;"/>
      <path d="M264.39,236.96c-4.42,0-8-3.58-8-8V73.11H108.99c-4.42,0-8-3.58-8-8s3.58-8,8-8h163.4v171.85c0,4.42-3.58,8-8,8Z" style="fill: #00c6c2; stroke-width: 0px;"/>
      <path d="M292.73,236.96c-4.42,0-8-3.58-8-8V85.46h74.49c4.42,0,8,3.58,8,8s-3.58,8-8,8h-58.49v127.51c0,4.42-3.58,8-8,8Z" style="fill: #00c6c2; stroke-width: 0px;"/>
      <path d="M321.08,236.96c-4.42,0-8-3.58-8-8V93.46c0-4.42,3.58-8,8-8s8,3.58,8,8v135.51c0,4.42-3.58,8-8,8Z" style="fill: #00c6c2; stroke-width: 0px;"/>
      <path d="M236.04,236.96c-4.42,0-8-3.58-8-8V65.11c0-4.42,3.58-8,8-8s8,3.58,8,8v163.85c0,4.42-3.58,8-8,8Z" style="fill: #00c6c2; stroke-width: 0px;"/>
      <path d="M207.69,236.96c-4.42,0-8-3.58-8-8v-99.16h-30.15c-4.42,0-8-3.58-8-8s3.58-8,8-8h46.15v115.16c0,4.42-3.58,8-8,8Z" style="fill: #00c6c2; stroke-width: 0px;"/>
      <path d="M392.81,101.46h-12.32c-4.42,0-8-3.58-8-8s3.58-8,8-8h12.32c4.42,0,8,3.58,8,8s-3.58,8-8,8Z" style="fill: #00c6c2; stroke-width: 0px;"/>
      <path d="M426.39,101.46h-12.32c-4.42,0-8-3.58-8-8s3.58-8,8-8h12.32c4.42,0,8,3.58,8,8s-3.58,8-8,8Z" style="fill: #00c6c2; stroke-width: 0px;"/>
      <path d="M87.73,73.11h-12.32c-4.42,0-8-3.58-8-8s3.58-8,8-8h12.32c4.42,0,8,3.58,8,8s-3.58,8-8,8Z" style="fill: #00c6c2; stroke-width: 0px;"/>
      <path d="M207.69,270.54c-4.42,0-8-3.58-8-8v-12.32c0-4.42,3.58-8,8-8s8,3.58,8,8v12.32c0,4.42-3.58,8-8,8Z" style="fill: #00c6c2; stroke-width: 0px;"/>
      <path d="M236.04,270.54c-4.42,0-8-3.58-8-8v-12.32c0-4.42,3.58-8,8-8s8,3.58,8,8v12.32c0,4.42-3.58,8-8,8Z" style="fill: #00c6c2; stroke-width: 0px;"/>
      <path d="M292.73,270.54c-4.42,0-8-3.58-8-8v-12.32c0-4.42,3.58-8,8-8s8,3.58,8,8v12.32c0,4.42-3.58,8-8,8Z" style="fill: #00c6c2; stroke-width: 0px;"/>
      <path d="M264.39,270.54c-4.42,0-8-3.58-8-8v-12.32c0-4.42,3.58-8,8-8s8,3.58,8,8v12.32c0,4.42-3.58,8-8,8Z" style="fill: #00c6c2; stroke-width: 0px;"/>
      <path d="M321.08,270.54c-4.42,0-8-3.58-8-8v-12.32c0-4.42,3.58-8,8-8s8,3.58,8,8v12.32c0,4.42-3.58,8-8,8Z" style="fill: #00c6c2; stroke-width: 0px;"/>
      <path d="M148.28,129.8h-12.32c-4.42,0-8-3.58-8-8s3.58-8,8-8h12.32c4.42,0,8,3.58,8,8s-3.58,8-8,8Z" style="fill: #00c6c2; stroke-width: 0px;"/>
    </g>
  </g>
</svg>