<?xml version="1.0" encoding="UTF-8"?>
<svg id="Layer_2" data-name="Layer 2" xmlns="http://www.w3.org/2000/svg" viewBox="0 0 528.65 414.89">
  <g id="Layer_1-2" data-name="Layer 1">
    <g>
      <path d="M504.33,319.27H24.32c-13.41,0-24.32-10.91-24.32-24.32V24.32C0,10.91,10.91,0,24.32,0h480.01c13.41,0,24.32,10.91,24.32,24.32v270.63c0,13.41-10.91,24.32-24.32,24.32ZM24.32,16c-4.59,0-8.32,3.73-8.32,8.32v270.63c0,4.59,3.73,8.32,8.32,8.32h480.01c4.59,0,8.32-3.73,8.32-8.32V24.32c0-4.59-3.73-8.32-8.32-8.32H24.32Z" style="fill: #052831; stroke-width: 0px;"/>
      <path d="M206.67,372.51c-4.42,0-8-3.58-8-8v-46.82c0-4.42,3.58-8,8-8s8,3.58,8,8v46.82c0,4.42-3.58,8-8,8Z" style="fill: #052831; stroke-width: 0px;"/>
      <path d="M321.98,372.51c-4.42,0-8-3.58-8-8v-46.82c0-4.42,3.58-8,8-8s8,3.58,8,8v46.82c0,4.42-3.58,8-8,8Z" style="fill: #052831; stroke-width: 0px;"/>
      <path d="M395.23,414.89H133.42v-50.98h261.82v50.98ZM149.42,398.89h229.82v-18.98h-229.82v18.98Z" style="fill: #052831; stroke-width: 0px;"/>
      <path d="M151.58,150.15h-57.88c-4.42,0-8-3.58-8-8v-56.67c0-4.42,3.58-8,8-8h57.88c4.42,0,8,3.58,8,8v56.67c0,4.42-3.58,8-8,8ZM101.7,134.15h41.88v-40.67h-41.88v40.67Z" style="fill: #00c6c2; stroke-width: 0px;"/>
      <path d="M246.04,150.15h-57.88c-4.42,0-8-3.58-8-8v-56.67c0-4.42,3.58-8,8-8h57.88c4.42,0,8,3.58,8,8v56.67c0,4.42-3.58,8-8,8ZM196.16,134.15h41.88v-40.67h-41.88v40.67Z" style="fill: #00c6c2; stroke-width: 0px;"/>
      <path d="M340.49,150.15h-57.88c-4.42,0-8-3.58-8-8v-56.67c0-4.42,3.58-8,8-8h57.88c4.42,0,8,3.58,8,8v56.67c0,4.42-3.58,8-8,8ZM290.61,134.15h41.88v-40.67h-41.88v40.67Z" style="fill: #00c6c2; stroke-width: 0px;"/>
      <path d="M434.95,150.15h-57.88c-4.42,0-8-3.58-8-8v-56.67c0-4.42,3.58-8,8-8h57.88c4.42,0,8,3.58,8,8v56.67c0,4.42-3.58,8-8,8ZM385.07,134.15h41.88v-40.67h-41.88v40.67Z" style="fill: #00c6c2; stroke-width: 0px;"/>
      <path d="M151.58,241.79h-57.88c-4.42,0-8-3.58-8-8v-56.67c0-4.42,3.58-8,8-8h57.88c4.42,0,8,3.58,8,8v56.67c0,4.42-3.58,8-8,8ZM101.7,225.79h41.88v-40.67h-41.88v40.67Z" style="fill: #00c6c2; stroke-width: 0px;"/>
      <path d="M246.04,241.79h-57.88c-4.42,0-8-3.58-8-8v-56.67c0-4.42,3.58-8,8-8h57.88c4.42,0,8,3.58,8,8v56.67c0,4.42-3.58,8-8,8ZM196.16,225.79h41.88v-40.67h-41.88v40.67Z" style="fill: #00c6c2; stroke-width: 0px;"/>
      <path d="M340.49,241.79h-57.88c-4.42,0-8-3.58-8-8v-56.67c0-4.42,3.58-8,8-8h57.88c4.42,0,8,3.58,8,8v56.67c0,4.42-3.58,8-8,8ZM290.61,225.79h41.88v-40.67h-41.88v40.67Z" style="fill: #00c6c2; stroke-width: 0px;"/>
      <path d="M434.95,241.79h-57.88c-4.42,0-8-3.58-8-8v-56.67c0-4.42,3.58-8,8-8h57.88c4.42,0,8,3.58,8,8v56.67c0,4.42-3.58,8-8,8ZM385.07,225.79h41.88v-40.67h-41.88v40.67Z" style="fill: #00c6c2; stroke-width: 0px;"/>
    </g>
  </g>
</svg>