<?xml version="1.0" encoding="UTF-8"?>
<svg id="Layer_2" data-name="Layer 2" xmlns="http://www.w3.org/2000/svg" viewBox="0 0 446.23 423.11">
  <g id="Layer_1-2" data-name="Layer 1">
    <g>
      <path d="M402.8,423.11H43.43c-23.95,0-43.43-19.48-43.43-43.43V127.87c0-23.95,19.48-43.43,43.43-43.43h359.37c23.95,0,43.43,19.48,43.43,43.43v251.81c0,23.95-19.48,43.43-43.43,43.43ZM43.43,100.43c-15.13,0-27.43,12.31-27.43,27.43v251.81c0,15.13,12.31,27.43,27.43,27.43h359.37c15.13,0,27.43-12.31,27.43-27.43V127.87c0-15.13-12.31-27.43-27.43-27.43H43.43Z" style="fill: #052831; stroke-width: 0px;"/>
      <path d="M435.91,173.67H8.44c-4.42,0-8-3.58-8-8s3.58-8,8-8h427.47c4.42,0,8,3.58,8,8s-3.58,8-8,8Z" style="fill: #052831; stroke-width: 0px;"/>
      <circle cx="48.83" cy="130.66" r="11.81" style="fill: #022d39; stroke-width: 0px;"/>
      <circle cx="83.15" cy="130.66" r="11.81" style="fill: #022d39; stroke-width: 0px;"/>
      <circle cx="117.47" cy="130.66" r="11.81" style="fill: #022d39; stroke-width: 0px;"/>
      <path d="M438.23,71.7c-4.42,0-8-3.58-8-8V16h-47.7c-4.42,0-8-3.58-8-8s3.58-8,8-8h63.7v63.7c0,4.42-3.58,8-8,8Z" style="fill: #00c6c2; stroke-width: 0px;"/>
      <path d="M228.74,225.49c-2.05,0-4.09-.78-5.66-2.34-3.12-3.12-3.12-8.19,0-11.31L427.58,7.33c3.12-3.12,8.19-3.12,11.31,0,3.12,3.12,3.12,8.19,0,11.31l-204.5,204.5c-1.56,1.56-3.61,2.34-5.66,2.34Z" style="fill: #00c6c2; stroke-width: 0px;"/>
    </g>
  </g>
</svg>