<?xml version="1.0" encoding="UTF-8"?>
<svg id="Layer_2" data-name="Layer 2" xmlns="http://www.w3.org/2000/svg" viewBox="0 0 528.65 414.89">
  <g id="Layer_1-2" data-name="Layer 1">
    <g>
      <path d="M504.33,319.27H24.32c-13.41,0-24.32-10.91-24.32-24.32V24.32C0,10.91,10.91,0,24.32,0h480.01c13.41,0,24.32,10.91,24.32,24.32v270.63c0,13.41-10.91,24.32-24.32,24.32ZM24.32,16c-4.59,0-8.32,3.73-8.32,8.32v270.63c0,4.59,3.73,8.32,8.32,8.32h480.01c4.59,0,8.32-3.73,8.32-8.32V24.32c0-4.59-3.73-8.32-8.32-8.32H24.32Z" style="fill: #052831; stroke-width: 0px;"/>
      <path d="M206.67,372.51c-4.42,0-8-3.58-8-8v-46.82c0-4.42,3.58-8,8-8s8,3.58,8,8v46.82c0,4.42-3.58,8-8,8Z" style="fill: #052831; stroke-width: 0px;"/>
      <path d="M321.98,372.51c-4.42,0-8-3.58-8-8v-46.82c0-4.42,3.58-8,8-8s8,3.58,8,8v46.82c0,4.42-3.58,8-8,8Z" style="fill: #052831; stroke-width: 0px;"/>
      <path d="M395.23,414.89H133.42v-50.98h261.82v50.98ZM149.42,398.89h229.82v-18.98h-229.82v18.98Z" style="fill: #052831; stroke-width: 0px;"/>
      <path d="M226.27,261.49c-1.34,0-2.69-.32-3.96-.97-3.78-1.96-5.54-6.3-4.18-10.34l27.8-82.58h-45.33l36.45-109.82h77.79l-32.73,63.67h50.59l-99.53,136.51c-1.67,2.29-4.25,3.53-6.9,3.53ZM226.71,253.25h0,0ZM220.25,248.53s0,0,0,0h0ZM222.77,151.6h45.43l-19.48,57.87,52.51-72.02h-45.33l32.73-63.67h-40.03l-25.83,77.82Z" style="fill: #00c6c2; stroke-width: 0px;"/>
    </g>
  </g>
</svg>