<?xml version="1.0" encoding="UTF-8"?>
<svg id="Layer_2" data-name="Layer 2" xmlns="http://www.w3.org/2000/svg" viewBox="0 0 483.67 366.76">
  <g id="Layer_1-2" data-name="Layer 1">
    <g>
      <path d="M440.24,366.76H43.43c-23.95,0-43.43-19.48-43.43-43.43V43.43C0,19.48,19.48,0,43.43,0h396.81c23.95,0,43.43,19.48,43.43,43.43v279.89c0,23.95-19.48,43.43-43.43,43.43ZM43.43,16c-15.13,0-27.43,12.31-27.43,27.43v279.89c0,15.13,12.31,27.43,27.43,27.43h396.81c15.13,0,27.43-12.31,27.43-27.43V43.43c0-15.13-12.31-27.43-27.43-27.43H43.43Z" style="fill: #052831; stroke-width: 0px;"/>
      <path d="M474.17,95.61H9.5c-4.42,0-8-3.58-8-8s3.58-8,8-8h464.68c4.42,0,8,3.58,8,8s-3.58,8-8,8Z" style="fill: #052831; stroke-width: 0px;"/>
      <circle cx="52.38" cy="49.56" r="12.84" style="fill: #022d39; stroke-width: 0px;"/>
      <circle cx="89.69" cy="49.56" r="12.84" style="fill: #022d39; stroke-width: 0px;"/>
      <circle cx="126.99" cy="49.56" r="12.84" style="fill: #022d39; stroke-width: 0px;"/>
      <g>
        <path d="M129.09,210.16h-57.88c-4.42,0-8-3.58-8-8v-56.67c0-4.42,3.58-8,8-8h57.88c4.42,0,8,3.58,8,8v56.67c0,4.42-3.58,8-8,8ZM79.21,194.16h41.88v-40.67h-41.88v40.67Z" style="fill: #00c6c2; stroke-width: 0px;"/>
        <path d="M223.55,210.16h-57.88c-4.42,0-8-3.58-8-8v-56.67c0-4.42,3.58-8,8-8h57.88c4.42,0,8,3.58,8,8v56.67c0,4.42-3.58,8-8,8ZM173.67,194.16h41.88v-40.67h-41.88v40.67Z" style="fill: #00c6c2; stroke-width: 0px;"/>
        <path d="M318,210.16h-57.88c-4.42,0-8-3.58-8-8v-56.67c0-4.42,3.58-8,8-8h57.88c4.42,0,8,3.58,8,8v56.67c0,4.42-3.58,8-8,8ZM268.12,194.16h41.88v-40.67h-41.88v40.67Z" style="fill: #00c6c2; stroke-width: 0px;"/>
        <path d="M412.46,210.16h-57.88c-4.42,0-8-3.58-8-8v-56.67c0-4.42,3.58-8,8-8h57.88c4.42,0,8,3.58,8,8v56.67c0,4.42-3.58,8-8,8ZM362.58,194.16h41.88v-40.67h-41.88v40.67Z" style="fill: #00c6c2; stroke-width: 0px;"/>
        <path d="M129.09,301.8h-57.88c-4.42,0-8-3.58-8-8v-56.67c0-4.42,3.58-8,8-8h57.88c4.42,0,8,3.58,8,8v56.67c0,4.42-3.58,8-8,8ZM79.21,285.8h41.88v-40.67h-41.88v40.67Z" style="fill: #00c6c2; stroke-width: 0px;"/>
        <path d="M223.55,301.8h-57.88c-4.42,0-8-3.58-8-8v-56.67c0-4.42,3.58-8,8-8h57.88c4.42,0,8,3.58,8,8v56.67c0,4.42-3.58,8-8,8ZM173.67,285.8h41.88v-40.67h-41.88v40.67Z" style="fill: #00c6c2; stroke-width: 0px;"/>
        <path d="M318,301.8h-57.88c-4.42,0-8-3.58-8-8v-56.67c0-4.42,3.58-8,8-8h57.88c4.42,0,8,3.58,8,8v56.67c0,4.42-3.58,8-8,8ZM268.12,285.8h41.88v-40.67h-41.88v40.67Z" style="fill: #00c6c2; stroke-width: 0px;"/>
        <path d="M412.46,301.8h-57.88c-4.42,0-8-3.58-8-8v-56.67c0-4.42,3.58-8,8-8h57.88c4.42,0,8,3.58,8,8v56.67c0,4.42-3.58,8-8,8ZM362.58,285.8h41.88v-40.67h-41.88v40.67Z" style="fill: #00c6c2; stroke-width: 0px;"/>
      </g>
    </g>
  </g>
</svg>