<?xml version="1.0" encoding="UTF-8"?>
<svg id="Layer_2" data-name="Layer 2" xmlns="http://www.w3.org/2000/svg" viewBox="0 0 475.44 537.95">
  <g id="Layer_1-2" data-name="Layer 1">
    <g>
      <path d="M290.2,248.88c-4.42,0-8-3.58-8-8V81.58c0-4.42,3.58-8,8-8s8,3.58,8,8v159.3c0,4.42-3.58,8-8,8Z" style="fill: #00c6c2; stroke-width: 0px;"/>
      <path d="M286.3,205.35c-37.73,0-68.42-30.69-68.42-68.42v-6.43c0-12.56,3.46-24.88,9.99-35.6L283.37,3.84c2.3-3.77,7.22-4.97,10.99-2.67,3.77,2.3,4.97,7.22,2.67,10.99l-55.49,91.06c-5.01,8.22-7.66,17.65-7.66,27.28v6.43c0,28.9,23.52,52.42,52.42,52.42,4.42,0,8,3.58,8,8s-3.58,8-8,8Z" style="fill: #00c6c2; stroke-width: 0px;"/>
      <path d="M294.1,205.35c-4.42,0-8-3.58-8-8s3.58-8,8-8c28.9,0,52.42-23.52,52.42-52.42v-6.43c0-9.63-2.65-19.06-7.66-27.28l-55.49-91.06c-2.3-3.77-1.1-8.7,2.67-10.99,3.77-2.3,8.7-1.1,10.99,2.67l55.49,91.06c6.54,10.73,9.99,23.04,9.99,35.6v6.43c0,37.73-30.69,68.42-68.42,68.42Z" style="fill: #00c6c2; stroke-width: 0px;"/>
      <path d="M292.54,173.62c-2.05,0-4.09-.78-5.66-2.34-3.12-3.12-3.12-8.19,0-11.31l26.4-26.4c3.12-3.12,8.19-3.12,11.31,0,3.12,3.12,3.12,8.19,0,11.31l-26.4,26.4c-1.56,1.56-3.61,2.34-5.66,2.34Z" style="fill: #00c6c2; stroke-width: 0px;"/>
      <path d="M288.77,141c-2.05,0-4.09-.78-5.66-2.34l-19.79-19.79c-3.12-3.12-3.12-8.19,0-11.31,3.12-3.12,8.19-3.12,11.31,0l19.79,19.79c3.12,3.12,3.12,8.19,0,11.31-1.56,1.56-3.61,2.34-5.66,2.34Z" style="fill: #00c6c2; stroke-width: 0px;"/>
      <path d="M173.28,315.82c-4.42,0-8-3.58-8-8,0-40.29,54.87-71.86,124.92-71.86,55.81,0,103.88,20.39,119.62,50.75,2.03,3.92.5,8.75-3.42,10.78-3.92,2.03-8.75.5-10.78-3.42-5.93-11.45-19.21-21.95-37.39-29.56-19.58-8.21-43.1-12.54-68.02-12.54-59.04,0-108.92,25.58-108.92,55.86,0,4.42-3.58,8-8,8Z" style="fill: #00c6c2; stroke-width: 0px;"/>
      <path d="M73.19,403.29c-2.05,0-4.09-.78-5.66-2.34-3.12-3.12-3.12-8.19,0-11.31l55.12-55.12c23.18-23.18,54-35.95,86.78-35.95h102.45c20.95,0,37.99,17.04,37.99,37.99s-17.04,37.99-37.99,37.99h-85.34c-4.42,0-8-3.58-8-8s3.58-8,8-8h85.34c12.13,0,21.99-9.87,21.99-21.99s-9.87-21.99-21.99-21.99h-102.45c-28.51,0-55.31,11.1-75.47,31.26l-55.12,55.12c-1.56,1.56-3.61,2.34-5.66,2.34Z" style="fill: #052831; stroke-width: 0px;"/>
      <path d="M142.53,470.54c-2.05,0-4.09-.78-5.66-2.34-3.12-3.12-3.12-8.19,0-11.31l21.72-21.72h127.27c25.41,0,49.61-9.58,68.14-26.96l98.55-92.48c8.76-8.22,9.23-22.07,1.05-30.87-4.01-4.32-9.47-6.8-15.36-6.98-5.9-.17-11.49,1.96-15.76,6.02l-78.61,74.11c-3.21,3.03-8.28,2.88-11.31-.33-3.03-3.21-2.88-8.28.33-11.31l78.58-74.09c7.37-7.01,17.06-10.71,27.26-10.39,10.2.31,19.64,4.6,26.59,12.08,14.16,15.23,13.34,39.2-1.83,53.43l-98.55,92.48c-21.51,20.18-49.59,31.3-79.09,31.3h-120.65l-17.04,17.04c-1.56,1.56-3.61,2.34-5.66,2.34Z" style="fill: #052831; stroke-width: 0px;"/>
      <path d="M99.99,537.95c-5.26,0-10.52-2-14.53-6.01L6.01,452.49c-8.01-8.01-8.01-21.05,0-29.06l38.31-38.31c8.01-8.01,21.05-8.01,29.06,0l79.45,79.45c3.88,3.88,6.02,9.04,6.02,14.53s-2.14,10.65-6.02,14.53l-38.31,38.31c-4.01,4.01-9.27,6.01-14.53,6.01ZM58.85,395.1c-1.17,0-2.33.44-3.22,1.33l-38.3,38.3c-1.77,1.77-1.77,4.66,0,6.44l79.45,79.45c1.77,1.77,4.66,1.77,6.44,0l38.3-38.31c.86-.86,1.33-2,1.33-3.22s-.47-2.36-1.33-3.22l-79.45-79.45c-.89-.89-2.05-1.33-3.22-1.33Z" style="fill: #052831; stroke-width: 0px;"/>
    </g>
  </g>
</svg>