<?xml version="1.0" encoding="UTF-8"?>
<svg id="Layer_2" data-name="Layer 2" xmlns="http://www.w3.org/2000/svg" viewBox="0 0 409.33 470.42">
  <g id="Layer_1-2" data-name="Layer 1">
    <g>
      <path d="M104.77,270.68l-5.84-1.59c-11.34-3.08-22.25-7.6-32.43-13.44l-5.25-3.01,9.53-38.29-14.48-14.48-38.28,9.53-3.01-5.24c-5.84-10.18-10.36-21.09-13.44-32.43l-1.58-5.84,33.81-20.34v-20.47L0,104.77l1.58-5.84c3.08-11.34,7.6-22.25,13.44-32.43l3.01-5.24,38.28,9.53,14.48-14.48-9.53-38.29,5.25-3.01c10.18-5.84,21.09-10.36,32.43-13.44l5.84-1.59,20.33,33.81h20.47L165.91,0l5.84,1.58c11.34,3.08,22.25,7.6,32.43,13.44l5.25,3.01-9.53,38.29,14.48,14.48,38.29-9.53,3.01,5.24c5.83,10.18,10.36,21.09,13.44,32.43l1.59,5.84-33.81,20.34v20.47l33.81,20.34-1.59,5.84c-3.08,11.34-7.6,22.25-13.44,32.43l-3.01,5.24-38.29-9.53-14.48,14.48,9.53,38.29-5.25,3.01c-10.18,5.84-21.09,10.36-32.43,13.44l-5.84,1.58-20.34-33.81h-20.47l-20.33,33.81ZM116.05,220.87h38.57l18.69,31.07c6.06-1.97,11.95-4.41,17.63-7.3l-8.76-35.18,27.27-27.27,35.18,8.76c2.89-5.67,5.33-11.57,7.3-17.63l-31.07-18.69v-38.57l31.07-18.69c-1.97-6.06-4.41-11.96-7.3-17.63l-35.18,8.76-27.27-27.27,8.76-35.18c-5.67-2.89-11.57-5.33-17.63-7.3l-18.69,31.07h-38.57l-18.69-31.07c-6.06,1.97-11.96,4.41-17.63,7.3l8.76,35.18-27.27,27.27-35.18-8.76c-2.89,5.67-5.33,11.57-7.3,17.63l31.07,18.69v38.57l-31.07,18.69c1.97,6.06,4.41,11.96,7.3,17.63l35.18-8.76,27.27,27.27-8.76,35.18c5.67,2.89,11.57,5.33,17.63,7.3l18.69-31.07ZM41.81,150.1h0,0Z" style="fill: #00c6c2; stroke-width: 0px;"/>
      <path d="M135.34,191.09c-30.74,0-55.75-25.01-55.75-55.75s25.01-55.75,55.75-55.75,55.75,25.01,55.75,55.75-25.01,55.75-55.75,55.75ZM135.34,95.59c-21.92,0-39.75,17.83-39.75,39.75s17.83,39.75,39.75,39.75,39.75-17.83,39.75-39.75-17.83-39.75-39.75-39.75Z" style="fill: #00c6c2; stroke-width: 0px;"/>
      <path d="M372.45,470.42c-4.15,0-8.31-.71-12.34-2.13-9.29-3.29-16.74-10-20.98-18.89l-65.06-136.38c-1.9-3.99-.21-8.76,3.78-10.67,3.99-1.9,8.76-.21,10.67,3.78l65.06,136.38c2.4,5.04,6.62,8.83,11.88,10.7,5.26,1.86,10.93,1.57,15.96-.84,5.04-2.4,8.83-6.62,10.7-11.88s1.57-10.93-.84-15.96l-65.05-136.38c-1.9-3.99-.21-8.76,3.78-10.67,3.99-1.9,8.76-.21,10.67,3.78l65.05,136.38c4.24,8.89,4.77,18.91,1.48,28.19s-10,16.74-18.89,20.98c-5.04,2.4-10.43,3.61-15.85,3.61Z" style="fill: #fff; stroke-width: 0px;"/>
      <path d="M249.47,316.46c-52.76,0-103.45-29.68-127.64-80.38-33.51-70.26-3.62-154.68,66.64-188.2,70.26-33.51,154.68-3.62,188.2,66.64,33.51,70.26,3.62,154.68-66.64,188.2-19.55,9.33-40.21,13.74-60.56,13.74ZM249.05,50.13c-18.04,0-36.35,3.91-53.7,12.19-62.3,29.72-88.8,104.57-59.09,166.87,21.44,44.95,66.4,71.27,113.17,71.27,18.04,0,36.35-3.91,53.69-12.19,62.3-29.72,88.8-104.57,59.09-166.87-21.44-44.95-66.4-71.27-113.17-71.27Z" style="fill: #fff; stroke-width: 0px;"/>
    </g>
  </g>
</svg>