<?xml version="1.0" encoding="UTF-8"?>
<svg id="Layer_2" data-name="Layer 2" xmlns="http://www.w3.org/2000/svg" viewBox="0 0 456.2 456.2">
  <g id="Layer_1-2" data-name="Layer 1">
    <g>
      <path d="M207.5,288.23c-27.01,0-28.69-19.77-30.04-35.78-.61-7.21-1.24-14.66-3.54-21.95-6.53-20.68-41.55-41.47-85.16-50.56-18.81-3.92-34.78-16.08-46.17-35.17-8.36-14.01-11.35-26.89-11.48-27.43-.98-4.31,1.71-8.6,6.02-9.58,4.31-.99,8.59,1.71,9.57,6.01h0c.03.11,2.68,11.31,9.85,23.18,9.14,15.13,21.07,24.33,35.47,27.33,21.94,4.57,43.23,12.39,59.97,22.03,19.79,11.4,32.65,25.01,37.19,39.38,2.84,8.99,3.58,17.72,4.23,25.42,1.53,18.02,2.33,21.81,16.42,21.06,15.21-.8,35.07-20.52,42.5-42.2,4.14-12.09,6.03-29.13-8.48-41.66-21.62-18.67-16.89-40.7-13.44-56.78,1.52-7.06,2.95-13.73,1.69-17.89-.45-1.49-1.66-5.46-13.39-7.97-12.12-2.6-21.08-9.12-26.63-19.39-15.54-28.77,3.09-77.72,3.89-79.79,1.59-4.12,6.23-6.17,10.35-4.57,4.12,1.59,6.17,6.23,4.57,10.35-4.7,12.21-14.73,47.94-4.73,66.42,3.27,6.04,8.47,9.74,15.9,11.34,14.09,3.02,22.39,9.22,25.35,18.96,2.47,8.11.61,16.75-1.35,25.9-3.18,14.83-6.19,28.84,8.25,41.31,16.35,14.12,21.15,35.61,13.16,58.96-9.62,28.08-35.09,51.86-56.79,53-1.09.06-2.15.08-3.16.08Z" style="fill: #00c6c2; stroke-width: 0px;"/>
      <path d="M406.6,344.02c-1.61,0-3.25-.12-4.92-.37-10.03-1.48-20.09-7.49-27.59-16.5-7.95-9.55-12.63-21.92-13.17-34.85-1.05-25.15,3.61-33.76,8.11-42.08,3-5.53,5.82-10.76,7.12-22.98,1.38-13.04-6.27-20.11-14.37-27.6-7.56-6.99-17.91-16.55-9.86-29.97,7.1-11.83,29.02-19.58,44.89-24.37,17.21-5.2,32.89-8.24,33.55-8.37,4.34-.83,8.53,2,9.37,6.34.84,4.34-2,8.53-6.34,9.37-28.6,5.52-62.64,16.74-67.75,25.27-.93,1.55-1.36,2.26,7,9.98,8.62,7.97,21.65,20.01,19.42,41.04-1.63,15.36-5.52,22.55-8.96,28.9-3.79,7-7.06,13.05-6.2,33.8.65,15.58,11.19,33.84,27.1,36.18,8.21,1.21,14.28-3.16,17.57-12.64,1.45-4.17,6.01-6.39,10.18-4.94,4.17,1.45,6.38,6.01,4.94,10.18-5.17,14.9-16.45,23.59-30.1,23.6Z" style="fill: #00c6c2; stroke-width: 0px;"/>
      <path d="M329.33,431.59c-2.67,0-5.28-1.34-6.8-3.77-15.78-25.28-48.77-65.42-70.11-65.46h-.09c-14.89,0-29.46,7.94-43.56,15.62-15.84,8.63-30.81,16.78-46.79,14.78-17.42-2.18-20.63-16.98-23.22-28.88-3.09-14.21-5.75-26.49-26.2-30.28-41.18-7.63-67.62,12.46-68.72,13.32-3.48,2.7-8.5,2.09-11.22-1.37-2.72-3.47-2.13-8.47,1.33-11.2,1.32-1.04,32.94-25.47,81.53-16.48,30.91,5.72,35.73,27.92,38.92,42.61,2.71,12.49,4.12,15.72,9.57,16.4,10.87,1.37,23.64-5.59,37.15-12.96,15.12-8.24,32.25-17.57,51.21-17.57h.13c16.42.04,35.64,12.62,57.13,37.4,15.24,17.57,26.07,34.87,26.52,35.6,2.34,3.75,1.19,8.68-2.56,11.02-1.32.82-2.78,1.21-4.22,1.21Z" style="fill: #00c6c2; stroke-width: 0px;"/>
      <path d="M228.1,456.2c-60.93,0-118.21-23.73-161.29-66.81S0,289.02,0,228.1,23.73,109.89,66.81,66.81,167.17,0,228.1,0s118.21,23.73,161.29,66.81,66.81,100.36,66.81,161.29-23.73,118.21-66.81,161.29-100.36,66.81-161.29,66.81ZM228.1,16C111.15,16,16,111.15,16,228.1s95.15,212.1,212.1,212.1,212.1-95.15,212.1-212.1S345.05,16,228.1,16Z" style="fill: #fff; stroke-width: 0px;"/>
    </g>
  </g>
</svg>