<?xml version="1.0" encoding="UTF-8"?>
<svg id="Layer_2" data-name="Layer 2" xmlns="http://www.w3.org/2000/svg" viewBox="0 0 504.09 305.04">
  <g id="Layer_1-2" data-name="Layer 1">
    <g>
      <path d="M393.74,305.04H95.92C43.03,305.04,0,262.01,0,209.12c0-41.62,26.66-78.12,65.63-91.03-.1-1.75-.15-3.48-.15-5.17,0-52.89,43.03-95.92,95.92-95.92,23.63,0,46.47,8.82,63.97,24.47C248.14,15.36,281.5,0,316.33,0c23.26,0,45.84,6.64,65.3,19.21,3.71,2.4,4.78,7.35,2.38,11.06-2.4,3.71-7.35,4.78-11.06,2.38-16.87-10.89-36.44-16.65-56.62-16.65-33.34,0-63.91,15.36-83.87,42.14l-5.76,7.73-6.54-7.09c-15.1-16.38-36.52-25.78-58.77-25.78-44.07,0-79.92,35.85-79.92,79.92,0,3.25.21,6.52.65,10l.88,7-6.84,1.74c-35.42,9.01-60.16,40.86-60.16,77.45,0,44.07,35.85,79.92,79.92,79.92h297.82c44.07,0,79.92-35.85,79.92-79.92,0-15.7-4.55-30.89-13.15-43.93-2.43-3.69-1.42-8.65,2.27-11.08,3.69-2.43,8.65-1.42,11.08,2.27,10.33,15.66,15.8,33.9,15.8,52.74,0,52.89-43.03,95.92-95.92,95.92Z" style="fill: #052831; stroke-width: 0px;"/>
      <g>
        <path d="M394.54,149.2l-23.87-31.22c-2.68-3.51-2.01-8.53,1.5-11.21,3.51-2.69,8.53-2.01,11.21,1.5l11.27,14.74,53.76-69.11c2.71-3.49,7.74-4.11,11.23-1.4,3.49,2.71,4.12,7.74,1.4,11.23l-66.49,85.48Z" style="fill: #00c6c2; stroke-width: 0px;"/>
        <path d="M415.88,185.67c-48.64,0-88.22-39.58-88.22-88.22S367.23,9.23,415.88,9.23s88.22,39.58,88.22,88.22-39.58,88.22-88.22,88.22ZM415.88,25.23c-39.82,0-72.22,32.4-72.22,72.22s32.4,72.22,72.22,72.22,72.22-32.4,72.22-72.22-32.4-72.22-72.22-72.22Z" style="fill: #00c6c2; stroke-width: 0px;"/>
      </g>
    </g>
  </g>
</svg>