<?xml version="1.0" encoding="UTF-8"?>
<svg id="Layer_2" data-name="Layer 2" xmlns="http://www.w3.org/2000/svg" viewBox="0 0 480.25 488.33">
  <g id="Layer_1-2" data-name="Layer 1">
    <g>
      <path d="M455.93,401.74H24.32c-13.41,0-24.32-10.91-24.32-24.32v-242c0-13.41,10.91-24.32,24.32-24.32h431.61c13.41,0,24.32,10.91,24.32,24.32v242c0,13.41-10.91,24.32-24.32,24.32ZM24.32,127.1c-4.59,0-8.32,3.73-8.32,8.32v242c0,4.59,3.73,8.32,8.32,8.32h431.61c4.59,0,8.32-3.73,8.32-8.32v-242c0-4.59-3.73-8.32-8.32-8.32H24.32Z" style="fill: #052831; stroke-width: 0px;"/>
      <path d="M187.91,449.96c-4.42,0-8-3.58-8-8v-42.4c0-4.42,3.58-8,8-8s8,3.58,8,8v42.4c0,4.42-3.58,8-8,8Z" style="fill: #052831; stroke-width: 0px;"/>
      <path d="M292.34,449.96c-4.42,0-8-3.58-8-8v-42.4c0-4.42,3.58-8,8-8s8,3.58,8,8v42.4c0,4.42-3.58,8-8,8Z" style="fill: #052831; stroke-width: 0px;"/>
      <path d="M359.43,488.33H120.82v-47.68h238.61v47.68ZM136.82,472.33h206.61v-15.68h-206.61v15.68Z" style="fill: #052831; stroke-width: 0px;"/>
      <path d="M180.79,290.08h-52.41c-4.42,0-8-3.58-8-8v-51.32c0-4.42,3.58-8,8-8h52.41c4.42,0,8,3.58,8,8v51.32c0,4.42-3.58,8-8,8ZM136.38,274.08h36.41v-35.32h-36.41v35.32Z" style="fill: #00c6c2; stroke-width: 0px;"/>
      <path d="M266.33,290.08h-52.42c-4.42,0-8-3.58-8-8v-51.32c0-4.42,3.58-8,8-8h52.42c4.42,0,8,3.58,8,8v51.32c0,4.42-3.58,8-8,8ZM221.92,274.08h36.42v-35.32h-36.42v35.32Z" style="fill: #00c6c2; stroke-width: 0px;"/>
      <path d="M351.87,290.08h-52.41c-4.42,0-8-3.58-8-8v-51.32c0-4.42,3.58-8,8-8h52.41c4.42,0,8,3.58,8,8v51.32c0,4.42-3.58,8-8,8ZM307.45,274.08h36.41v-35.32h-36.41v35.32Z" style="fill: #00c6c2; stroke-width: 0px;"/>
      <path d="M119.19,67.32h-52.41c-4.42,0-8-3.58-8-8V8c0-4.42,3.58-8,8-8h52.41c4.42,0,8,3.58,8,8v51.32c0,4.42-3.58,8-8,8ZM74.77,51.32h36.41V16h-36.41v35.32Z" style="fill: #00c6c2; stroke-width: 0px;"/>
      <path d="M266.33,67.32h-52.42c-4.42,0-8-3.58-8-8V8c0-4.42,3.58-8,8-8h52.42c4.42,0,8,3.58,8,8v51.32c0,4.42-3.58,8-8,8ZM221.92,51.32h36.42V16h-36.42v35.32Z" style="fill: #00c6c2; stroke-width: 0px;"/>
      <path d="M413.48,67.32h-52.41c-4.42,0-8-3.58-8-8V8c0-4.42,3.58-8,8-8h52.41c4.42,0,8,3.58,8,8v51.32c0,4.42-3.58,8-8,8ZM369.06,51.32h36.41V16h-36.41v35.32Z" style="fill: #00c6c2; stroke-width: 0px;"/>
      <path d="M240.12,237.5c-4.42,0-8-3.58-8-8V61.14c0-4.42,3.58-8,8-8s8,3.58,8,8v168.36c0,4.42-3.58,8-8,8Z" style="fill: #00c6c2; stroke-width: 0px;"/>
      <path d="M153.14,237.5c-4.42,0-8-3.58-8-8V42.05h-23.93c-4.42,0-8-3.58-8-8s3.58-8,8-8h39.93v203.46c0,4.42-3.58,8-8,8Z" style="fill: #00c6c2; stroke-width: 0px;"/>
      <path d="M325.66,237.5c-4.42,0-8-3.58-8-8V32.82h38.67c4.42,0,8,3.58,8,8s-3.58,8-8,8h-22.67v180.68c0,4.42-3.58,8-8,8Z" style="fill: #00c6c2; stroke-width: 0px;"/>
    </g>
  </g>
</svg>