<?xml version="1.0" encoding="UTF-8"?>
<svg id="Layer_2" data-name="Layer 2" xmlns="http://www.w3.org/2000/svg" viewBox="0 0 475.44 462.21">
  <g id="Layer_1-2" data-name="Layer 1">
    <g>
      <path d="M73.19,327.55c-2.05,0-4.09-.78-5.66-2.34-3.12-3.12-3.12-8.19,0-11.31l55.12-55.12c23.18-23.18,54-35.94,86.78-35.94h102.45c20.95,0,37.99,17.04,37.99,37.99s-17.04,37.99-37.99,37.99h-85.34c-4.42,0-8-3.58-8-8s3.58-8,8-8h85.34c12.13,0,21.99-9.87,21.99-21.99s-9.87-21.99-21.99-21.99h-102.45c-28.51,0-55.31,11.1-75.47,31.26l-55.12,55.12c-1.56,1.56-3.61,2.34-5.66,2.34Z" style="fill: #fff; stroke-width: 0px;"/>
      <path d="M148.19,392.46l-11.31-11.31,21.72-21.72h127.27c25.41,0,49.61-9.58,68.14-26.97l98.55-92.49c8.76-8.22,9.23-22.07,1.05-30.87-4.01-4.32-9.47-6.8-15.36-6.98-5.89-.2-11.49,1.96-15.76,6.02l-78.61,74.12c-3.21,3.03-8.28,2.88-11.31-.33-3.03-3.21-2.88-8.28.33-11.31l78.58-74.09c7.37-7.01,17.06-10.7,27.26-10.39,10.2.31,19.64,4.6,26.59,12.08,14.16,15.23,13.34,39.2-1.82,53.43l-98.55,92.49c-21.51,20.18-49.59,31.3-79.09,31.3h-120.65l-17.04,17.04Z" style="fill: #fff; stroke-width: 0px;"/>
      <path d="M99.99,462.21c-5.26,0-10.52-2-14.53-6.01L6.01,376.75c-8.01-8.01-8.01-21.05,0-29.06l38.31-38.31c3.88-3.88,9.04-6.02,14.53-6.02s10.65,2.14,14.53,6.02l79.45,79.45c8.01,8.01,8.01,21.05,0,29.06h0s-38.3,38.31-38.3,38.31c-4.01,4.01-9.27,6.01-14.53,6.01ZM58.85,319.36c-1.22,0-2.36.47-3.22,1.33l-38.3,38.3c-1.77,1.77-1.77,4.66,0,6.44l79.45,79.45c.86.86,2,1.33,3.22,1.33s2.36-.47,3.22-1.33l38.3-38.3c1.77-1.77,1.77-4.66,0-6.44l-79.45-79.45c-.86-.86-2-1.33-3.22-1.33ZM147.17,412.24h.01-.01Z" style="fill: #fff; stroke-width: 0px;"/>
      <path d="M355.03,65.15c-17.96,0-32.58-14.61-32.58-32.58S337.07,0,355.03,0s32.58,14.61,32.58,32.58-14.61,32.58-32.58,32.58ZM355.03,16c-9.14,0-16.58,7.44-16.58,16.58s7.44,16.58,16.58,16.58,16.58-7.44,16.58-16.58-7.44-16.58-16.58-16.58Z" style="fill: #00c6c2; stroke-width: 0px;"/>
      <path d="M355.03,194.57c-17.96,0-32.58-14.61-32.58-32.58s14.61-32.58,32.58-32.58,32.58,14.61,32.58,32.58-14.61,32.58-32.58,32.58ZM355.03,145.42c-9.14,0-16.58,7.44-16.58,16.58s7.44,16.58,16.58,16.58,16.58-7.44,16.58-16.58-7.44-16.58-16.58-16.58Z" style="fill: #00c6c2; stroke-width: 0px;"/>
      <path d="M132.34,65.15c-17.96,0-32.58-14.61-32.58-32.58S114.38,0,132.34,0s32.58,14.61,32.58,32.58-14.61,32.58-32.58,32.58ZM132.34,16c-9.14,0-16.58,7.44-16.58,16.58s7.44,16.58,16.58,16.58,16.58-7.44,16.58-16.58-7.44-16.58-16.58-16.58Z" style="fill: #00c6c2; stroke-width: 0px;"/>
      <path d="M132.34,194.57c-17.96,0-32.58-14.61-32.58-32.58s14.61-32.58,32.58-32.58,32.58,14.61,32.58,32.58-14.61,32.58-32.58,32.58ZM132.34,145.42c-9.14,0-16.58,7.44-16.58,16.58s7.44,16.58,16.58,16.58,16.58-7.44,16.58-16.58-7.44-16.58-16.58-16.58Z" style="fill: #00c6c2; stroke-width: 0px;"/>
      <path d="M297.26,158.87h-107.16c-4.42,0-8-3.58-8-8V43.71c0-4.42,3.58-8,8-8h107.16c4.42,0,8,3.58,8,8v107.16c0,4.42-3.58,8-8,8ZM198.1,142.87h91.16V51.71h-91.16v91.16Z" style="fill: #00c6c2; stroke-width: 0px;"/>
      <path d="M190.1,89.02h-65.76v-31.87c0-4.42,3.58-8,8-8s8,3.58,8,8v15.87h49.76c4.42,0,8,3.58,8,8s-3.58,8-8,8Z" style="fill: #00c6c2; stroke-width: 0px;"/>
      <path d="M132.34,145.42c-4.42,0-8-3.58-8-8v-31.87h65.76c4.42,0,8,3.58,8,8s-3.58,8-8,8h-49.76v15.87c0,4.42-3.58,8-8,8Z" style="fill: #00c6c2; stroke-width: 0px;"/>
      <path d="M355.03,105.29h-57.76c-4.42,0-8-3.58-8-8s3.58-8,8-8h57.76c4.42,0,8,3.58,8,8s-3.58,8-8,8Z" style="fill: #00c6c2; stroke-width: 0px;"/>
      <path d="M355.03,140.8c-4.42,0-8-3.58-8-8V57.15c0-4.42,3.58-8,8-8s8,3.58,8,8v75.65c0,4.42-3.58,8-8,8Z" style="fill: #00c6c2; stroke-width: 0px;"/>
      <path d="M268.69,130.29h-50.02c-4.42,0-8-3.58-8-8v-50.01c0-4.42,3.58-8,8-8h50.02c4.42,0,8,3.58,8,8v50.01c0,4.42-3.58,8-8,8ZM226.68,114.29h34.02v-34.01h-34.02v34.01Z" style="fill: #00c6c2; stroke-width: 0px;"/>
    </g>
  </g>
</svg>