<?xml version="1.0" encoding="UTF-8"?>
<svg id="Layer_2" data-name="Layer 2" xmlns="http://www.w3.org/2000/svg" viewBox="0 0 528.65 414.89">
  <g id="Layer_1-2" data-name="Layer 1">
    <g>
      <path d="M504.33,319.27h-61.1c-4.42,0-8-3.58-8-8s3.58-8,8-8h61.1c4.59,0,8.32-3.73,8.32-8.32V24.32c0-4.59-3.73-8.32-8.32-8.32H24.32c-4.59,0-8.32,3.73-8.32,8.32v270.63c0,4.59,3.73,8.32,8.32,8.32h365.66c4.42,0,8,3.58,8,8s-3.58,8-8,8H24.32c-13.41,0-24.32-10.91-24.32-24.32V24.32C0,10.91,10.91,0,24.32,0h480.01c13.41,0,24.32,10.91,24.32,24.32v270.63c0,13.41-10.91,24.32-24.32,24.32Z" style="fill: #fff; stroke-width: 0px;"/>
      <path d="M206.67,372.51c-4.42,0-8-3.58-8-8v-46.82c0-4.42,3.58-8,8-8s8,3.58,8,8v46.82c0,4.42-3.58,8-8,8Z" style="fill: #fff; stroke-width: 0px;"/>
      <path d="M321.98,372.51c-4.42,0-8-3.58-8-8v-46.82c0-4.42,3.58-8,8-8s8,3.58,8,8v46.82c0,4.42-3.58,8-8,8Z" style="fill: #fff; stroke-width: 0px;"/>
      <path d="M395.23,414.89H133.42v-50.98h261.82v50.98ZM149.42,398.89h229.82v-18.98h-229.82v18.98Z" style="fill: #fff; stroke-width: 0px;"/>
      <path d="M132.29,243c-14.91,0-27.04-12.13-27.04-27.04s12.13-27.04,27.04-27.04,27.04,12.13,27.04,27.04-12.13,27.04-27.04,27.04ZM132.29,204.92c-6.09,0-11.04,4.95-11.04,11.04s4.95,11.04,11.04,11.04,11.04-4.95,11.04-11.04-4.95-11.04-11.04-11.04Z" style="fill: #fff; stroke-width: 0px;"/>
      <path d="M220.32,130.35c-14.91,0-27.04-12.13-27.04-27.04s12.13-27.04,27.04-27.04,27.04,12.13,27.04,27.04-12.13,27.04-27.04,27.04ZM220.32,92.27c-6.09,0-11.04,4.95-11.04,11.04s4.95,11.04,11.04,11.04,11.04-4.95,11.04-11.04-4.95-11.04-11.04-11.04Z" style="fill: #fff; stroke-width: 0px;"/>
      <path d="M308.33,221.81c-14.91,0-27.04-12.13-27.04-27.04s12.13-27.04,27.04-27.04,27.04,12.13,27.04,27.04-12.13,27.04-27.04,27.04ZM308.33,183.74c-6.09,0-11.04,4.95-11.04,11.04s4.95,11.04,11.04,11.04,11.04-4.95,11.04-11.04-4.95-11.04-11.04-11.04Z" style="fill: #fff; stroke-width: 0px;"/>
      <path d="M396.36,175.35c-14.91,0-27.04-12.13-27.04-27.04s12.13-27.04,27.04-27.04,27.04,12.13,27.04,27.04-12.13,27.04-27.04,27.04ZM396.36,137.27c-6.09,0-11.04,4.95-11.04,11.04s4.95,11.04,11.04,11.04,11.04-4.95,11.04-11.04-4.95-11.04-11.04-11.04Z" style="fill: #fff; stroke-width: 0px;"/>
      <path d="M293.78,187.65c-2.1,0-4.19-.82-5.77-2.45l-59.11-61.42c-3.06-3.18-2.97-8.25.22-11.31,3.18-3.06,8.25-2.97,11.31.22l59.11,61.42c3.06,3.18,2.97,8.25-.22,11.31-1.55,1.49-3.55,2.24-5.55,2.24Z" style="fill: #fff; stroke-width: 0px;"/>
      <path d="M325.52,193.71c-2.87,0-5.65-1.55-7.08-4.27-2.06-3.91-.57-8.75,3.34-10.81l52.83-27.89c3.91-2.06,8.75-.57,10.81,3.34,2.06,3.91.57,8.75-3.34,10.81l-52.83,27.89c-1.19.63-2.47.93-3.73.93Z" style="fill: #fff; stroke-width: 0px;"/>
      <path d="M143.99,208.99c-1.72,0-3.46-.55-4.92-1.7-3.48-2.72-4.1-7.75-1.38-11.23l64.13-82.07c2.72-3.48,7.75-4.1,11.23-1.38,3.48,2.72,4.1,7.75,1.38,11.23l-64.13,82.07c-1.58,2.02-3.93,3.07-6.31,3.07Z" style="fill: #fff; stroke-width: 0px;"/>
      <path d="M442.14,388.69c-11.07,0-21.7-6.23-26.78-16.86l-48.67-102.04c-1.9-3.99-.21-8.76,3.78-10.67,3.99-1.9,8.76-.21,10.67,3.78l48.67,102.04c3.23,6.78,11.38,9.66,18.15,6.43,3.28-1.57,5.76-4.32,6.97-7.74,1.21-3.43,1.02-7.12-.55-10.41l-48.67-102.04c-1.9-3.99-.21-8.76,3.78-10.67,3.99-1.9,8.76-.21,10.67,3.78l48.67,102.04c3.41,7.14,3.83,15.18,1.19,22.63-2.64,7.46-8.03,13.44-15.17,16.84-4.1,1.96-8.44,2.88-12.7,2.88Z" style="fill: #00c6c2; stroke-width: 0px;"/>
      <path d="M350.11,273.51c-40.22,0-78.88-22.63-97.32-61.29-12.38-25.95-13.91-55.17-4.31-82.27,9.6-27.1,29.17-48.84,55.12-61.22,25.95-12.38,55.17-13.91,82.27-4.31,27.1,9.6,48.84,29.17,61.22,55.12s13.91,55.17,4.31,82.27c-9.6,27.1-29.17,48.85-55.12,61.22-14.91,7.11-30.66,10.48-46.17,10.48ZM349.87,74.2c-13.47,0-26.87,3.01-39.39,8.98-45.61,21.75-65.01,76.56-43.26,122.16,15.7,32.91,48.61,52.18,82.85,52.18,13.21,0,26.61-2.87,39.31-8.92,22.09-10.54,38.76-29.05,46.93-52.12s6.87-47.95-3.67-70.04-29.05-38.76-52.12-46.93c-10-3.54-20.35-5.3-30.65-5.3Z" style="fill: #00c6c2; stroke-width: 0px;"/>
    </g>
  </g>
</svg>