<?xml version="1.0" encoding="UTF-8"?>
<svg id="Layer_2" data-name="Layer 2" xmlns="http://www.w3.org/2000/svg" viewBox="0 0 483.67 366.75">
  <g id="Layer_1-2" data-name="Layer 1">
    <g>
      <path d="M213.7,299.41l-47.34-45.05c-3.2-3.05-3.33-8.11-.28-11.31,3.05-3.2,8.11-3.33,11.31-.28l34.07,32.42,93.85-129.85c2.59-3.58,7.59-4.39,11.17-1.8,3.58,2.59,4.39,7.59,1.8,11.17l-104.58,144.7Z" style="fill: #00c6c2; stroke-width: 0px;"/>
      <path d="M440.24,366.75H43.43c-23.95,0-43.43-19.48-43.43-43.43V43.43C0,19.48,19.48,0,43.43,0h396.81c23.95,0,43.43,19.48,43.43,43.43v279.89c0,23.95-19.48,43.43-43.43,43.43ZM43.43,16c-15.13,0-27.43,12.31-27.43,27.43v279.89c0,15.13,12.31,27.43,27.43,27.43h396.81c15.13,0,27.43-12.31,27.43-27.43V43.43c0-15.13-12.31-27.43-27.43-27.43H43.43Z" style="fill: #fff; stroke-width: 0px;"/>
      <path d="M473.15,95.61H8.48c-4.42,0-8-3.58-8-8s3.58-8,8-8h464.68c4.42,0,8,3.58,8,8s-3.58,8-8,8Z" style="fill: #fff; stroke-width: 0px;"/>
      <circle cx="52.38" cy="49.56" r="12.84" style="fill: #fff; stroke-width: 0px;"/>
      <circle cx="89.69" cy="49.56" r="12.84" style="fill: #fff; stroke-width: 0px;"/>
      <circle cx="126.99" cy="49.56" r="12.84" style="fill: #fff; stroke-width: 0px;"/>
    </g>
  </g>
</svg>