<?xml version="1.0" encoding="UTF-8"?>
<svg id="Layer_2" data-name="Layer 2" xmlns="http://www.w3.org/2000/svg" viewBox="0 0 257.82 483.46">
  <g id="Layer_1-2" data-name="Layer 1">
    <g>
      <path d="M194.81,483.46H63c-34.74,0-63-28.26-63-63V63C0,28.26,28.26,0,63,0h131.81c34.74,0,63,28.26,63,63v357.46c0,34.74-28.26,63-63,63ZM63,16c-25.92,0-47,21.09-47,47v357.46c0,25.92,21.09,47,47,47h131.81c25.92,0,47-21.09,47-47V63c0-25.92-21.09-47-47-47H63Z" style="fill: #fff; stroke-width: 0px;"/>
      <path d="M249.82,66.46H8c-4.42,0-8-3.58-8-8s3.58-8,8-8h241.82c4.42,0,8,3.58,8,8s-3.58,8-8,8Z" style="fill: #fff; stroke-width: 0px;"/>
      <path d="M249.82,433H8c-4.42,0-8-3.58-8-8s3.58-8,8-8h241.82c4.42,0,8,3.58,8,8s-3.58,8-8,8Z" style="fill: #fff; stroke-width: 0px;"/>
      <g>
        <g>
          <rect x="52.85" y="165.67" width="61.66" height="61.66" style="fill: #00c6c2; stroke-width: 0px;"/>
          <path d="M114.51,235.33h-61.66c-4.42,0-8-3.58-8-8v-61.66c0-4.42,3.58-8,8-8h61.66c4.42,0,8,3.58,8,8v61.66c0,4.42-3.58,8-8,8ZM60.85,219.33h45.66v-45.66h-45.66v45.66Z" style="fill: #00c6c2; stroke-width: 0px;"/>
        </g>
        <path d="M204.97,235.33h-61.66c-4.42,0-8-3.58-8-8v-61.66c0-4.42,3.58-8,8-8h61.66c4.42,0,8,3.58,8,8v61.66c0,4.42-3.58,8-8,8ZM151.31,219.33h45.66v-45.66h-45.66v45.66Z" style="fill: #00c6c2; stroke-width: 0px;"/>
        <path d="M114.51,325.79h-61.66c-4.42,0-8-3.58-8-8v-61.66c0-4.42,3.58-8,8-8h61.66c4.42,0,8,3.58,8,8v61.66c0,4.42-3.58,8-8,8ZM60.85,309.79h45.66v-45.66h-45.66v45.66Z" style="fill: #00c6c2; stroke-width: 0px;"/>
        <path d="M204.97,325.79h-61.66c-4.42,0-8-3.58-8-8v-61.66c0-4.42,3.58-8,8-8h61.66c4.42,0,8,3.58,8,8v61.66c0,4.42-3.58,8-8,8ZM151.31,309.79h45.66v-45.66h-45.66v45.66Z" style="fill: #00c6c2; stroke-width: 0px;"/>
      </g>
    </g>
  </g>
</svg>