<?xml version="1.0" encoding="UTF-8"?>
<svg id="Layer_2" data-name="Layer 2" xmlns="http://www.w3.org/2000/svg" viewBox="0 0 238.4 513.13">
  <g id="Layer_1-2" data-name="Layer 1">
    <g>
      <path d="M187.98,248.25H0V60.27h187.98v187.98ZM16,232.25h155.98V76.27H16v155.98Z" style="fill: #fff; stroke-width: 0px;"/>
      <path d="M98.73,185.28h-.03c-2.48-.01-4.82-1.17-6.32-3.14l-38.48-50.32c-2.68-3.51-2.01-8.53,1.5-11.21,3.51-2.68,8.53-2.01,11.21,1.5l32.18,42.08L224.09,3.09c2.71-3.49,7.74-4.11,11.23-1.4,3.49,2.71,4.12,7.74,1.4,11.23L105.04,182.2c-1.52,1.95-3.85,3.09-6.31,3.09Z" style="fill: #00c6c2; stroke-width: 0px;"/>
      <path d="M187.98,513.13H0v-187.98h187.98v187.98ZM16,497.13h155.98v-155.98H16v155.98Z" style="fill: #fff; stroke-width: 0px;"/>
      <path d="M98.73,450.16h-.03c-2.48-.01-4.82-1.17-6.32-3.14l-38.48-50.32c-2.68-3.51-2.01-8.53,1.5-11.21,3.51-2.68,8.53-2.01,11.21,1.5l32.18,42.08,125.31-161.1c2.71-3.49,7.74-4.11,11.23-1.4,3.49,2.71,4.12,7.74,1.4,11.23l-131.67,169.28c-1.52,1.95-3.85,3.09-6.31,3.09Z" style="fill: #00c6c2; stroke-width: 0px;"/>
    </g>
  </g>
</svg>