<?xml version="1.0" encoding="UTF-8"?>
<svg id="Layer_2" data-name="Layer 2" xmlns="http://www.w3.org/2000/svg" viewBox="0 0 475.56 462.87">
  <g id="Layer_1-2" data-name="Layer 1">
    <g>
      <path d="M269.28,370.19l-20.87-34.7h-21.27l-20.87,34.7-5.84-1.59c-11.63-3.16-22.82-7.79-33.26-13.78l-5.25-3.01,9.78-39.28-15.04-15.04-39.28,9.78-3.01-5.24c-5.98-10.44-10.62-21.63-13.78-33.26l-1.58-5.84,34.7-20.87v-21.27l-34.7-20.86,1.58-5.84c3.16-11.63,7.79-22.82,13.78-33.26l3.01-5.24,39.28,9.78,15.04-15.04-9.78-39.28,5.25-3.01c10.44-5.98,21.63-10.62,33.26-13.78l5.84-1.59,20.87,34.7h21.27l20.87-34.7,5.84,1.59c11.63,3.16,22.82,7.79,33.26,13.78l5.25,3.01-9.78,39.28,15.04,15.04,39.28-9.78,3.01,5.24c5.98,10.44,10.62,21.63,13.78,33.26l1.58,5.84-34.7,20.86v21.27l34.7,20.87-1.58,5.84c-3.16,11.63-7.79,22.82-13.78,33.26l-3.01,5.24-39.28-9.78-15.04,15.04,9.78,39.28-5.25,3.01c-10.44,5.98-21.63,10.62-33.26,13.78l-5.84,1.59ZM180.42,343.8c5.93,3.03,12.11,5.59,18.45,7.65l19.22-31.96h39.37l19.22,31.96c6.35-2.05,12.52-4.61,18.45-7.65l-9.01-36.19,27.84-27.84,36.19,9.01c3.03-5.93,5.59-12.11,7.64-18.45l-31.96-19.22v-39.37l31.96-19.22c-2.05-6.35-4.61-12.52-7.65-18.45l-36.18,9.01-27.84-27.84,9.01-36.19c-5.93-3.03-12.11-5.59-18.45-7.65l-19.22,31.96h-39.37l-19.22-31.96c-6.35,2.05-12.52,4.61-18.45,7.65l9.01,36.19-27.84,27.84-36.18-9.01c-3.03,5.93-5.59,12.11-7.65,18.45l31.96,19.22v39.37l-31.96,19.22c2.05,6.35,4.61,12.52,7.64,18.45l36.19-9.01,27.84,27.84-9.01,36.19ZM141.72,246.59h0,0Z" style="fill: #052831; stroke-width: 0px;"/>
      <path d="M237.78,288.48c-31.45,0-57.04-25.59-57.04-57.04s25.59-57.04,57.04-57.04,57.04,25.59,57.04,57.04-25.59,57.04-57.04,57.04ZM237.78,190.39c-22.63,0-41.04,18.41-41.04,41.04s18.41,41.04,41.04,41.04,41.04-18.41,41.04-41.04-18.41-41.04-41.04-41.04Z" style="fill: #052831; stroke-width: 0px;"/>
      <path d="M237.78,462.87c-105.36,0-197.46-71.13-223.98-172.97-1.11-4.28,1.45-8.64,5.73-9.76,4.28-1.11,8.64,1.45,9.76,5.73,24.68,94.79,110.41,161,208.49,161,57.54,0,111.64-22.41,152.33-63.1,40.69-40.69,63.1-94.79,63.1-152.33,0-1.59-.03-3.17-.06-4.75-.09-4.42,3.41-8.08,7.83-8.17.06,0,.12,0,.17,0,4.34,0,7.9,3.47,8,7.83.04,1.69.06,3.39.06,5.09,0,61.82-24.07,119.94-67.79,163.65s-101.83,67.79-163.65,67.79Z" style="fill: #00c6c2; stroke-width: 0px;"/>
      <path d="M14.4,244.35c-4.34,0-7.9-3.47-8-7.83-.04-1.69-.06-3.39-.06-5.09,0-61.82,24.07-119.94,67.79-163.65S175.96,0,237.78,0c105.36,0,197.46,71.13,223.98,172.97,1.11,4.28-1.45,8.64-5.73,9.76-4.28,1.11-8.64-1.45-9.76-5.73-24.68-94.8-110.41-161-208.49-161-57.54,0-111.64,22.41-152.33,63.1-40.69,40.69-63.1,94.79-63.1,152.33,0,1.59.03,3.17.06,4.75.09,4.42-3.41,8.08-7.83,8.17-.06,0-.12,0-.17,0Z" style="fill: #00c6c2; stroke-width: 0px;"/>
      <path d="M457.43,185.77l-33.21-17.22c-3.92-2.03-5.45-6.86-3.42-10.78,2.03-3.92,6.86-5.45,10.78-3.42l19.02,9.86,9.86-18.97c2.04-3.92,6.86-5.45,10.79-3.41,3.92,2.04,5.45,6.87,3.41,10.79l-17.23,33.16Z" style="fill: #00c6c2; stroke-width: 0px;"/>
      <path d="M7.99,321.94c-1.24,0-2.5-.29-3.68-.9-3.92-2.04-5.45-6.87-3.41-10.79l17.23-33.16,33.21,17.23c3.92,2.03,5.45,6.86,3.42,10.78-2.03,3.92-6.86,5.45-10.79,3.42l-19.02-9.86-9.86,18.97c-1.42,2.74-4.21,4.31-7.11,4.31Z" style="fill: #00c6c2; stroke-width: 0px;"/>
    </g>
  </g>
</svg>