<?xml version="1.0" encoding="UTF-8"?>
<svg id="Layer_2" data-name="Layer 2" xmlns="http://www.w3.org/2000/svg" viewBox="0 0 396.29 390.91">
  <g id="Layer_1-2" data-name="Layer 1">
    <g>
      <path d="M338.04,390.91c-4.42,0-8-3.58-8-8,0-15.65-2.29-31.09-6.82-45.91-1.29-4.23,1.09-8.7,5.32-9.99,4.23-1.29,8.7,1.09,9.99,5.32,4.99,16.33,7.51,33.35,7.51,50.58,0,4.42-3.58,8-8,8Z" style="fill: #052831; stroke-width: 0px;"/>
      <path d="M8,390.91c-4.42,0-8-3.58-8-8,0-95.4,77.62-173.02,173.02-173.02,25.08,0,49.27,5.25,71.91,15.61,4.02,1.84,5.79,6.58,3.95,10.6-1.84,4.02-6.59,5.79-10.6,3.95-20.53-9.39-42.49-14.16-65.25-14.16-86.58,0-157.02,70.44-157.02,157.02,0,4.42-3.58,8-8,8Z" style="fill: #052831; stroke-width: 0px;"/>
      <path d="M173.02,182.91c-50.43,0-91.46-41.03-91.46-91.46S122.59,0,173.02,0s91.46,41.03,91.46,91.46-41.03,91.46-91.46,91.46ZM173.02,16c-41.61,0-75.46,33.85-75.46,75.46s33.85,75.46,75.46,75.46,75.46-33.85,75.46-75.46S214.63,16,173.02,16Z" style="fill: #052831; stroke-width: 0px;"/>
      <path d="M351.68,354.56c-1.65,0-3.3-.51-4.7-1.53l-54.53-39.62-54.53,39.62c-2.8,2.04-6.6,2.04-9.4,0-2.8-2.04-3.98-5.65-2.91-8.94l20.83-64.1-54.53-39.62c-2.8-2.04-3.98-5.65-2.91-8.94,1.07-3.3,4.14-5.53,7.61-5.53h67.4l20.83-64.1c1.07-3.3,4.14-5.53,7.61-5.53s6.54,2.23,7.61,5.53l20.83,64.1h67.4c3.47,0,6.54,2.23,7.61,5.53,1.07,3.3-.1,6.91-2.91,8.94l-54.53,39.62,20.83,64.1c1.07,3.3-.1,6.91-2.91,8.94-1.4,1.02-3.05,1.53-4.7,1.53ZM221.23,241.9l39.31,28.56c2.8,2.04,3.98,5.65,2.91,8.94l-15.02,46.21,39.31-28.56c2.8-2.04,6.6-2.04,9.4,0l39.31,28.56-15.02-46.21c-1.07-3.3.1-6.91,2.91-8.94l39.31-28.56h-48.59c-3.47,0-6.54-2.23-7.61-5.53l-15.02-46.21-15.02,46.21c-1.07,3.3-4.14,5.53-7.61,5.53h-48.59Z" style="fill: #00c6c2; stroke-width: 0px;"/>
    </g>
  </g>
</svg>