<?xml version="1.0" encoding="UTF-8"?>
<svg id="Layer_2" data-name="Layer 2" xmlns="http://www.w3.org/2000/svg" viewBox="0 0 476.9 449.28">
  <g id="Layer_1-2" data-name="Layer 1">
    <g>
      <path d="M291.15,317.89c-4.42,0-8-3.58-8-8,0-36.67-29.83-66.5-66.5-66.5s-66.5,29.83-66.5,66.5c0,4.42-3.58,8-8,8s-8-3.58-8-8c0-45.49,37.01-82.5,82.5-82.5s82.5,37.01,82.5,82.5c0,4.42-3.58,8-8,8Z" style="fill: #052831; stroke-width: 0px;"/>
      <path d="M216.64,214.71c-25.19,0-45.68-20.49-45.68-45.68s20.49-45.68,45.68-45.68,45.68,20.49,45.68,45.68-20.49,45.68-45.68,45.68ZM216.64,139.35c-16.36,0-29.68,13.31-29.68,29.68s13.31,29.68,29.68,29.68,29.68-13.31,29.68-29.68-13.31-29.68-29.68-29.68Z" style="fill: #052831; stroke-width: 0px;"/>
      <path d="M476.9,426.56H170.87v-91.86c0-4.42,3.58-8,8-8s8,3.58,8,8v75.86h274.03V95.07l-79.07-79.07h-194.96v75.51c0,4.42-3.58,8-8,8s-8-3.58-8-8V0h217.59l88.44,88.44v338.12Z" style="fill: #052831; stroke-width: 0px;"/>
      <path d="M468.9,99.75h-83.75c-4.42,0-8-3.58-8-8V8c0-3.24,1.95-6.15,4.94-7.39,2.99-1.24,6.43-.55,8.72,1.73l83.75,83.75c2.29,2.29,2.97,5.73,1.73,8.72s-4.16,4.94-7.39,4.94ZM393.15,83.75h56.44l-56.44-56.44v56.44Z" style="fill: #052831; stroke-width: 0px;"/>
      <path d="M35.11,449.28c-8.77,0-17.1-3.22-23.63-9.16-14.34-13.05-15.38-35.33-2.33-49.67l95.64-105.06c2.97-3.27,8.03-3.51,11.3-.53,3.27,2.97,3.5,8.03.53,11.3l-95.64,105.06c-7.11,7.81-6.54,19.96,1.27,27.07,3.79,3.45,8.68,5.21,13.8,4.97,5.11-.24,9.83-2.46,13.27-6.24l95.64-105.06c2.97-3.27,8.03-3.5,11.3-.53s3.5,8.03.53,11.3l-95.64,105.06c-6.32,6.95-14.97,11.01-24.35,11.45-.56.03-1.13.04-1.69.04Z" style="fill: #00c6c2; stroke-width: 0px;"/>
      <path d="M216.08,348.42c-33.22,0-64.8-12.19-89.53-34.71-54.32-49.45-58.28-133.87-8.84-188.19,23.95-26.31,56.72-41.72,92.26-43.39,35.55-1.67,69.61,10.61,95.92,34.56,54.32,49.45,58.28,133.87,8.84,188.19-23.95,26.31-56.72,41.72-92.26,43.39-2.13.1-4.27.15-6.39.15ZM129.54,136.29c-43.51,47.79-40.02,122.08,7.77,165.59,23.15,21.08,53.13,31.87,84.4,30.41,31.27-1.47,60.11-15.03,81.18-38.18,43.51-47.79,40.02-122.08-7.78-165.59-23.15-21.08-53.13-31.87-84.4-30.41-31.27,1.47-60.1,15.03-81.18,38.18h0ZM123.63,130.91h0,0Z" style="fill: #00c6c2; stroke-width: 0px;"/>
    </g>
  </g>
</svg>