<?xml version="1.0" encoding="UTF-8"?>
<svg id="Layer_2" data-name="Layer 2" xmlns="http://www.w3.org/2000/svg" viewBox="0 0 550.95 476.32">
  <g id="Layer_1-2" data-name="Layer 1">
    <g>
      <path d="M129.83,476.32c-4.42,0-8-3.58-8-8,0-29.18-23.74-52.92-52.92-52.92s-52.92,23.74-52.92,52.92c0,4.42-3.58,8-8,8s-8-3.58-8-8c0-38,30.92-68.92,68.92-68.92s68.92,30.92,68.92,68.92c0,4.42-3.58,8-8,8Z" style="fill: #052831; stroke-width: 0px;"/>
      <path d="M68.92,391.46c-21.4,0-38.81-17.41-38.81-38.81s17.41-38.81,38.81-38.81,38.81,17.41,38.81,38.81-17.41,38.81-38.81,38.81ZM68.92,329.84c-12.58,0-22.81,10.23-22.81,22.81s10.23,22.81,22.81,22.81,22.81-10.23,22.81-22.81-10.23-22.81-22.81-22.81Z" style="fill: #052831; stroke-width: 0px;"/>
      <path d="M542.95,476.32c-4.42,0-8-3.58-8-8,0-29.18-23.74-52.92-52.92-52.92s-52.92,23.74-52.92,52.92c0,4.42-3.58,8-8,8s-8-3.58-8-8c0-38,30.92-68.92,68.92-68.92s68.92,30.92,68.92,68.92c0,4.42-3.58,8-8,8Z" style="fill: #052831; stroke-width: 0px;"/>
      <path d="M482.03,391.46c-21.4,0-38.81-17.41-38.81-38.81s17.41-38.81,38.81-38.81,38.81,17.41,38.81,38.81-17.41,38.81-38.81,38.81ZM482.03,329.84c-12.58,0-22.81,10.23-22.81,22.81s10.23,22.81,22.81,22.81,22.81-10.23,22.81-22.81-10.23-22.81-22.81-22.81Z" style="fill: #052831; stroke-width: 0px;"/>
      <path d="M336.39,162.48c-4.42,0-8-3.58-8-8,0-29.18-23.74-52.92-52.92-52.92s-52.92,23.74-52.92,52.92c0,4.42-3.58,8-8,8s-8-3.58-8-8c0-38,30.92-68.92,68.92-68.92s68.92,30.92,68.92,68.92c0,4.42-3.58,8-8,8Z" style="fill: #052831; stroke-width: 0px;"/>
      <path d="M275.47,77.61c-21.4,0-38.81-17.41-38.81-38.81S254.08,0,275.47,0s38.81,17.41,38.81,38.81-17.41,38.81-38.81,38.81ZM275.47,16c-12.58,0-22.81,10.23-22.81,22.81s10.23,22.81,22.81,22.81,22.81-10.23,22.81-22.81-10.23-22.81-22.81-22.81Z" style="fill: #052831; stroke-width: 0px;"/>
      <path d="M275.47,299.82c-4.42,0-8-3.58-8-8v-119.81c0-4.42,3.58-8,8-8s8,3.58,8,8v119.81c0,4.42-3.58,8-8,8Z" style="fill: #00c6c2; stroke-width: 0px;"/>
      <path d="M400.49,395.7c-1.7,0-3.41-.54-4.86-1.65l-120.15-92.15-120.15,92.15c-3.51,2.69-8.53,2.03-11.22-1.48-2.69-3.51-2.03-8.53,1.48-11.22l129.89-99.61,129.89,99.61c3.51,2.69,4.17,7.71,1.48,11.22-1.58,2.05-3.95,3.13-6.35,3.13Z" style="fill: #00c6c2; stroke-width: 0px;"/>
    </g>
  </g>
</svg>