<?xml version="1.0" encoding="UTF-8"?>
<svg id="Layer_2" data-name="Layer 2" xmlns="http://www.w3.org/2000/svg" viewBox="0 0 468.13 474.99">
  <g id="Layer_1-2" data-name="Layer 1">
    <g>
      <path d="M379.3,254.91c-4.42,0-8-3.58-8-8,0-52.93-43.06-95.99-95.99-95.99s-95.99,43.06-95.99,95.99c0,4.42-3.58,8-8,8s-8-3.58-8-8c0-61.75,50.24-111.99,111.99-111.99s111.99,50.24,111.99,111.99c0,4.42-3.58,8-8,8Z" style="fill: #00c6c2; stroke-width: 0px;"/>
      <path d="M275.31,121.19c-33.41,0-60.59-27.18-60.59-60.59S241.9,0,275.31,0s60.59,27.18,60.59,60.59-27.18,60.59-60.59,60.59ZM275.31,16c-24.59,0-44.59,20-44.59,44.59s20,44.59,44.59,44.59,44.59-20,44.59-44.59-20-44.59-44.59-44.59Z" style="fill: #00c6c2; stroke-width: 0px;"/>
      <path d="M72.08,342.53c-2.05,0-4.09-.78-5.66-2.34-3.12-3.12-3.12-8.19,0-11.31l54.26-54.26c22.84-22.84,53.21-35.42,85.5-35.42h100.84c20.69,0,37.52,16.83,37.52,37.52s-16.83,37.52-37.52,37.52h-84c-4.42,0-8-3.58-8-8s3.58-8,8-8h84c11.87,0,21.52-9.66,21.52-21.52s-9.66-21.52-21.52-21.52h-100.84c-28.03,0-54.37,10.91-74.19,30.73l-54.26,54.26c-1.56,1.56-3.61,2.34-5.66,2.34Z" style="fill: #052831; stroke-width: 0px;"/>
      <path d="M140.34,408.72c-2.05,0-4.09-.78-5.66-2.34-3.12-3.12-3.12-8.19,0-11.31l21.42-21.42h125.32c24.98,0,48.77-9.41,66.98-26.51l97-91.03c8.57-8.04,9.04-21.6,1.03-30.21-3.93-4.23-9.27-6.65-15.03-6.83-5.77-.17-11.24,1.91-15.42,5.89l-77.37,72.95c-3.21,3.03-8.28,2.88-11.31-.33-3.03-3.21-2.88-8.28.33-11.31l77.35-72.93c7.28-6.92,16.84-10.57,26.92-10.26,10.07.31,19.4,4.55,26.26,11.93,13.98,15.04,13.17,38.71-1.8,52.77l-97,91.03c-21.19,19.89-48.87,30.84-77.93,30.84h-118.7l-16.73,16.73c-1.56,1.56-3.61,2.34-5.66,2.34Z" style="fill: #052831; stroke-width: 0px;"/>
      <path d="M98.47,474.99c-5.49,0-10.65-2.14-14.53-6.02L6.01,391.05c-8.01-8.01-8.01-21.05,0-29.06l37.42-37.42c8.01-8.01,21.05-8.01,29.06,0l77.93,77.92c8.01,8.01,8.01,21.05,0,29.06h0s-37.42,37.42-37.42,37.42c-3.88,3.88-9.04,6.02-14.53,6.02ZM57.96,334.55c-1.17,0-2.33.44-3.22,1.33l-37.42,37.42c-1.77,1.77-1.77,4.66,0,6.43l77.92,77.92c.86.86,2,1.33,3.22,1.33s2.36-.47,3.22-1.33l37.42-37.42c1.77-1.77,1.77-4.66,0-6.44l-77.92-77.92c-.89-.89-2.05-1.33-3.22-1.33ZM144.76,425.89h.01-.01Z" style="fill: #052831; stroke-width: 0px;"/>
    </g>
  </g>
</svg>