<?xml version="1.0" encoding="UTF-8"?>
<svg id="Layer_2" data-name="Layer 2" xmlns="http://www.w3.org/2000/svg" viewBox="0 0 679.49 218.49">
  <g id="Layer_1-2" data-name="Layer 1">
    <g>
      <path d="M553.1,218.49c-3.68,0-6.99-2.55-7.81-6.29-3.89-17.78-13.86-33.94-28.06-45.5-14.4-11.73-32.58-18.18-51.19-18.18s-34.7,5.66-48.86,16.36c-3.52,2.66-8.54,1.97-11.21-1.56-2.66-3.52-1.97-8.54,1.56-11.21,16.96-12.82,37.19-19.6,58.51-19.6s44.05,7.73,61.29,21.78c16.99,13.84,28.92,33.19,33.59,54.49.95,4.32-1.79,8.58-6.1,9.53-.58.13-1.15.19-1.72.19Z" style="fill: #00c6c2; stroke-width: 0px;"/>
      <path d="M126.39,218.49c-.57,0-1.14-.06-1.72-.19-4.32-.94-7.05-5.21-6.1-9.53,4.66-21.3,16.59-40.65,33.59-54.49,17.24-14.04,39.01-21.78,61.29-21.78,20.77,0,40.58,6.46,57.3,18.7,3.57,2.61,4.34,7.61,1.73,11.18-2.61,3.57-7.61,4.34-11.18,1.73-13.95-10.21-30.5-15.61-47.85-15.61-18.61,0-36.79,6.46-51.19,18.18-14.2,11.57-24.17,27.73-28.06,45.5-.82,3.74-4.13,6.29-7.81,6.29Z" style="fill: #00c6c2; stroke-width: 0px;"/>
      <path d="M466.04,125.3c-29.27,0-53.08-23.81-53.08-53.08s23.81-53.08,53.08-53.08,53.08,23.81,53.08,53.08-23.81,53.08-53.08,53.08ZM466.04,35.15c-20.44,0-37.08,16.63-37.08,37.08s16.63,37.08,37.08,37.08,37.08-16.63,37.08-37.08-16.63-37.08-37.08-37.08Z" style="fill: #00c6c2; stroke-width: 0px;"/>
      <path d="M213.44,125.3c-29.27,0-53.08-23.81-53.08-53.08s23.81-53.08,53.08-53.08,53.08,23.81,53.08,53.08-23.81,53.08-53.08,53.08ZM213.44,35.15c-20.44,0-37.08,16.63-37.08,37.08s16.63,37.08,37.08,37.08,37.08-16.63,37.08-37.08-16.63-37.08-37.08-37.08Z" style="fill: #00c6c2; stroke-width: 0px;"/>
      <path d="M671.48,218.49c-3.68,0-6.99-2.55-7.81-6.29-3.89-17.78-13.86-33.94-28.06-45.5-14.4-11.73-32.58-18.18-51.19-18.18s-34.7,5.66-48.86,16.36c-3.52,2.66-8.54,1.97-11.21-1.56-2.66-3.52-1.97-8.54,1.56-11.21,16.96-12.82,37.19-19.6,58.51-19.6s44.05,7.73,61.29,21.78c16.99,13.84,28.92,33.19,33.59,54.49.95,4.32-1.79,8.58-6.1,9.53-.58.13-1.15.19-1.72.19Z" style="fill: #00c6c2; stroke-width: 0px;"/>
      <path d="M584.43,125.3c-29.27,0-53.08-23.81-53.08-53.08s23.81-53.08,53.08-53.08,53.08,23.81,53.08,53.08-23.81,53.08-53.08,53.08ZM584.43,35.15c-20.44,0-37.08,16.63-37.08,37.08s16.63,37.08,37.08,37.08,37.08-16.63,37.08-37.08-16.63-37.08-37.08-37.08Z" style="fill: #00c6c2; stroke-width: 0px;"/>
      <path d="M8.01,218.49c-.57,0-1.14-.06-1.72-.19-4.32-.94-7.05-5.21-6.1-9.53,4.66-21.3,16.59-40.65,33.59-54.49,17.24-14.04,39.01-21.78,61.29-21.78,20.77,0,40.58,6.46,57.3,18.7,3.57,2.61,4.34,7.61,1.73,11.18-2.61,3.56-7.61,4.34-11.18,1.73-13.95-10.21-30.5-15.61-47.85-15.61-18.61,0-36.79,6.46-51.19,18.18-14.2,11.57-24.17,27.73-28.06,45.5-.82,3.74-4.13,6.29-7.81,6.29Z" style="fill: #00c6c2; stroke-width: 0px;"/>
      <path d="M95.06,125.3c-29.27,0-53.08-23.81-53.08-53.08s23.81-53.08,53.08-53.08,53.08,23.81,53.08,53.08-23.81,53.08-53.08,53.08ZM95.06,35.15c-20.44,0-37.08,16.63-37.08,37.08s16.63,37.08,37.08,37.08,37.08-16.63,37.08-37.08-16.63-37.08-37.08-37.08Z" style="fill: #00c6c2; stroke-width: 0px;"/>
      <path d="M428.87,218.49c-4.42,0-8-3.58-8-8,0-44.73-36.39-81.13-81.13-81.13s-81.13,36.39-81.13,81.13c0,4.42-3.58,8-8,8s-8-3.58-8-8c0-53.56,43.57-97.13,97.13-97.13s97.13,43.57,97.13,97.13c0,4.42-3.58,8-8,8Z" style="fill: #052831; stroke-width: 0px;"/>
      <path d="M339.74,106.15c-29.27,0-53.08-23.81-53.08-53.08S310.48,0,339.74,0s53.08,23.81,53.08,53.08-23.81,53.08-53.08,53.08ZM339.74,16c-20.44,0-37.08,16.63-37.08,37.08s16.63,37.08,37.08,37.08,37.08-16.63,37.08-37.08-16.63-37.08-37.08-37.08Z" style="fill: #052831; stroke-width: 0px;"/>
    </g>
  </g>
</svg>