<?xml version="1.0" encoding="UTF-8"?>
<svg id="Layer_2" data-name="Layer 2" xmlns="http://www.w3.org/2000/svg" viewBox="0 0 565.93 326.37">
  <g id="Layer_1-2" data-name="Layer 1">
    <g>
      <path d="M421.43,220.18c-3.52,0-6.75-2.34-7.71-5.9-1.16-4.26,1.36-8.66,5.62-9.82.15-.04,16.89-4.79,28.8-17.2,15.02-15.65,36.35-21.87,37.25-22.13,4.25-1.21,8.68,1.25,9.89,5.49,1.21,4.24-1.24,8.67-5.48,9.89h0c-.18.05-18.15,5.37-30.12,17.83-15.06,15.69-35.29,21.32-36.15,21.56-.7.19-1.41.28-2.1.28Z" style="fill: #00c6c2; stroke-width: 0px;"/>
      <path d="M502.51,195.24c-9.64,0-18.39-6.62-20.67-16.41l-33.34-142.94c-2.66-11.4,4.45-22.83,15.85-25.49L506.55.56c5.52-1.29,11.21-.35,16.03,2.65,4.81,2.99,8.17,7.68,9.46,13.2l33.34,142.94c2.66,11.4-4.45,22.83-15.85,25.49l-42.2,9.84c-1.61.38-3.23.56-4.82.56ZM511.38,16.01c-.4,0-.8.05-1.2.14l-42.2,9.84c-2.81.65-4.56,3.47-3.9,6.27l33.34,142.94c.65,2.81,3.47,4.55,6.27,3.9l42.2-9.84c2.8-.65,4.55-3.47,3.9-6.27l-33.34-142.94c-.32-1.36-1.14-2.51-2.33-3.25-.84-.52-1.79-.79-2.75-.79Z" style="fill: #00c6c2; stroke-width: 0px;"/>
      <path d="M61.16,194.9c-2.8,0-5.59-.56-8.25-1.68l-39.92-16.84c-5.22-2.2-9.28-6.31-11.41-11.56-2.14-5.25-2.1-11.02.1-16.24L58.72,13.34c2.2-5.22,6.31-9.28,11.56-11.41s11.02-2.1,16.24.1l39.92,16.84c10.78,4.55,15.86,17.02,11.31,27.8l-57.04,135.24c-2.2,5.22-6.31,9.28-11.56,11.41-2.58,1.05-5.29,1.58-8,1.58ZM78.27,16.36c-.67,0-1.33.13-1.97.39-1.29.53-2.3,1.52-2.85,2.81L16.42,154.8c-.54,1.29-.55,2.71-.03,4s1.52,2.3,2.81,2.84h0s39.92,16.84,39.92,16.84c1.28.54,2.7.55,4,.03,1.29-.53,2.3-1.52,2.85-2.81L123.01,40.45c.54-1.29.55-2.71.03-4s-1.52-2.3-2.81-2.84l-39.92-16.84c-.65-.28-1.34-.41-2.03-.41Z" style="fill: #052831; stroke-width: 0px;"/>
      <path d="M129.11,54.3c-4.33,0-7.89-3.46-7.99-7.81-.1-4.42,3.39-8.08,7.81-8.19.51-.01,51.18-1.36,87.55-15.22,45.57-17.36,73.21-11.33,88.36-3.21,3.89,2.09,5.36,6.94,3.27,10.83-2.09,3.9-6.94,5.36-10.83,3.27-12.22-6.55-35.17-11.16-75.11,4.06-38.98,14.85-90.69,16.21-92.87,16.26-.06,0-.13,0-.19,0Z" style="fill: #052831; stroke-width: 0px;"/>
      <path d="M366.3,281.37c-.42,0-.84,0-1.26-.03-7.94-.33-15.27-3.73-20.65-9.57l-46.7-50.73c-2.99-3.25-2.78-8.31.47-11.3,3.25-2.99,8.31-2.78,11.3.47l46.7,50.73c5.13,5.58,13.84,5.94,19.42.8,2.75-2.53,4.32-5.98,4.43-9.71.11-3.73-1.26-7.27-3.86-9.95l-45.58-47.13c-3.07-3.18-2.99-8.24.19-11.31,3.18-3.07,8.24-2.99,11.31.19l45.58,47.13c5.62,5.81,8.58,13.46,8.35,21.54s-3.64,15.54-9.59,21.02c-5.54,5.1-12.64,7.86-20.12,7.86Z" style="fill: #052831; stroke-width: 0px;"/>
      <path d="M326.82,303.36c-8.1,0-16.18-3.25-22.09-9.67l-39.43-42.83c-2.99-3.25-2.78-8.31.47-11.3,3.25-2.99,8.31-2.78,11.3.47l39.43,42.83c2.54,2.75,5.99,4.36,9.73,4.51,3.74.15,7.32-1.16,10.07-3.69,5.69-5.23,6.05-14.12.82-19.8l-39.43-42.83c-2.99-3.25-2.78-8.31.47-11.3,3.25-2.99,8.31-2.78,11.3.47l39.43,42.83c11.21,12.18,10.42,31.2-1.75,42.41-5.76,5.3-13.05,7.92-20.32,7.92Z" style="fill: #052831; stroke-width: 0px;"/>
      <path d="M288.15,326.37c-8.1,0-16.18-3.25-22.09-9.67l-13.85-15.4c-2.95-3.28-2.69-8.34.6-11.3,3.28-2.95,8.34-2.69,11.3.6l13.79,15.33c5.17,5.62,14.05,5.98,19.74.75,2.75-2.54,4.36-5.99,4.51-9.73.15-3.74-1.16-7.32-3.69-10.07l-33.16-36.02c-2.99-3.25-2.78-8.31.47-11.3,3.25-2.99,8.31-2.78,11.3.47l33.16,36.02c5.43,5.9,8.24,13.56,7.91,21.57-.33,8.01-3.76,15.41-9.66,20.84-5.76,5.3-13.05,7.92-20.32,7.92Z" style="fill: #052831; stroke-width: 0px;"/>
      <path d="M404.6,257.63c-.11,0-.23,0-.34,0-8.17-.09-15.81-3.36-21.51-9.21l-52.15-53.47c-3.08-3.16-3.02-8.23.14-11.31,3.16-3.08,8.23-3.02,11.31.14l52.15,53.47c2.71,2.78,6.35,4.34,10.23,4.38,3.86.04,7.55-1.43,10.32-4.16,5.52-5.42,5.82-14.2.69-19.99l-90.8-102.32c-2.93-3.3-2.63-8.36.67-11.29,3.3-2.93,8.36-2.63,11.29.67l90.8,102.32c10.8,12.17,10.16,30.63-1.45,42.03-5.75,5.64-13.33,8.74-21.37,8.74Z" style="fill: #052831; stroke-width: 0px;"/>
      <path d="M129.41,219.26c-2.34,0-4.66-1.02-6.24-2.99-13.74-17.08-50.71-32.8-51.08-32.96-4.07-1.72-5.98-6.41-4.26-10.48,1.72-4.07,6.4-5.98,10.48-4.27,1.67.7,41.06,17.44,57.34,37.68,2.77,3.44,2.22,8.48-1.22,11.25-1.48,1.19-3.25,1.77-5.01,1.77Z" style="fill: #052831; stroke-width: 0px;"/>
      <path d="M210.06,140.41c-7.97,0-15.84-2.14-23.32-6.46-6.21-3.58-10.34-9.73-11.33-16.88-1.01-7.24,1.32-14.41,6.41-19.65,7.52-7.76,19.05-20.78,31.28-38.77,5.89-8.66,13.95-15.63,23.31-20.15,27.46-13.25,49.98-19.53,70.87-19.76,19.6-.21,36.75,4.6,58.07,12.44,39.41,14.49,90.36,3.79,90.87,3.68,4.32-.93,8.57,1.82,9.51,6.13.93,4.32-1.81,8.57-6.12,9.51-2.26.49-55.93,11.82-99.78-4.31-36.21-13.32-62.12-19.51-116.46,6.72-6.83,3.3-12.72,8.39-17.03,14.73-12.87,18.94-25.06,32.71-33.03,40.92-1.63,1.68-2.37,3.97-2.05,6.3.18,1.31.88,3.73,3.49,5.23,12.37,7.14,25.52,5.46,39.1-4.98,13.75-10.58,25.02-18.68,35.31-23.84,22.69-11.37,50.44-5.91,67.46,13.28,2.93,3.3,2.63,8.36-.67,11.29-3.3,2.93-8.36,2.63-11.29-.67-12.23-13.78-32.1-17.72-48.33-9.59-9.15,4.58-19.7,12.2-32.72,22.21-10.9,8.39-22.33,12.62-33.53,12.62Z" style="fill: #00c6c2; stroke-width: 0px;"/>
      <path d="M230.54,326.08c-6.65,0-12.97-2.41-17.96-6.88h0l-1.58-1.42c-5.37-4.81-8.54-11.42-8.94-18.61s2.03-14.11,6.84-19.48l17.21-19.22c9.93-11.08,27.01-12.02,38.09-2.1l1.58,1.42c5.37,4.81,8.54,11.42,8.94,18.61s-2.03,14.11-6.84,19.48l-17.21,19.22c-4.81,5.37-11.42,8.54-18.61,8.94-.51.03-1.01.04-1.52.04ZM223.25,307.28c2.18,1.96,5,2.94,7.93,2.78,2.93-.16,5.62-1.45,7.57-3.64l17.21-19.22c1.96-2.18,2.94-5,2.78-7.93-.16-2.93-1.45-5.62-3.64-7.57l-1.58-1.42c-2.18-1.96-5-2.94-7.93-2.78-2.93.16-5.62,1.45-7.57,3.64l-17.21,19.22c-1.96,2.18-2.94,5-2.78,7.93.16,2.93,1.45,5.62,3.64,7.57l1.58,1.42h0Z" style="fill: #00c6c2; stroke-width: 0px;"/>
      <path d="M136.89,264.44c-6.41,0-12.84-2.27-17.98-6.87h0s-1.58-1.42-1.58-1.42c-5.37-4.81-8.54-11.42-8.94-18.61s2.03-14.11,6.84-19.48l17.21-19.22c4.81-5.37,11.42-8.54,18.61-8.94,7.2-.39,14.11,2.03,19.48,6.84l1.58,1.42c5.37,4.81,8.54,11.42,8.94,18.61s-2.03,14.11-6.84,19.48l-17.21,19.22c-5.32,5.94-12.7,8.97-20.11,8.97ZM129.58,245.65c4.51,4.04,11.46,3.65,15.5-.85l17.21-19.22c1.96-2.18,2.94-5,2.78-7.93-.16-2.93-1.45-5.62-3.64-7.57l-1.58-1.42c-2.18-1.96-5-2.94-7.93-2.78-2.93.16-5.62,1.45-7.57,3.64l-17.21,19.22c-1.96,2.18-2.94,5-2.78,7.93.16,2.93,1.45,5.62,3.64,7.57l1.58,1.42Z" style="fill: #00c6c2; stroke-width: 0px;"/>
      <path d="M193.24,308.4c-6.28,0-12.26-2.28-16.97-6.5l-1.46-1.3c-10.47-9.38-11.36-25.52-1.98-35.99l25.36-28.31c4.54-5.07,10.79-8.07,17.58-8.44,6.8-.37,13.33,1.92,18.41,6.46l1.46,1.31c10.47,9.38,11.36,25.52,1.98,35.99l-25.36,28.31c-4.54,5.07-10.79,8.07-17.58,8.44-.48.03-.96.04-1.43.04ZM217.18,243.81c-.18,0-.35,0-.53.01-2.53.14-4.85,1.26-6.55,3.14l-25.36,28.31c-3.49,3.9-3.16,9.91.74,13.4l1.46,1.3c1.89,1.69,4.33,2.55,6.85,2.41,2.53-.14,4.85-1.26,6.55-3.14l25.36-28.31c3.49-3.9,3.16-9.91-.74-13.4l-1.46-1.31c-1.75-1.57-3.98-2.42-6.32-2.42Z" style="fill: #00c6c2; stroke-width: 0px;"/>
      <path d="M162.36,288.25c-5.71,0-11.45-2.02-16.03-6.12h0s-1.34-1.2-1.34-1.2c-4.78-4.28-7.61-10.18-7.97-16.59-.35-6.41,1.81-12.58,6.1-17.36l35.13-39.23c4.29-4.78,10.18-7.61,16.59-7.97,6.41-.35,12.58,1.81,17.36,6.1l1.34,1.2c9.88,8.85,10.72,24.08,1.87,33.96l-35.13,39.23c-4.74,5.29-11.32,7.99-17.92,7.99ZM157,270.21c1.6,1.43,3.66,2.16,5.81,2.04,2.15-.12,4.12-1.06,5.55-2.67l35.13-39.23c2.96-3.3,2.68-8.4-.63-11.36l-1.34-1.2c-1.6-1.43-3.67-2.16-5.81-2.04-2.15.12-4.12,1.06-5.55,2.67l-35.13,39.23c-1.43,1.6-2.16,3.66-2.04,5.81.12,2.15,1.06,4.12,2.67,5.55l1.34,1.2Z" style="fill: #00c6c2; stroke-width: 0px;"/>
    </g>
  </g>
</svg>