<?xml version="1.0" encoding="UTF-8"?>
<svg id="Layer_2" data-name="Layer 2" xmlns="http://www.w3.org/2000/svg" viewBox="0 0 559.07 273.7">
  <g id="Layer_1-2" data-name="Layer 1">
    <g>
      <path d="M551.06,273.7c-3.68,0-6.99-2.55-7.81-6.29-5.06-23.1-18.01-44.11-36.46-59.14-18.71-15.24-42.34-23.63-66.52-23.63s-45.1,7.35-63.5,21.26c-3.52,2.66-8.54,1.97-11.21-1.56-2.66-3.52-1.97-8.54,1.56-11.21,21.21-16.03,46.5-24.5,73.15-24.5s55.06,9.67,76.62,27.23c21.25,17.3,36.16,41.5,41.99,68.12.95,4.32-1.79,8.58-6.1,9.53-.58.13-1.15.19-1.72.19Z" style="fill: #00c6c2; stroke-width: 0px;"/>
      <path d="M8.01,273.7c-.57,0-1.14-.06-1.72-.19-4.32-.95-7.05-5.21-6.1-9.53,5.83-26.62,20.74-50.82,41.99-68.12,21.56-17.56,48.77-27.23,76.62-27.23,25.97,0,50.74,8.08,71.63,23.37,3.57,2.61,4.34,7.61,1.73,11.18-2.61,3.57-7.61,4.34-11.18,1.73-18.13-13.27-39.64-20.28-62.18-20.28-24.18,0-47.81,8.39-66.52,23.63-18.46,15.03-31.4,36.03-36.46,59.14-.82,3.74-4.13,6.29-7.81,6.29Z" style="fill: #00c6c2; stroke-width: 0px;"/>
      <path d="M440.27,155.1c-36.04,0-65.37-29.32-65.37-65.37s29.32-65.37,65.37-65.37,65.37,29.32,65.37,65.37-29.32,65.37-65.37,65.37ZM440.27,40.37c-27.22,0-49.37,22.15-49.37,49.37s22.15,49.37,49.37,49.37,49.37-22.15,49.37-49.37-22.15-49.37-49.37-49.37Z" style="fill: #00c6c2; stroke-width: 0px;"/>
      <path d="M118.8,155.1c-36.04,0-65.37-29.32-65.37-65.37S82.76,24.37,118.8,24.37s65.37,29.32,65.37,65.37-29.32,65.37-65.37,65.37ZM118.8,40.37c-27.22,0-49.37,22.15-49.37,49.37s22.15,49.37,49.37,49.37,49.37-22.15,49.37-49.37-22.15-49.37-49.37-49.37Z" style="fill: #00c6c2; stroke-width: 0px;"/>
      <path d="M392.96,273.7c-4.42,0-8-3.58-8-8,0-58.13-47.3-105.43-105.43-105.43s-105.43,47.3-105.43,105.43c0,4.42-3.58,8-8,8s-8-3.58-8-8c0-66.96,54.47-121.43,121.43-121.43s121.43,54.47,121.43,121.43c0,4.42-3.58,8-8,8Z" style="fill: #052831; stroke-width: 0px;"/>
      <path d="M279.53,130.73c-36.04,0-65.37-29.32-65.37-65.37S243.49,0,279.53,0s65.37,29.32,65.37,65.37-29.32,65.37-65.37,65.37ZM279.53,16c-27.22,0-49.37,22.15-49.37,49.37s22.15,49.37,49.37,49.37,49.37-22.15,49.37-49.37-22.15-49.37-49.37-49.37Z" style="fill: #052831; stroke-width: 0px;"/>
    </g>
  </g>
</svg>