<?xml version="1.0" encoding="UTF-8"?>
<svg id="Layer_2" data-name="Layer 2" xmlns="http://www.w3.org/2000/svg" viewBox="0 0 428.15 438.25">
  <g id="Layer_1-2" data-name="Layer 1">
    <g>
      <path d="M315.88,438.25c-3.92,0-7.35-2.89-7.91-6.88-.93-6.6-2.16-13.46-3.34-20.1-2.23-12.53-4.54-25.48-5.25-38.31-.23-4.25-.67-8.47-1.13-12.94-1.14-11.03-2.32-22.44-.24-34.24,2.37-13.38,9.28-23.56,15.96-33.41,3.04-4.49,5.92-8.72,8.42-13.28,17.13-31.24,27.95-61.19,32.14-89.02.66-4.37,4.74-7.38,9.1-6.72,4.37.66,7.38,4.73,6.72,9.1-4.48,29.7-15.89,61.44-33.94,94.33-2.87,5.22-6.09,9.98-9.21,14.57-6,8.84-11.67,17.2-13.44,27.21-1.7,9.59-.68,19.41.4,29.81.46,4.46.94,9.07,1.19,13.71.65,11.86,2.88,24.33,5.03,36.38,1.21,6.78,2.46,13.79,3.43,20.67.62,4.38-2.43,8.42-6.8,9.04-.38.05-.76.08-1.13.08Z" style="fill: #052831; stroke-width: 0px;"/>
      <path d="M140.82,438.07c-4.11,0-7.61-3.15-7.96-7.32-1.04-12.32-3.48-31.98-5.63-37.11-.96-2.29-2.08-3.42-4.27-4.34-3.07-1.28-7.73-.35-12.24.55-1.15.23-2.27.45-3.38.65-10.13,1.78-17.98,2.61-25.47,2.68-4.85.04-11.18-.06-17.25-1.25-7.92-1.56-13.99-4.73-18.03-9.42-7.11-8.25-9.41-21.03-5.87-32.57.38-1.22.79-2.34,1.19-3.42.5-1.36.97-2.64,1.21-3.73,0-.04.01-.06.02-.09-.5-.8-2.58-2.36-3.84-3.32-1.14-.86-2.33-1.76-3.52-2.79-6.87-5.95-8.71-14.17-5.38-22.47-3.21-3.55-4.76-7.36-5.41-12.96-.66-5.58,1.46-9.99,3-13.22.63-1.31,1.18-2.46,1.49-3.5-.12-.85-.79-2.27-1.33-2.83-5.35-1.6-26.76-8.99-28.07-24.98-1.03-12.58,10.29-26.89,19.39-38.39l1.59-2c5.41-6.82,7.88-9.94,15.53-24.06,1.48-2.73-.47-7.61-2.36-12.34-1.01-2.54-2.06-5.16-2.75-7.82-3.36-12.99-1.21-27.05.69-39.46l.1-.66c1.83-11.95,4.74-23.16,8.66-33.31,7.61-19.71,20.3-38.12,37.72-54.74,1.69-1.61,3.47-3.26,5.31-4.9C109.48,16.16,142.77,2.82,180.24.39c34.76-2.25,71.25,5.3,102.76,21.27,3.94,2,5.52,6.81,3.52,10.75-2,3.94-6.81,5.52-10.75,3.52-28.99-14.7-62.54-21.65-94.49-19.58-33.86,2.2-63.83,14.14-86.67,34.53-1.71,1.52-3.36,3.05-4.92,4.54-15.7,14.98-27.08,31.44-33.83,48.93-3.5,9.07-6.12,19.15-7.77,29.96l-.1.66c-1.67,10.88-3.55,23.22-1.01,33.02.44,1.69,1.25,3.74,2.12,5.91,2.79,6.99,6.6,16.57,1.56,25.88-8.31,15.36-11.24,19.04-17.06,26.39l-1.58,1.99c-5.77,7.29-16.51,20.85-15.99,27.14.29,3.5,9.37,8.81,17,11.05,7.31,2.11,14.34,12.46,12.1,21.52-.68,2.73-1.75,4.98-2.7,6.96-1.03,2.15-1.65,3.51-1.54,4.44.36,3.09.72,3.63,2.58,5.23.28.24.67.62,1.1,1.07l.02.02,8.26,3.42-5.97,8.21c-3.47,4.78-1.75,6.27-.61,7.25.78.68,1.7,1.37,2.68,2.11,4.51,3.41,12.05,9.1,9.82,19.53-.47,2.21-1.2,4.18-1.84,5.92-.34.92-.66,1.78-.9,2.58-1.91,6.21-.8,13.38,2.7,17.44,4.55,5.28,17.97,5.16,23.01,5.11,6.57-.06,13.61-.81,22.84-2.44.99-.17,2-.38,3.03-.58,6.22-1.24,13.96-2.78,21.54.38,6.08,2.54,10.28,6.76,12.87,12.92,3.89,9.3,6.36,36.57,6.82,41.94.37,4.4-2.89,8.27-7.3,8.65-.23.02-.46.03-.68.03ZM43.13,342.57h0s0,0,0,0Z" style="fill: #052831; stroke-width: 0px;"/>
      <path d="M348.27,203.31l-15.03-24.99h-12.46l-15.03,24.99-5.84-1.58c-8.44-2.29-16.56-5.66-24.14-10l-5.24-3.01,7.04-28.3-8.81-8.81-28.3,7.04-3.01-5.24c-4.34-7.58-7.71-15.7-10-24.14l-1.58-5.84,24.99-15.03v-12.46l-24.99-15.03,1.58-5.84c2.29-8.44,5.66-16.56,10-24.14l3.01-5.24,28.3,7.04,8.81-8.81-7.04-28.3,5.24-3.01c7.58-4.34,15.7-7.71,24.14-10l5.84-1.58,15.03,24.99h12.46l15.03-24.99,5.84,1.58c8.44,2.29,16.56,5.66,24.14,10l5.24,3.01-7.04,28.3,8.81,8.81,28.3-7.04,3.01,5.24c4.34,7.58,7.71,15.7,10,24.14l1.58,5.84-24.99,15.03v12.46l24.99,15.03-1.58,5.84c-2.29,8.44-5.66,16.56-10,24.14l-3.01,5.24-28.3-7.04-8.81,8.81,7.04,28.3-5.24,3.01c-7.58,4.34-15.7,7.71-24.14,10l-5.84,1.58ZM289.03,180.64c3.04,1.47,6.16,2.77,9.35,3.88l13.35-22.2h30.56l13.35,22.2c3.19-1.11,6.32-2.4,9.35-3.88l-6.26-25.13,21.61-21.61,25.13,6.26c1.47-3.04,2.77-6.16,3.88-9.35l-22.2-13.35v-30.56l22.2-13.35c-1.11-3.19-2.4-6.32-3.88-9.35l-25.13,6.26-21.61-21.61,6.26-25.14c-3.04-1.47-6.16-2.77-9.35-3.88l-13.35,22.2h-30.56l-13.35-22.2c-3.19,1.11-6.32,2.4-9.35,3.88l6.26,25.14-21.61,21.61-25.14-6.26c-1.47,3.04-2.77,6.16-3.88,9.35l22.2,13.35v30.56l-22.2,13.35c1.11,3.19,2.4,6.32,3.88,9.35l25.14-6.26,21.61,21.61-6.26,25.13ZM258.86,112.93h0,0Z" style="fill: #00c6c2; stroke-width: 0px;"/>
      <path d="M327.01,138.38c-19.97,0-36.21-16.24-36.21-36.21s16.24-36.21,36.21-36.21,36.21,16.24,36.21,36.21-16.24,36.21-36.21,36.21ZM327.01,81.96c-11.14,0-20.21,9.07-20.21,20.21s9.07,20.21,20.21,20.21,20.21-9.07,20.21-20.21-9.07-20.21-20.21-20.21Z" style="fill: #00c6c2; stroke-width: 0px;"/>
    </g>
  </g>
</svg>