<?xml version="1.0" encoding="UTF-8"?>
<svg id="Layer_2" data-name="Layer 2" xmlns="http://www.w3.org/2000/svg" viewBox="0 0 301.22 436.29">
  <g id="Layer_1-2" data-name="Layer 1">
    <g>
      <path d="M264.36,436.29c-4.15,0-8.31-.71-12.34-2.13-9.29-3.29-16.74-10-20.98-18.89l-65.06-136.38c-1.9-3.99-.21-8.76,3.78-10.66,3.99-1.9,8.76-.21,10.66,3.78l65.06,136.38c4.96,10.4,17.45,14.82,27.85,9.86,10.4-4.96,14.82-17.45,9.86-27.85l-65.06-136.38c-1.9-3.99-.21-8.76,3.78-10.66,3.99-1.9,8.76-.21,10.67,3.78l65.06,136.38c8.76,18.36.95,40.42-17.41,49.17-5.04,2.4-10.43,3.61-15.85,3.61Z" style="fill: #00c6c2; stroke-width: 0px;"/>
      <path d="M141.38,282.32c-52.76,0-103.45-29.68-127.64-80.38C-19.77,131.68,10.12,47.26,80.38,13.74c70.26-33.51,154.68-3.62,188.2,66.64,16.23,34.03,18.24,72.35,5.66,107.9-12.59,35.55-38.26,64.06-72.3,80.3-19.55,9.33-40.21,13.74-60.56,13.74ZM140.97,16c-18.04,0-36.35,3.91-53.69,12.19C24.98,57.9-1.53,132.76,28.19,195.05c21.44,44.95,66.4,71.27,113.17,71.27,18.04,0,36.35-3.91,53.69-12.19,30.18-14.39,52.94-39.68,64.1-71.2,11.16-31.52,9.38-65.49-5.02-95.67h0C232.7,42.32,187.74,16,140.97,16Z" style="fill: #052831; stroke-width: 0px;"/>
    </g>
  </g>
</svg>