<?xml version="1.0" encoding="UTF-8"?>
<svg id="Layer_2" data-name="Layer 2" xmlns="http://www.w3.org/2000/svg" viewBox="0 0 532.42 337.33">
  <g id="Layer_1-2" data-name="Layer 1">
    <g>
      <path d="M27.42,208.01c-4.42,0-8-3.58-8-8v-102.25c0-4.42,3.58-8,8-8s8,3.58,8,8v102.25c0,4.42-3.58,8-8,8Z" style="fill: #00c6c2; stroke-width: 0px;"/>
      <path d="M27.42,248.17c-15.12,0-27.42-12.3-27.42-27.42s12.3-27.42,27.42-27.42,27.42,12.3,27.42,27.42-12.3,27.42-27.42,27.42ZM27.42,209.32c-6.3,0-11.42,5.12-11.42,11.42s5.12,11.42,11.42,11.42,11.42-5.12,11.42-11.42-5.12-11.42-11.42-11.42Z" style="fill: #00c6c2; stroke-width: 0px;"/>
      <path d="M275.92,195.52c-.92,0-1.84-.16-2.72-.48L24.7,105.28c-3.17-1.15-5.28-4.15-5.28-7.52s2.11-6.38,5.28-7.52L273.2.48c1.76-.63,3.68-.63,5.44,0l248.5,89.76c3.17,1.15,5.28,4.15,5.28,7.52s-2.11,6.38-5.28,7.52l-248.5,89.76c-.88.32-1.8.48-2.72.48ZM50.97,97.76l224.95,81.25,224.95-81.25L275.92,16.51,50.97,97.76Z" style="fill: #052831; stroke-width: 0px;"/>
      <path d="M277,337.33c-56.81,0-102.02-15.01-123.91-23.95-12.91-5.28-55.05-23.92-55.05-42.32v-140.19c0-4.42,3.58-8,8-8s8,3.58,8,8v139.75c1.5,3.5,15.12,16.21,48.56,29.33,20.35,7.98,62.27,21.37,114.39,21.37s94.04-13.39,114.39-21.37c33.45-13.12,47.06-25.83,48.56-29.33v-139.75c0-4.42,3.58-8,8-8s8,3.58,8,8v140.19c0,18.4-42.13,37.04-55.05,42.32-21.89,8.94-67.1,23.95-123.91,23.95ZM440.04,270.43h0s0,0,0,0Z" style="fill: #052831; stroke-width: 0px;"/>
    </g>
  </g>
</svg>