<?xml version="1.0" encoding="UTF-8"?>
<svg id="Layer_2" data-name="Layer 2" xmlns="http://www.w3.org/2000/svg" viewBox="0 0 536.03 487.89">
  <g id="Layer_1-2" data-name="Layer 1">
    <g>
      <path d="M181.34,487.89H8c-4.42,0-8-3.58-8-8v-180.81c0-4.42,3.58-8,8-8h173.34c4.42,0,8,3.58,8,8v180.81c0,4.42-3.58,8-8,8ZM16,471.89h157.34v-164.81H16v164.81Z" style="fill: #fff; stroke-width: 0px;"/>
      <path d="M528.03,487.89h-173.34c-4.42,0-8-3.58-8-8v-121.53c0-4.42,3.58-8,8-8h173.34c4.42,0,8,3.58,8,8v121.53c0,4.42-3.58,8-8,8ZM362.69,471.89h157.34v-105.53h-157.34v105.53Z" style="fill: #fff; stroke-width: 0px;"/>
      <path d="M354.69,487.89h-173.34c-4.42,0-8-3.58-8-8V215.05c0-4.42,3.58-8,8-8h173.34c4.42,0,8,3.58,8,8v264.84c0,4.42-3.58,8-8,8ZM189.34,471.89h157.34v-248.84h-157.34v248.84Z" style="fill: #fff; stroke-width: 0px;"/>
      <path d="M268.02,154.22c-35.69,0-64.72-29.04-64.72-64.72V0h129.45v89.5c0,35.69-29.04,64.72-64.72,64.72ZM219.29,16v73.5c0,26.87,21.86,48.72,48.72,48.72s48.72-21.86,48.72-48.72V16h-97.45Z" style="fill: #00c6c2; stroke-width: 0px;"/>
      <path d="M327.48,98.09c-4.42,0-8-3.58-8-8s3.58-8,8-8c11.93,0,21.63-9.7,21.63-21.63s-9.7-21.63-21.63-21.63c-4.42,0-8-3.58-8-8s3.58-8,8-8c20.75,0,37.63,16.88,37.63,37.63s-16.88,37.63-37.63,37.63Z" style="fill: #00c6c2; stroke-width: 0px;"/>
      <path d="M208.55,98.09c-20.75,0-37.63-16.88-37.63-37.63s16.88-37.63,37.63-37.63c4.42,0,8,3.58,8,8s-3.58,8-8,8c-11.93,0-21.63,9.7-21.63,21.63s9.7,21.63,21.63,21.63c4.42,0,8,3.58,8,8s-3.58,8-8,8Z" style="fill: #00c6c2; stroke-width: 0px;"/>
      <path d="M297.47,192.96h-58.9c-4.42,0-8-3.58-8-8s3.58-8,8-8h58.9c4.42,0,8,3.58,8,8s-3.58,8-8,8Z" style="fill: #00c6c2; stroke-width: 0px;"/>
      <path d="M268.02,192.96c-4.42,0-8-3.58-8-8v-38.11c0-4.42,3.58-8,8-8s8,3.58,8,8v38.11c0,4.42-3.58,8-8,8Z" style="fill: #00c6c2; stroke-width: 0px;"/>
    </g>
  </g>
</svg>