<?xml version="1.0" encoding="UTF-8"?>
<svg id="Layer_2" data-name="Layer 2" xmlns="http://www.w3.org/2000/svg" viewBox="0 0 557.79 336.5">
  <g id="Layer_1-2" data-name="Layer 1">
    <g>
      <path d="M138.02,238.41h-58.6C35.63,238.41,0,202.79,0,159s35.63-79.42,79.42-79.42h58.6v158.84ZM79.42,95.58c-34.97,0-63.42,28.45-63.42,63.42s28.45,63.42,63.42,63.42h42.6v-126.84h-42.6Z" style="fill: #fff; stroke-width: 0px;"/>
      <path d="M351.03,303.47l-229.01-67.07V81.58L351.03,14.52v288.96ZM138.02,224.42l197.01,57.7V35.87l-197.01,57.7v130.85Z" style="fill: #fff; stroke-width: 0px;"/>
      <path d="M371.7,317.99c-20.22,0-36.68-16.45-36.68-36.68V36.68c0-20.22,16.45-36.68,36.68-36.68s36.68,16.45,36.68,36.68v244.63c0,20.22-16.45,36.68-36.68,36.68ZM371.7,16c-11.4,0-20.68,9.28-20.68,20.68v244.63c0,11.4,9.28,20.68,20.68,20.68s20.68-9.28,20.68-20.68V36.68c0-11.4-9.28-20.68-20.68-20.68Z" style="fill: #fff; stroke-width: 0px;"/>
      <path d="M116.05,336.5h-29.41c-12.12,0-21.97-9.86-21.97-21.97v-80.29c0-4.42,3.58-8,8-8s8,3.58,8,8v80.29c0,3.29,2.68,5.97,5.97,5.97h29.41c3.29,0,5.97-2.68,5.97-5.97v-82.04c0-4.42,3.58-8,8-8s8,3.58,8,8v82.04c0,12.12-9.86,21.97-21.97,21.97Z" style="fill: #fff; stroke-width: 0px;"/>
      <path d="M549.79,163.97h-63.62c-4.42,0-8-3.58-8-8s3.58-8,8-8h63.62c4.42,0,8,3.58,8,8s-3.58,8-8,8Z" style="fill: #00c6c2; stroke-width: 0px;"/>
      <path d="M506.03,269.62c-2.05,0-4.09-.78-5.66-2.34l-44.99-44.99c-3.12-3.12-3.12-8.19,0-11.31,3.12-3.12,8.19-3.12,11.31,0l44.99,44.99c3.12,3.12,3.12,8.19,0,11.31-1.56,1.56-3.61,2.34-5.66,2.34Z" style="fill: #00c6c2; stroke-width: 0px;"/>
      <path d="M461.04,103.31c-2.05,0-4.09-.78-5.66-2.34-3.12-3.12-3.12-8.19,0-11.31l44.99-44.99c3.12-3.12,8.19-3.12,11.31,0,3.12,3.12,3.12,8.19,0,11.31l-44.99,44.99c-1.56,1.56-3.61,2.34-5.66,2.34Z" style="fill: #00c6c2; stroke-width: 0px;"/>
      <path d="M400.38,204.72c-4.42,0-8-3.58-8-8s3.58-8,8-8c18.06,0,32.75-14.69,32.75-32.75s-14.69-32.75-32.75-32.75c-4.42,0-8-3.58-8-8s3.58-8,8-8c26.88,0,48.75,21.87,48.75,48.75s-21.87,48.75-48.75,48.75Z" style="fill: #fff; stroke-width: 0px;"/>
    </g>
  </g>
</svg>