<?xml version="1.0" encoding="UTF-8"?>
<svg id="Layer_2" data-name="Layer 2" xmlns="http://www.w3.org/2000/svg" viewBox="0 0 462.87 462.87">
  <g id="Layer_1-2" data-name="Layer 1">
    <g>
      <path d="M231.43,462.87c-61.82,0-119.94-24.07-163.65-67.79C24.07,351.37,0,293.25,0,231.43S24.07,111.5,67.79,67.79C111.5,24.07,169.61,0,231.43,0s119.94,24.07,163.65,67.79c43.71,43.71,67.79,101.83,67.79,163.65s-24.07,119.94-67.79,163.65c-43.71,43.71-101.83,67.79-163.65,67.79ZM231.43,16c-57.54,0-111.64,22.41-152.33,63.1-40.69,40.69-63.1,94.79-63.1,152.33s22.41,111.64,63.1,152.33c40.69,40.69,94.79,63.1,152.33,63.1s111.64-22.41,152.33-63.1c40.69-40.69,63.1-94.79,63.1-152.33s-22.41-111.64-63.1-152.33c-40.69-40.69-94.79-63.1-152.33-63.1Z" style="fill: #fff; stroke-width: 0px;"/>
      <g>
        <path d="M87.91,217.74c-7.31,8.53-15.98,15.98-25.86,19.23v-21.94c15.44-5.28,26.4-16.25,29.11-28.57h23.15v89.91h-26.4v-58.63Z" style="fill: #00c6c2; stroke-width: 0px;"/>
        <path d="M126.09,231.82c0-29.79,15.57-47.26,42.52-47.26s41.3,16.52,41.3,46.44-15.3,47.26-41.98,47.26-41.84-16.38-41.84-46.44ZM181.34,238.46v-14.22c0-14.76-4.06-20.45-13.13-20.45s-13.13,5.55-13.13,20.45v14.22c0,14.9,4.2,20.58,13.27,20.58s13-5.69,13-20.58Z" style="fill: #00c6c2; stroke-width: 0px;"/>
        <path d="M216.95,231.82c0-29.79,15.57-47.26,42.52-47.26s41.3,16.52,41.3,46.44-15.3,47.26-41.98,47.26-41.84-16.38-41.84-46.44ZM272.19,238.46v-14.22c0-14.76-4.06-20.45-13.13-20.45s-13.13,5.55-13.13,20.45v14.22c0,14.9,4.2,20.58,13.27,20.58s13-5.69,13-20.58Z" style="fill: #00c6c2; stroke-width: 0px;"/>
        <path d="M305.77,206.37c0-13.68,8.94-21.94,23.83-21.94s23.29,8.4,23.29,21.94-9.21,21.94-23.83,21.94-23.29-8.26-23.29-21.94ZM374.96,186.46h16.52l-57.95,89.91h-16.52l57.95-89.91ZM337.59,206.5v-.41c0-5.96-2.98-9.34-8.26-9.34s-8.4,3.39-8.4,9.34v.41c0,6.23,2.84,9.61,8.26,9.61s8.4-3.39,8.4-9.61ZM356.27,256.47c0-13.68,8.94-21.94,23.83-21.94s23.29,8.26,23.29,21.94-9.21,21.94-23.83,21.94-23.29-8.26-23.29-21.94ZM387.96,256.6v-.41c0-5.96-2.98-9.34-8.26-9.34s-8.26,3.39-8.26,9.34v.41c0,6.23,2.84,9.61,8.26,9.61s8.26-3.39,8.26-9.61Z" style="fill: #00c6c2; stroke-width: 0px;"/>
      </g>
    </g>
  </g>
</svg>