<?xml version="1.0" encoding="UTF-8"?>
<svg id="Layer_2" data-name="Layer 2" xmlns="http://www.w3.org/2000/svg" viewBox="0 0 376.93 505.11">
  <g id="Layer_1-2" data-name="Layer 1">
    <g>
      <path d="M157.5,340.27l-51.28-48.79c-3.2-3.05-3.33-8.11-.28-11.31,3.05-3.2,8.11-3.33,11.31-.28l38.01,36.17,103.44-143.11c2.59-3.58,7.59-4.39,11.17-1.8,3.58,2.59,4.39,7.59,1.8,11.17l-114.16,157.96Z" style="fill: #00c6c2; stroke-width: 0px;"/>
      <path d="M188.46,505.11l-88.47-68.71c-30.95-24.04-56.42-55.35-73.66-90.55C9.11,310.65,0,271.33,0,232.13V72.31l9.11,1.28c.2.03,21.79,2.84,53.88-4.21,29.57-6.5,74.41-22.96,120.08-64.48l5.38-4.89,5.38,4.89c45.67,41.52,90.51,57.98,120.08,64.48,32.09,7.05,53.69,4.24,53.9,4.21l9.08-1.24.02,9.16v150.62c0,39.19-9.11,78.51-26.34,113.72-17.23,35.2-42.7,66.51-73.66,90.55l-88.47,68.71ZM16,90.1v142.03c0,36.77,8.54,73.66,24.71,106.68,16.17,33.02,40.06,62.4,69.1,84.95l78.65,61.08,78.65-61.08c29.04-22.55,52.93-51.93,69.1-84.95,16.17-33.02,24.71-69.91,24.71-106.68V90.1c-9.92.33-27.38-.12-49.6-4.92-30.51-6.59-76.13-23-122.87-63.67-46.74,40.67-92.35,57.08-122.87,63.67-22.21,4.8-39.67,5.25-49.6,4.92Z" style="fill: #fff; stroke-width: 0px;"/>
    </g>
  </g>
</svg>