<?xml version="1.0" encoding="UTF-8"?>
<svg id="Layer_2" data-name="Layer 2" xmlns="http://www.w3.org/2000/svg" viewBox="0 0 553.58 468.4">
  <g id="Layer_1-2" data-name="Layer 1">
    <g>
      <path d="M364.41,432.81c-6.94,0-13.94-2.04-20.05-6.29-7.73-5.37-12.9-13.43-14.57-22.69-1.67-9.26.37-18.62,5.74-26.34l37.36-53.75-69.35-37.89c-9.49-5.19-16.49-14.17-19.2-24.64-2.71-10.47-.95-21.72,4.84-30.86l50.14-79.23-33.62,2.06-34.11,44.44c-10.05,13.09-28.88,15.57-41.97,5.52-13.09-10.05-15.57-28.88-5.52-41.97l39.96-52.07c6.84-8.91,17.18-14.41,28.39-15.09l67.37-4.13c16.11-.99,32.29,3.54,45.55,12.75l42.94,29.81c11.79,8.19,20.79,19.58,26.02,32.95l10.56,26.98,30.35-8.87c15.85-4.63,32.5,4.49,37.13,20.34,2.24,7.68,1.36,15.77-2.48,22.78-3.84,7.01-10.18,12.11-17.86,14.35l-82.92,24.23-23.22-59.31-32.41,47.38,48.38,25.65c8.89,4.71,15.35,13.03,17.72,22.8,2.37,9.78.44,20.12-5.3,28.39l-60.87,87.59c-6.84,9.84-17.82,15.11-28.98,15.11ZM369.58,133.22l-66.88,105.67c-3.48,5.5-4.5,12-2.87,18.3,1.63,6.3,5.67,11.49,11.38,14.61l84.98,46.44-47.52,68.38c-2.93,4.22-4.04,9.32-3.13,14.38.91,5.06,3.73,9.45,7.95,12.38,8.71,6.05,20.71,3.89,26.76-4.82l60.87-87.59c3.13-4.51,4.19-10.15,2.89-15.49s-4.82-9.87-9.67-12.44l-64.2-34.04,59.6-87.13,28.91,73.85,68.87-20.12c3.57-1.04,6.53-3.42,8.31-6.68,1.79-3.26,2.2-7.03,1.15-10.6-2.16-7.38-9.91-11.62-17.29-9.47l-44.4,12.97-15.9-40.61c-4.07-10.4-11.08-19.27-20.25-25.64l-42.94-29.81c-10.32-7.16-22.9-10.69-35.44-9.92l-67.37,4.13c-6.58.4-12.66,3.63-16.68,8.87l-39.96,52.06c-4.68,6.09-3.53,14.86,2.57,19.54,6.09,4.68,14.86,3.53,19.54-2.57l38.55-50.22,72.13-4.42Z" style="fill: #fff; stroke-width: 0px;"/>
      <path d="M202.65,468.4c-6.46,0-12.99-1.76-18.81-5.44-16.49-10.43-21.41-32.34-10.98-48.82l116.32-183.8c2.36-3.73,7.3-4.84,11.04-2.48,3.73,2.36,4.84,7.3,2.48,11.04l-116.32,183.8c-5.72,9.03-3.02,21.03,6.01,26.75,8.93,5.65,20.87,3.04,26.63-5.83l101.1-157.7c2.38-3.72,7.33-4.8,11.05-2.42,3.72,2.38,4.8,7.33,2.42,11.05l-101.12,157.73c-6.76,10.42-18.19,16.12-29.82,16.12Z" style="fill: #fff; stroke-width: 0px;"/>
      <path d="M462.84,111.71c-30.8,0-55.86-25.06-55.86-55.85S432.04,0,462.84,0s55.85,25.06,55.85,55.85-25.06,55.85-55.85,55.85ZM462.84,16c-21.98,0-39.86,17.88-39.86,39.85s17.88,39.85,39.86,39.85,39.85-17.88,39.85-39.85-17.88-39.85-39.85-39.85Z" style="fill: #fff; stroke-width: 0px;"/>
      <path d="M119.68,428.43H41.69c-4.42,0-8-3.58-8-8s3.58-8,8-8h77.99c4.42,0,8,3.58,8,8s-3.58,8-8,8Z" style="fill: #00c6c2; stroke-width: 0px;"/>
      <path d="M191.56,311.96h-88.48c-4.42,0-8-3.58-8-8s3.58-8,8-8h88.48c4.42,0,8,3.58,8,8s-3.58,8-8,8Z" style="fill: #00c6c2; stroke-width: 0px;"/>
      <path d="M153.94,370.19H8c-4.42,0-8-3.58-8-8s3.58-8,8-8h145.94c4.42,0,8,3.58,8,8s-3.58,8-8,8Z" style="fill: #00c6c2; stroke-width: 0px;"/>
    </g>
  </g>
</svg>