<?xml version="1.0" encoding="UTF-8"?>
<svg id="Layer_2" data-name="Layer 2" xmlns="http://www.w3.org/2000/svg" viewBox="0 0 463.44 375.42">
  <g id="Layer_1-2" data-name="Layer 1">
    <g>
      <path d="M423.35,307.84c-4.42,0-8-3.58-8-8v-151.81h-28.16c-4.42,0-8-3.58-8-8s3.58-8,8-8h44.16v167.81c0,4.42-3.58,8-8,8Z" style="fill: #00c6c2; stroke-width: 0px;"/>
      <path d="M40.08,307.84c-4.42,0-8-3.58-8-8v-167.81h44.16c4.42,0,8,3.58,8,8s-3.58,8-8,8h-28.16v151.81c0,4.42-3.58,8-8,8Z" style="fill: #00c6c2; stroke-width: 0px;"/>
      <path d="M263.8,375.42h-64.17c-4.42,0-8-3.58-8-8v-64.17c0-4.42,3.58-8,8-8h64.17c4.42,0,8,3.58,8,8v64.17c0,4.42-3.58,8-8,8ZM207.64,359.42h48.17v-48.17h-48.17v48.17Z" style="fill: #00c6c2; stroke-width: 0px;"/>
      <path d="M455.44,375.42h-64.17c-4.42,0-8-3.58-8-8v-64.17c0-4.42,3.58-8,8-8h64.17c4.42,0,8,3.58,8,8v64.17c0,4.42-3.58,8-8,8ZM399.27,359.42h48.17v-48.17h-48.17v48.17Z" style="fill: #00c6c2; stroke-width: 0px;"/>
      <path d="M72.17,375.42H8c-4.42,0-8-3.58-8-8v-64.17c0-4.42,3.58-8,8-8h64.17c4.42,0,8,3.58,8,8v64.17c0,4.42-3.58,8-8,8ZM16,359.42h48.17v-48.17H16v48.17Z" style="fill: #00c6c2; stroke-width: 0px;"/>
      <path d="M231.72,310.09c-4.42,0-8-3.58-8-8v-95.9c0-4.42,3.58-8,8-8s8,3.58,8,8v95.9c0,4.42-3.58,8-8,8Z" style="fill: #00c6c2; stroke-width: 0px;"/>
      <path d="M329.48,205.75h-195.52c-36.24,0-65.72-29.48-65.72-65.72,0-27.81,17.38-52.29,43-61.69-.01-.49-.02-.98-.02-1.47,0-36.24,29.48-65.72,65.72-65.72,15.27,0,30.06,5.38,41.75,14.98C234.09,9.64,255.92,0,278.66,0h.11c56.61.81,81.75,59.64,81.75,81.87,0,.08,0,.16,0,.24,21.23,11.38,34.67,33.55,34.67,57.93,0,36.24-29.48,65.72-65.72,65.72ZM176.95,27.16c-27.41,0-49.72,22.3-49.72,49.72,0,2.01.13,4.05.4,6.23l.87,7-6.84,1.74c-22.03,5.6-37.42,25.42-37.42,48.18,0,27.41,22.3,49.72,49.72,49.72h195.52c27.41,0,49.72-22.3,49.72-49.72,0-19.86-11.79-37.79-30.04-45.66l-5.2-2.25.39-5.65c.12-1.78.18-3.24.18-4.61,0-6.73-4.38-23.23-16.13-38.85-9.12-12.12-25.16-26.64-49.79-27.02-20.99.02-40.23,9.7-52.8,26.56l-5.76,7.73-6.54-7.09c-9.39-10.19-22.72-16.04-36.56-16.04Z" style="fill: #052831; stroke-width: 0px;"/>
    </g>
  </g>
</svg>