<?xml version="1.0" encoding="UTF-8"?>
<svg id="Layer_2" data-name="Layer 2" xmlns="http://www.w3.org/2000/svg" viewBox="0 0 516.22 427.06">
  <g id="Layer_1-2" data-name="Layer 1">
    <g>
      <path d="M261.24,427.06H65.72c-36.24,0-65.72-29.48-65.72-65.72,0-27.81,17.37-52.29,43-61.69-.01-.49-.02-.98-.02-1.47,0-36.24,29.48-65.72,65.72-65.72,15.27,0,30.06,5.38,41.75,14.98,15.39-16.51,37.22-26.15,59.96-26.15h.11c56.61.81,81.75,59.64,81.75,81.87,0,.08,0,.16,0,.24,21.23,11.38,34.67,33.55,34.67,57.93,0,36.24-29.48,65.72-65.72,65.72ZM108.7,248.47c-27.41,0-49.72,22.3-49.72,49.72,0,2.02.13,4.05.4,6.23l.88,7.01-6.84,1.74c-22.03,5.6-37.42,25.42-37.42,48.18,0,27.41,22.3,49.72,49.72,49.72h195.52c27.41,0,49.72-22.3,49.72-49.72,0-19.86-11.79-37.79-30.04-45.66l-5.2-2.25.39-5.65c.12-1.78.18-3.24.18-4.61,0-6.73-4.38-23.23-16.13-38.85-9.12-12.12-25.16-26.64-49.79-27.02-20.99.02-40.23,9.7-52.8,26.56l-5.76,7.73-6.54-7.09c-9.4-10.19-22.72-16.04-36.56-16.04Z" style="fill: #fff; stroke-width: 0px;"/>
      <path d="M450.5,205.75h-195.52c-36.24,0-65.72-29.48-65.72-65.72,0-27.81,17.38-52.29,43-61.69-.01-.49-.02-.98-.02-1.47,0-36.24,29.48-65.72,65.72-65.72,15.27,0,30.06,5.38,41.75,14.98,15.39-16.51,37.22-26.15,59.96-26.15,45.14,0,81.87,36.72,81.87,81.87,0,.08,0,.16,0,.24,21.23,11.38,34.67,33.55,34.67,57.93,0,36.24-29.48,65.72-65.72,65.72ZM297.97,27.16c-27.41,0-49.72,22.3-49.72,49.72,0,2.01.13,4.05.4,6.23l.87,7-6.84,1.74c-22.03,5.6-37.42,25.42-37.42,48.18,0,27.41,22.3,49.72,49.72,49.72h195.52c27.41,0,49.72-22.3,49.72-49.72,0-19.86-11.79-37.79-30.04-45.66l-5.2-2.25.39-5.65c.12-1.78.18-3.24.18-4.61,0-36.32-29.55-65.87-65.87-65.87-21.01,0-40.28,9.68-52.85,26.56l-5.76,7.73-6.54-7.09c-9.39-10.19-22.72-16.04-36.56-16.04Z" style="fill: #fff; stroke-width: 0px;"/>
      <path d="M360.74,165.33c-4.42,0-8-3.58-8-8v-29.14h-29.14c-4.42,0-8-3.58-8-8s3.58-8,8-8h45.14v45.14c0,4.42-3.58,8-8,8Z" style="fill: #00c6c2; stroke-width: 0px;"/>
      <path d="M181.39,307.53c-2.05,0-4.09-.78-5.66-2.34-3.12-3.12-3.12-8.19,0-11.31l176.02-176.02c3.12-3.12,8.19-3.12,11.31,0,3.12,3.12,3.12,8.19,0,11.31l-176.02,176.02c-1.56,1.56-3.61,2.34-5.66,2.34Z" style="fill: #00c6c2; stroke-width: 0px;"/>
    </g>
  </g>
</svg>