<?xml version="1.0" encoding="UTF-8"?>
<svg id="Layer_2" data-name="Layer 2" xmlns="http://www.w3.org/2000/svg" viewBox="0 0 535.04 308.68">
  <g id="Layer_1-2" data-name="Layer 1">
    <g>
      <path d="M376.2,308.68H91.92C41.23,308.68,0,267.44,0,216.76c0-39.79,25.43-74.7,62.63-87.15-.08-1.58-.13-3.14-.13-4.68,0-50.68,41.23-91.92,91.92-91.92,22.52,0,44.3,8.36,61.03,23.21,21.79-24.84,53.63-39.44,86.86-39.44,28.05,0,55.09,10.18,76.13,28.68,3.32,2.92,3.65,7.97.73,11.29-2.92,3.32-7.97,3.65-11.29.73-18.13-15.93-41.41-24.7-65.57-24.7-31.71,0-60.78,14.61-79.76,40.08l-5.76,7.73-6.54-7.09c-14.34-15.57-34.7-24.49-55.83-24.49-41.86,0-75.92,34.06-75.92,75.92,0,3.08.2,6.19.61,9.51l.87,7-6.84,1.74c-33.65,8.56-57.15,38.81-57.15,73.58,0,41.86,34.06,75.92,75.92,75.92h284.28c41.86,0,75.92-34.06,75.92-75.92,0-15-4.36-29.49-12.62-41.93-2.44-3.68-1.44-8.65,2.24-11.09,3.68-2.44,8.65-1.44,11.09,2.24,10.01,15.06,15.3,32.62,15.3,50.78,0,50.68-41.24,91.92-91.92,91.92Z" style="fill: #fff; stroke-width: 0px;"/>
      <path d="M480.33,96.25h-67.08c-4.42,0-8-3.58-8-8s3.58-8,8-8h67.08c4.42,0,8,3.58,8,8s-3.58,8-8,8Z" style="fill: #00c6c2; stroke-width: 0px;"/>
      <path d="M446.79,129.79c-4.42,0-8-3.58-8-8V54.71c0-4.42,3.58-8,8-8s8,3.58,8,8v67.08c0,4.42-3.58,8-8,8Z" style="fill: #00c6c2; stroke-width: 0px;"/>
      <path d="M446.79,176.51c-48.66,0-88.25-39.59-88.25-88.25S398.12,0,446.79,0s88.25,39.59,88.25,88.25-39.59,88.25-88.25,88.25ZM446.79,16c-39.84,0-72.25,32.41-72.25,72.25s32.41,72.25,72.25,72.25,72.25-32.41,72.25-72.25-32.41-72.25-72.25-72.25Z" style="fill: #00c6c2; stroke-width: 0px;"/>
    </g>
  </g>
</svg>