<?xml version="1.0" encoding="UTF-8"?>
<svg id="Layer_2" data-name="Layer 2" xmlns="http://www.w3.org/2000/svg" viewBox="0 0 591.91 338.43">
  <g id="Layer_1-2" data-name="Layer 1">
    <g>
      <path d="M294.16,87.86c-24.22,0-43.93-19.71-43.93-43.93S269.93,0,294.16,0s43.93,19.71,43.93,43.93-19.71,43.93-43.93,43.93ZM294.16,16c-15.4,0-27.93,12.53-27.93,27.93s12.53,27.93,27.93,27.93,27.93-12.53,27.93-27.93-12.53-27.93-27.93-27.93Z" style="fill: #00c6c2; stroke-width: 0px;"/>
      <path d="M547.98,338.43c-24.22,0-43.93-19.71-43.93-43.93s19.71-43.93,43.93-43.93,43.93,19.71,43.93,43.93-19.71,43.93-43.93,43.93ZM547.98,266.57c-15.4,0-27.93,12.53-27.93,27.93s12.53,27.93,27.93,27.93,27.93-12.53,27.93-27.93-12.53-27.93-27.93-27.93Z" style="fill: #00c6c2; stroke-width: 0px;"/>
      <path d="M326.24,334.58h-64.17c-4.42,0-8-3.58-8-8v-64.17c0-4.42,3.58-8,8-8h64.17c4.42,0,8,3.58,8,8v64.17c0,4.42-3.58,8-8,8ZM270.07,318.58h48.17v-48.17h-48.17v48.17Z" style="fill: #00c6c2; stroke-width: 0px;"/>
      <path d="M79.86,87.86H8c-4.42,0-8-3.58-8-8V8C0,3.58,3.58,0,8,0h71.86c4.42,0,8,3.58,8,8v71.86c0,4.42-3.58,8-8,8ZM16,71.86h55.86V16H16v55.86Z" style="fill: #00c6c2; stroke-width: 0px;"/>
      <path d="M211.45,72.42c-2.05,0-4.09-.78-5.66-2.34-3.12-3.12-3.12-8.19,0-11.31l14.83-14.83-14.83-14.83c-3.12-3.12-3.12-8.19,0-11.31,3.12-3.12,8.19-3.12,11.31,0l26.15,26.15-26.15,26.15c-1.56,1.56-3.61,2.34-5.66,2.34Z" style="fill: #052831; stroke-width: 0px;"/>
      <path d="M228.26,51.93h-122.11c-4.42,0-8-3.58-8-8s3.58-8,8-8h122.11c4.42,0,8,3.58,8,8s-3.58,8-8,8Z" style="fill: #052831; stroke-width: 0px;"/>
      <path d="M461.55,322.99c-2.05,0-4.09-.78-5.66-2.34-3.12-3.12-3.12-8.19,0-11.31l14.83-14.83-14.83-14.83c-3.12-3.12-3.12-8.19,0-11.31,3.12-3.12,8.19-3.12,11.31,0l26.15,26.15-26.15,26.15c-1.56,1.56-3.61,2.34-5.66,2.34Z" style="fill: #052831; stroke-width: 0px;"/>
      <path d="M478.37,302.5h-122.11c-4.42,0-8-3.58-8-8s3.58-8,8-8h122.11c4.42,0,8,3.58,8,8s-3.58,8-8,8Z" style="fill: #052831; stroke-width: 0px;"/>
      <path d="M294.16,240.47l-26.15-26.15c-3.12-3.12-3.12-8.19,0-11.31,3.12-3.12,8.19-3.12,11.31,0l14.83,14.83,14.83-14.83c3.12-3.12,8.19-3.12,11.31,0,3.12,3.12,3.12,8.19,0,11.31l-26.15,26.15Z" style="fill: #052831; stroke-width: 0px;"/>
      <path d="M294.16,233.49c-4.42,0-8-3.58-8-8v-122.11c0-4.42,3.58-8,8-8s8,3.58,8,8v122.11c0,4.42-3.58,8-8,8Z" style="fill: #052831; stroke-width: 0px;"/>
    </g>
  </g>
</svg>