<?xml version="1.0" encoding="UTF-8"?>
<svg id="Layer_2" data-name="Layer 2" xmlns="http://www.w3.org/2000/svg" viewBox="0 0 437.32 388.01">
  <g id="Layer_1-2" data-name="Layer 1">
    <g>
      <path d="M274.51,75.16c-2.05,0-4.09-.78-5.66-2.34l-50.19-50.19-50.19,50.19c-3.12,3.12-8.19,3.12-11.31,0-3.12-3.12-3.12-8.19,0-11.31L218.66,0l61.5,61.5c3.12,3.12,3.12,8.19,0,11.31-1.56,1.56-3.61,2.34-5.66,2.34Z" style="fill: #052831; stroke-width: 0px;"/>
      <path d="M370.16,222.34c-2.05,0-4.09-.78-5.66-2.34-3.12-3.12-3.12-8.19,0-11.31l50.19-50.19-50.19-50.19c-3.12-3.12-3.12-8.19,0-11.31,3.13-3.12,8.19-3.12,11.31,0l61.5,61.51-61.5,61.5c-1.56,1.56-3.61,2.34-5.66,2.34Z" style="fill: #00c6c2; stroke-width: 0px;"/>
      <path d="M67.16,277.72c-2.05,0-4.09-.78-5.66-2.34L0,213.87l61.5-61.5c3.12-3.12,8.19-3.12,11.31,0,3.12,3.12,3.12,8.19,0,11.31l-50.19,50.19,50.19,50.19c3.12,3.12,3.12,8.19,0,11.31-1.56,1.56-3.61,2.34-5.66,2.34Z" style="fill: #00c6c2; stroke-width: 0px;"/>
      <path d="M218.66,388.01c-4.42,0-8-3.58-8-8V11.31c0-4.42,3.58-8,8-8s8,3.58,8,8v368.7c0,4.42-3.58,8-8,8Z" style="fill: #052831; stroke-width: 0px;"/>
      <path d="M261.18,388.01c-4.42,0-8-3.58-8-8v-229.52s172.83,0,172.83,0c4.42,0,8,3.58,8,8s-3.58,8-8,8h-156.83s0,213.52,0,213.52c0,4.42-3.58,8-8,8Z" style="fill: #00c6c2; stroke-width: 0px;"/>
      <path d="M176.14,388.01c-4.42,0-8-3.58-8-8v-158.14s-156.83,0-156.83,0c-4.42,0-8-3.58-8-8s3.58-8,8-8h172.83s0,174.14,0,174.14c0,4.42-3.58,8-8,8Z" style="fill: #00c6c2; stroke-width: 0px;"/>
    </g>
  </g>
</svg>