<?xml version="1.0" encoding="UTF-8"?>
<svg id="Layer_2" data-name="Layer 2" xmlns="http://www.w3.org/2000/svg" viewBox="0 0 391.44 391.44">
  <g id="Layer_1-2" data-name="Layer 1">
    <g>
      <path d="M144.71,254.73c-2.05,0-4.09-.78-5.66-2.34-3.12-3.12-3.12-8.19,0-11.31L377.78,2.34c3.12-3.12,8.19-3.12,11.31,0,3.12,3.12,3.12,8.19,0,11.31l-238.73,238.73c-1.56,1.56-3.61,2.34-5.66,2.34Z" style="fill: #052831; stroke-width: 0px;"/>
      <path d="M383.44,99.85c-4.42,0-8-3.58-8-8V16h-75.85c-4.42,0-8-3.58-8-8s3.58-8,8-8h91.85v91.85c0,4.42-3.58,8-8,8Z" style="fill: #052831; stroke-width: 0px;"/>
      <path d="M87.33,391.44c-48.15,0-87.33-39.17-87.33-87.33s39.17-87.33,87.33-87.33,87.33,39.17,87.33,87.33-39.17,87.33-87.33,87.33ZM87.33,232.78c-39.33,0-71.33,32-71.33,71.33s32,71.33,71.33,71.33,71.33-32,71.33-71.33-32-71.33-71.33-71.33Z" style="fill: #052831; stroke-width: 0px;"/>
      <path d="M154.6,150.55c-2.05,0-4.09-.78-5.66-2.34L14.4,13.66c-3.12-3.12-3.12-8.19,0-11.31,3.12-3.12,8.19-3.12,11.31,0l134.55,134.55c3.12,3.12,3.12,8.19,0,11.31-1.56,1.56-3.61,2.34-5.66,2.34Z" style="fill: #00c6c2; stroke-width: 0px;"/>
      <path d="M20.05,150.55c-2.05,0-4.09-.78-5.66-2.34-3.12-3.12-3.12-8.19,0-11.31L148.95,2.34c3.12-3.12,8.19-3.12,11.31,0,3.12,3.12,3.12,8.19,0,11.31L25.71,148.21c-1.56,1.56-3.61,2.34-5.66,2.34Z" style="fill: #00c6c2; stroke-width: 0px;"/>
      <path d="M383.44,379.39c-2.05,0-4.09-.78-5.66-2.34l-134.55-134.55c-3.12-3.12-3.12-8.19,0-11.31,3.13-3.12,8.19-3.12,11.31,0l134.55,134.55c3.12,3.12,3.12,8.19,0,11.31-1.56,1.56-3.61,2.34-5.66,2.34Z" style="fill: #00c6c2; stroke-width: 0px;"/>
      <path d="M248.89,379.39c-2.05,0-4.09-.78-5.66-2.34-3.12-3.12-3.12-8.19,0-11.31l134.55-134.55c3.12-3.12,8.19-3.12,11.31,0,3.12,3.12,3.12,8.19,0,11.31l-134.55,134.55c-1.56,1.56-3.61,2.34-5.66,2.34Z" style="fill: #00c6c2; stroke-width: 0px;"/>
    </g>
  </g>
</svg>