<?xml version="1.0" encoding="utf-8"?>
<!-- Generator: Adobe Illustrator 27.8.0, SVG Export Plug-In . SVG Version: 6.00 Build 0)  -->
<svg version="1.1" xmlns="http://www.w3.org/2000/svg" xmlns:xlink="http://www.w3.org/1999/xlink" x="0px" y="0px"
	 viewBox="0 0 3250 1000" style="enable-background:new 0 0 3250 1000;" xml:space="preserve">
<style type="text/css">
	.st0{fill:#052831;}
	.st1{fill:#00C6C2;}
</style>
<g id="Layer_2">
</g>
<g id="Layer_1">
	<g>
		<g>
			<polygon class="st0" points="1017,548.4 946.7,344.4 846.3,344.4 957.4,655.7 1050.3,655.7 1161.8,344.4 1084,344.4 			"/>
			<polygon class="st0" points="1277.1,532.4 1366.2,532.4 1366.2,464.4 1277.1,464.4 1277.1,411 1426.6,411 1426.6,344.4 
				1182.9,344.4 1182.9,655.7 1430.4,655.7 1430.4,587.7 1277.1,587.7 			"/>
			<path class="st0" d="M1646.2,509.4c46.4-9.4,77.8-36.1,77.8-82c0-47.8-27.2-83-131.7-83h-134.6v311.3h94.2v-112h20.6
				c41.7,0.5,56.3,37.5,61.4,92.8l0.9,19.2h97c-0.5-7-1.9-25.8-3.8-37C1719.3,554.4,1699.7,518.8,1646.2,509.4z M1573.5,494.4
				l-21.6,2.3v-94.7h26.3c39.4,0,54.4,15,54.4,42.7C1632.6,473.8,1612,494,1573.5,494.4z"/>
			<path class="st0" d="M1912.4,463c-38-8.4-71.3-13.1-71.3-34.2c0-17.8,14.5-29.5,37.5-29.5c37,0,51.6,15.5,56.7,45.9h77.4
				c-4.7-64.7-48.8-107.4-133.6-107.4c-78.3,0-133.6,43.6-133.6,106.4c0,64.2,60,83,110.2,94.7c36.1,8.4,66.1,14.1,66.1,32.3
				c0,17.8-14.5,29.1-38.9,29.1c-40.8,0-59.1-16.4-65.2-46.9H1739c6.1,58.6,53.9,108.3,144.9,108.3c83,0,134.1-40.8,134.1-105.5
				C2017.9,491.6,1961.6,474.3,1912.4,463z"/>
			<path class="st0" d="M2333.2,337.9c-98.9,0-167.4,65.6-167.4,162.7s67.5,161.7,163.6,161.7c98.9,0,167.4-65.6,167.4-162.7
				C2496.9,402.6,2429.4,337.9,2333.2,337.9z M2396.5,504.8c0,57.2-21.6,86.7-65.2,86.7c-43.6,0-65.2-30-65.2-86.3v-9.8
				c0-57.2,22-86.7,65.2-86.7c43.6,0,65.2,30,65.2,86.3V504.8z"/>
			<polygon class="st0" points="2743.7,517.4 2631.7,344.4 2526.2,344.4 2526.2,655.7 2601.2,655.7 2601.2,458.3 2727.3,655.7 
				2818.7,655.7 2818.7,344.4 2743.7,344.4 			"/>
			<polygon class="st0" points="2043.6,655.7 2139.7,655.7 2139.7,344.4 2043.6,378.9 			"/>
			<polygon class="st0" points="3040,344.4 2937,381.1 2967.9,460.1 3015.5,442.9 3015.5,655.7 3106.9,655.7 3106.9,344.4 			"/>
		</g>
	</g>
	<g>
		<polygon class="st1" points="143.1,793.5 389.6,706.1 482.3,205.8 		"/>
		<polygon class="st1" points="645.3,637.1 165.6,807 844.2,807 		"/>
		<polygon class="st1" points="457.7,450.2 844.6,780.7 505.4,193 		"/>
	</g>
</g>
</svg>
